<?xml version="1.0" encoding="utf-8"?>
<!DOCTYPE svg PUBLIC "-//W3C//DTD SVG 20010904//EN" "http://www.w3.org/TR/2001/REC-SVG-20010904/DTD/svg10.dtd">
<svg version="1.0" xmlns="http://www.w3.org/2000/svg" width="602pt" height="156pt" viewBox="0 0 602 156" style="" preserveAspectRatio="xMidYMid meet">
<g fill="#2056AEFF" stroke="#2056AEFF">
<path d="M 48.316 5.000 C 48.400 5.275 45.776 7.964 42.484 10.976 C 26.660 25.458 7.088 44.000 7.626 44.000 C 7.857 44.000 7.310 45.124 6.409 46.498 C 5.215 48.321 4.945 50.147 5.411 53.252 C 5.926 56.687 7.297 58.839 12.524 64.411 C 16.086 68.208 19.000 71.704 19.000 72.180 C 19.000 73.980 24.936 69.417 29.815 63.866 L 32.130 61.233 27.364 56.730 L 22.598 52.227 30.549 44.464 C 34.922 40.194 41.986 33.298 46.246 29.138 L 53.991 21.575 58.496 25.996 C 60.973 28.427 63.000 30.815 63.000 31.303 C 63.000 31.790 66.312 35.282 70.359 39.062 C 74.407 42.842 78.447 47.412 79.337 49.217 C 80.226 51.023 80.965 52.071 80.977 51.547 C 80.990 51.023 82.781 52.334 84.959 54.460 C 87.136 56.586 88.641 58.771 88.304 59.317 C 87.967 59.863 88.179 60.007 88.776 59.638 C 89.373 59.269 90.120 59.386 90.437 59.898 C 90.753 60.409 87.620 63.922 83.475 67.704 L 75.939 74.580 82.323 80.540 L 88.708 86.500 83.347 80.336 L 77.987 74.171 87.545 65.336 C 92.802 60.476 98.768 55.724 100.802 54.776 C 104.355 53.120 104.392 53.051 101.753 53.026 C 99.976 53.009 97.592 54.278 95.003 56.616 C 92.801 58.605 91.000 59.779 91.000 59.223 C 91.000 58.668 91.679 57.953 92.509 57.635 C 93.339 57.316 93.941 56.706 93.845 56.278 C 93.509 54.769 95.228 50.000 96.108 50.000 C 96.599 50.000 97.000 49.100 97.000 48.000 C 97.000 46.900 96.606 46.000 96.125 46.000 C 95.644 46.000 94.983 44.663 94.656 43.029 C 94.326 41.382 91.839 37.751 89.078 34.887 C 86.337 32.043 84.127 29.443 84.166 29.108 C 84.205 28.774 84.184 28.656 84.118 28.846 C 83.933 29.388 65.532 10.582 65.515 9.833 C 65.496 8.982 64.037 7.511 63.167 7.465 C 62.800 7.445 61.434 6.838 60.131 6.116 C 57.887 4.871 47.993 3.937 48.316 5.000 "/></g>
<g fill="#962999FF" stroke="#962999FF">
<path d="M 49.333 54.056 C 44.792 54.662 39.282 58.051 34.038 63.461 C 32.193 65.365 30.235 66.645 29.687 66.307 C 29.139 65.968 28.987 66.171 29.350 66.757 C 30.127 68.014 21.162 76.218 19.878 75.425 C 19.395 75.126 19.000 75.514 19.000 76.286 C 19.000 77.659 15.423 81.500 14.145 81.500 C 13.790 81.500 13.591 81.774 13.703 82.108 C 13.814 82.443 12.577 83.989 10.953 85.545 C 9.329 87.101 7.963 87.952 7.917 87.437 C 7.824 86.391 7.321 88.644 6.400 94.237 C 5.661 98.721 8.473 104.845 13.034 108.682 C 14.668 110.057 15.710 111.661 15.348 112.246 C 14.987 112.831 15.159 113.020 15.733 112.665 C 16.688 112.075 30.338 126.295 30.625 128.179 C 30.694 128.630 30.806 128.705 30.875 128.345 C 30.944 127.985 31.889 128.495 32.976 129.479 C 34.063 130.462 34.669 131.727 34.322 132.288 C 33.975 132.850 34.146 133.028 34.702 132.684 C 35.258 132.341 37.179 133.884 38.972 136.114 C 43.372 141.590 47.590 143.992 52.816 143.996 C 57.994 144.001 60.287 142.923 65.298 138.132 C 67.387 136.134 69.300 134.613 69.548 134.750 C 69.797 134.888 69.956 134.733 69.902 134.407 C 69.849 134.080 71.058 132.505 72.590 130.907 C 75.047 128.342 75.113 127.550 72.846 127.850 C 71.844 127.982 69.878 125.313 69.495 123.300 C 69.307 122.310 69.119 121.922 69.077 122.437 C 69.034 122.952 67.719 122.147 66.153 120.647 L 63.306 117.919 58.030 122.663 L 52.753 127.407 49.795 123.954 C 48.167 122.054 44.968 118.475 42.685 116.000 C 40.402 113.525 38.506 111.050 38.472 110.500 C 38.437 109.950 37.910 109.598 37.299 109.719 C 36.688 109.839 33.237 106.639 29.630 102.609 L 23.072 95.281 25.532 92.970 C 26.885 91.699 28.331 90.998 28.746 91.413 C 29.161 91.827 29.500 91.771 29.500 91.287 C 29.500 89.475 43.973 75.865 45.135 76.584 C 45.839 77.019 46.043 76.878 45.644 76.233 C 45.276 75.638 47.651 72.832 50.950 69.962 C 54.235 67.105 57.650 63.657 58.540 62.299 C 60.038 60.012 60.030 59.690 58.423 57.915 C 57.470 56.862 56.872 55.948 57.095 55.885 C 57.557 55.753 56.098 55.378 54.250 55.152 C 53.563 55.069 53.113 54.663 53.250 54.250 C 53.388 53.838 51.625 53.750 49.333 54.056 "/></g>
<g fill="#EE1C34FF" stroke="#EE1C34FF">
<path d="M 93.321 5.005 C 92.122 5.488 88.084 8.780 84.347 12.320 C 78.397 17.957 77.720 18.958 78.899 20.378 C 79.639 21.270 80.077 22.053 79.872 22.118 C 79.668 22.184 79.814 22.191 80.197 22.136 C 80.581 22.080 82.567 24.076 84.612 26.571 L 88.329 31.107 93.499 26.001 C 98.029 21.528 98.828 21.088 99.957 22.448 C 100.665 23.302 100.965 24.056 100.622 24.125 C 100.280 24.194 100.392 24.306 100.871 24.375 C 101.350 24.444 107.640 30.796 114.848 38.491 L 127.955 52.482 122.786 57.716 C 119.943 60.595 117.366 62.699 117.059 62.392 C 116.751 62.085 116.500 62.215 116.500 62.682 C 116.500 63.559 101.092 78.549 100.882 77.877 C 100.816 77.670 100.806 77.805 100.857 78.177 C 100.909 78.550 98.712 80.729 95.976 83.020 C 93.239 85.312 91.000 87.578 91.000 88.057 C 91.000 89.800 98.538 94.000 101.667 94.000 C 106.513 94.000 109.565 92.487 115.028 87.377 C 117.762 84.819 120.056 83.013 120.125 83.363 C 120.194 83.713 120.306 83.656 120.375 83.235 C 120.519 82.354 135.939 67.552 136.118 68.123 C 136.184 68.330 136.192 68.187 136.137 67.805 C 136.082 67.423 137.385 66.150 139.033 64.976 C 143.133 62.057 145.000 58.030 145.000 52.107 C 145.000 47.430 144.645 46.731 139.392 41.057 C 136.308 37.726 134.058 34.944 134.392 34.875 C 134.727 34.806 134.603 34.694 134.118 34.625 C 133.632 34.556 127.320 28.154 120.090 20.398 C 112.860 12.642 105.811 5.779 104.425 5.148 C 101.495 3.813 96.440 3.748 93.321 5.005 "/></g>
<g fill="#38A5B2FF" stroke="#38A5B2FF">
<path d="M 125.365 81.612 L 119.500 86.849 124.432 91.894 C 129.280 96.852 129.333 96.974 127.522 98.976 C 126.508 100.096 125.561 100.894 125.417 100.750 C 125.273 100.606 119.173 106.229 111.861 113.244 C 104.549 120.260 98.073 126.000 97.470 126.000 C 96.867 126.000 95.081 124.650 93.500 123.000 C 91.919 121.350 90.883 120.000 91.198 120.000 C 91.513 120.000 88.224 116.548 83.889 112.330 C 79.554 108.111 76.268 104.399 76.587 104.080 C 76.906 103.761 76.782 103.500 76.312 103.500 C 75.841 103.500 72.431 100.350 68.733 96.500 L 62.010 89.500 59.005 92.766 C 56.514 95.473 56.000 96.874 56.000 100.956 C 56.000 106.415 56.611 107.194 80.068 131.639 C 95.769 148.001 98.353 147.926 116.482 130.589 C 123.072 124.287 128.697 119.363 128.982 119.648 C 129.267 119.933 129.500 119.742 129.500 119.222 C 129.500 118.703 132.949 115.056 137.165 111.119 C 143.496 105.207 144.947 103.271 145.500 100.002 C 146.648 93.207 145.292 90.134 137.992 82.992 L 131.229 76.375 125.365 81.612 "/></g>
<g fill="#38A5B2FF" stroke="#38A5B2FF">
<path d="M 416.000 64.000 L 416.000 115.000 419.000 115.000 L 422.000 115.000 422.000 65.853 L 422.000 16.706 433.750 17.407 C 445.959 18.135 458.367 20.597 457.434 22.107 C 457.138 22.585 457.668 22.681 458.612 22.319 C 459.868 21.836 460.109 22.015 459.510 22.985 C 458.964 23.867 459.077 24.070 459.848 23.594 C 461.347 22.668 469.039 28.205 472.728 32.867 C 489.166 53.640 488.377 79.745 470.777 97.373 C 467.552 100.604 464.670 103.004 464.373 102.707 C 464.076 102.410 463.022 102.978 462.031 103.969 C 458.139 107.861 449.603 110.000 437.962 110.000 L 427.000 110.000 427.000 112.500 C 427.000 114.990 427.037 115.000 436.451 115.000 C 448.108 115.000 454.598 113.700 463.000 109.681 C 466.575 107.971 469.838 106.499 470.250 106.411 C 470.663 106.322 470.862 106.194 470.693 106.125 C 470.525 106.056 472.732 103.579 475.598 100.619 C 481.305 94.728 486.992 83.923 489.022 75.119 C 491.662 63.668 489.093 48.774 482.535 37.500 C 481.256 35.300 480.274 33.249 480.354 32.942 C 480.434 32.636 478.179 30.323 475.342 27.804 C 461.437 15.455 454.101 13.020 430.750 13.008 L 416.000 13.000 416.000 64.000 "/></g>
<g fill="#38A5B2FF" stroke="#38A5B2FF">
<path d="M 328.000 64.000 L 328.000 115.000 330.490 115.000 L 332.981 115.000 333.240 66.250 L 333.500 17.500 345.377 17.756 C 358.394 18.036 367.175 19.843 373.463 23.536 C 377.277 25.777 388.184 36.000 386.760 36.000 C 386.395 36.000 387.186 37.177 388.519 38.615 C 391.586 41.925 394.654 50.072 395.996 58.476 C 397.353 66.969 395.894 76.552 392.034 84.500 C 388.621 91.529 382.296 99.301 380.761 98.353 C 380.165 97.984 379.979 98.157 380.342 98.744 C 381.189 100.115 372.102 105.924 365.587 108.176 C 361.995 109.418 357.341 109.944 349.750 109.967 L 339.000 110.000 339.000 112.621 L 339.000 115.241 351.750 114.589 C 363.480 113.989 371.924 113.268 369.500 113.074 C 368.950 113.030 371.650 111.407 375.500 109.468 C 379.350 107.529 382.613 105.955 382.750 105.971 C 382.888 105.987 382.862 106.000 382.693 106.000 C 382.525 106.000 384.708 103.604 387.545 100.675 C 399.067 88.779 404.593 69.091 400.925 53.000 C 398.997 44.537 392.970 33.868 386.520 27.500 C 374.923 16.050 365.820 13.038 342.750 13.015 L 328.000 13.000 328.000 64.000 "/></g>
<g fill="#38A5B2FF" stroke="#38A5B2FF">
<path d="M 258.720 14.493 C 249.300 17.084 244.357 23.142 243.299 33.393 C 242.487 41.257 245.028 48.889 249.932 53.320 C 255.222 58.098 257.454 59.161 275.467 65.473 C 283.968 68.452 291.954 71.418 293.212 72.064 C 304.285 77.753 307.957 92.238 300.823 102.085 C 295.564 109.346 292.904 109.953 266.250 109.978 L 243.000 110.000 243.000 112.500 L 243.000 115.000 266.374 115.000 C 291.578 115.000 295.100 114.449 301.604 109.489 C 303.386 108.129 306.064 104.524 307.555 101.478 C 309.935 96.612 310.204 95.098 309.769 89.011 C 309.371 83.449 308.596 80.941 305.843 76.301 C 301.714 69.341 298.179 67.327 277.456 60.129 C 269.732 57.446 261.602 54.327 259.389 53.199 C 255.555 51.243 252.053 48.141 253.378 47.875 C 253.720 47.806 253.483 47.694 252.851 47.625 C 250.816 47.404 248.840 39.795 249.245 33.737 C 249.719 26.632 251.939 23.334 258.437 20.079 C 262.974 17.806 264.549 17.629 284.135 17.195 C 303.670 16.762 305.000 16.614 305.000 14.866 C 305.000 13.102 303.870 13.005 284.250 13.089 C 270.460 13.149 261.897 13.620 258.720 14.493 "/></g>
<g fill="#38A5B2FF" stroke="#38A5B2FF">
<path d="M 162.000 46.864 C 162.000 65.488 162.439 83.044 162.976 85.876 C 165.266 97.951 172.756 108.119 182.845 112.849 C 187.651 115.102 189.852 115.500 197.500 115.500 C 205.135 115.500 207.353 115.100 212.120 112.865 C 224.349 107.131 231.780 96.492 232.899 83.115 C 233.822 72.073 231.326 65.800 221.818 55.272 C 219.718 52.947 218.000 51.235 218.000 51.467 C 218.000 51.699 215.413 50.686 212.250 49.216 C 207.393 46.958 205.180 46.551 198.000 46.595 C 184.191 46.679 174.000 51.668 174.000 58.344 C 174.000 61.247 174.043 61.271 176.000 59.500 C 177.100 58.505 178.053 57.872 178.118 58.095 C 178.184 58.318 178.204 58.223 178.163 57.885 C 178.123 57.546 180.432 55.971 183.295 54.385 C 187.951 51.804 189.450 51.500 197.500 51.500 C 207.737 51.500 213.360 53.514 219.072 59.225 C 222.814 62.968 227.453 72.376 226.623 74.540 C 226.315 75.343 226.499 76.000 227.031 76.000 C 228.287 76.000 228.272 84.482 227.007 89.035 C 225.593 94.124 220.219 102.253 218.834 101.398 C 218.143 100.970 217.964 101.133 218.383 101.810 C 219.328 103.340 209.641 109.559 204.025 111.028 C 195.051 113.375 185.152 110.285 177.167 102.645 C 167.793 93.675 167.000 89.284 167.000 46.316 L 167.000 13.000 164.500 13.000 L 162.000 13.000 162.000 46.864 "/></g>
<g fill="#2056AEFF" stroke="#2056AEFF">
<path d="M 63.000 61.909 C 63.838 62.501 63.996 62.976 63.358 62.985 C 62.730 62.993 59.918 65.067 57.108 67.593 C 54.299 70.119 51.944 71.919 51.875 71.593 C 51.806 71.267 51.687 71.338 51.610 71.750 C 51.285 73.485 49.795 74.991 48.931 74.457 C 48.419 74.141 48.011 74.471 48.025 75.191 C 48.038 75.911 45.021 79.267 41.319 82.650 C 35.661 87.820 34.787 89.039 35.835 90.302 C 36.521 91.128 38.189 92.081 39.541 92.421 C 40.893 92.760 42.000 93.468 42.000 93.994 C 42.000 94.530 43.363 94.677 45.101 94.330 C 47.025 93.945 48.479 94.156 48.930 94.886 C 49.433 95.700 50.713 95.133 53.078 93.047 C 56.702 89.854 58.438 89.186 57.750 91.250 C 57.521 91.938 56.771 92.500 56.083 92.500 C 55.396 92.500 55.088 92.755 55.400 93.066 C 55.711 93.378 55.524 95.174 54.983 97.059 C 53.008 103.944 54.307 106.192 69.741 122.604 C 77.704 131.072 84.723 138.000 85.339 138.000 C 85.955 138.000 82.617 134.063 77.922 129.250 C 73.227 124.438 66.374 117.229 62.693 113.231 C 56.310 106.299 56.000 105.732 56.000 100.997 C 56.000 96.897 56.516 95.463 58.961 92.766 L 61.921 89.500 76.211 103.921 C 86.701 114.508 88.086 115.705 81.419 108.421 C 76.424 102.964 70.158 96.119 67.494 93.210 C 64.768 90.232 62.072 88.142 61.326 88.429 C 60.597 88.708 60.000 88.767 60.000 88.558 C 60.000 87.491 72.610 75.000 73.686 75.000 C 74.378 75.000 72.594 72.475 69.722 69.390 C 66.850 66.304 64.500 63.304 64.500 62.723 C 64.500 62.142 63.825 61.482 63.000 61.257 C 61.667 60.893 61.667 60.966 63.000 61.909 "/></g>
<g fill="#EE1C34FF" stroke="#EE1C34FF">
<path d="M 59.527 35.043 C 59.775 35.445 59.331 36.310 58.540 36.967 C 56.333 38.798 54.764 44.648 55.536 48.166 C 56.157 50.992 58.930 54.404 72.261 68.750 C 73.922 70.538 75.571 72.000 75.925 72.000 C 76.279 72.000 79.012 69.526 81.998 66.502 L 87.428 61.003 82.502 56.002 C 79.792 53.251 77.896 50.944 78.288 50.875 C 78.679 50.806 78.603 50.694 78.119 50.625 C 76.970 50.462 63.880 36.326 63.961 35.335 C 63.995 34.918 62.909 34.518 61.549 34.445 C 60.188 34.372 59.278 34.641 59.527 35.043 "/></g>
<g fill="#962999FF" stroke="#962999FF">
<path d="M 69.399 82.266 C 66.250 85.145 63.568 87.340 63.440 87.144 C 63.313 86.948 65.167 88.710 67.561 91.060 C 69.955 93.409 71.638 95.776 71.302 96.320 C 70.966 96.864 71.162 97.018 71.737 96.663 C 72.312 96.307 74.431 97.925 76.446 100.258 C 78.461 102.591 81.773 106.184 83.805 108.243 C 85.837 110.301 87.163 112.045 86.750 112.118 C 86.338 112.191 86.413 112.306 86.917 112.375 C 87.421 112.444 88.171 112.838 88.583 113.250 C 90.143 114.810 91.702 113.875 93.816 110.114 C 96.366 105.576 96.558 102.272 94.551 97.468 C 93.754 95.561 93.304 93.944 93.551 93.875 C 93.798 93.806 93.663 93.673 93.250 93.580 C 92.338 93.372 78.000 79.189 78.000 78.494 C 78.000 78.222 78.338 78.053 78.750 78.118 C 80.543 78.401 79.292 77.812 77.313 77.442 C 75.744 77.148 73.509 78.510 69.399 82.266 "/></g>
<g fill="#38A5B2FF" stroke="#38A5B2FF">
<path d="M 101.700 54.492 C 98.678 55.531 83.002 68.613 79.240 73.235 C 78.482 74.167 79.600 76.023 83.493 80.288 L 88.775 86.076 96.521 78.788 C 100.781 74.780 106.978 68.837 110.292 65.582 L 116.317 59.665 113.409 57.344 C 108.958 53.793 105.900 53.048 101.700 54.492 "/></g>
<g fill="#2056AEFF" stroke="#2056AEFF">
<path d="M 327.000 64.000 L 327.000 116.000 331.000 116.000 L 335.000 116.000 335.000 67.000 L 335.000 18.000 341.500 17.779 C 347.746 17.567 347.717 17.558 340.750 17.529 L 333.500 17.500 333.240 66.250 L 332.981 115.000 330.490 115.000 L 328.000 115.000 328.000 64.000 L 328.000 13.000 343.250 13.058 C 354.451 13.100 360.299 13.584 365.274 14.882 C 369.000 15.853 371.700 16.301 371.274 15.876 C 368.912 13.519 357.751 12.000 342.790 12.000 L 327.000 12.000 327.000 64.000 "/></g>
<g fill="#2056AEFF" stroke="#2056AEFF">
<path d="M 161.015 47.250 C 161.034 93.296 161.610 96.029 173.757 107.756 C 181.389 115.125 187.235 117.334 198.799 117.216 C 204.717 117.156 207.311 116.575 212.500 114.147 C 220.137 110.573 227.346 103.691 230.042 97.401 C 232.862 90.824 232.423 90.666 228.934 97.000 C 224.757 104.583 220.613 108.569 213.021 112.309 C 207.187 115.182 205.645 115.500 197.521 115.500 C 189.850 115.500 187.654 115.103 182.845 112.849 C 172.756 108.119 165.266 97.951 162.976 85.876 C 162.439 83.044 162.000 65.488 162.000 46.864 L 162.000 13.000 164.500 13.000 L 167.000 13.000 167.000 46.316 C 167.000 87.539 168.033 94.148 175.547 101.000 C 178.055 103.286 177.992 103.062 174.811 98.379 C 168.754 89.463 168.500 87.426 168.500 47.752 L 168.500 12.004 164.750 12.002 L 161.000 12.000 161.015 47.250 "/></g>
<g fill="#2056AEFF" stroke="#2056AEFF">
<path d="M 380.700 22.358 C 388.181 27.865 392.062 32.576 396.434 41.458 C 400.671 50.067 401.947 55.384 401.964 64.500 C 401.998 83.561 390.857 102.247 375.000 109.725 C 366.552 113.708 360.052 115.000 348.451 115.000 C 339.145 115.000 339.000 114.963 339.000 112.603 C 339.000 110.223 339.087 110.203 351.273 109.853 C 362.882 109.519 363.924 109.314 370.523 106.070 C 388.494 97.236 399.040 77.531 395.996 58.476 C 394.835 51.209 391.464 41.405 389.765 40.355 C 389.014 39.891 388.915 40.285 389.455 41.586 C 395.926 57.169 396.701 67.079 392.441 79.770 C 388.147 92.562 380.667 100.591 368.000 106.004 C 363.525 107.917 360.217 108.437 350.250 108.798 L 338.000 109.241 338.000 112.734 L 338.000 116.227 351.750 115.809 C 365.083 115.403 365.736 115.280 373.301 111.737 C 384.065 106.695 392.196 98.473 397.984 86.775 C 401.995 78.671 402.336 77.346 402.779 68.143 C 403.536 52.418 400.270 42.244 390.554 30.067 C 387.481 26.216 383.022 21.925 380.645 20.532 C 374.075 16.682 374.100 17.499 380.700 22.358 "/></g>
<g fill="#2056AEFF" stroke="#2056AEFF">
<path d="M 415.000 63.905 L 415.000 116.000 419.000 116.000 L 423.000 116.000 423.000 67.046 L 423.000 18.091 429.750 17.742 L 436.500 17.392 429.250 17.196 L 422.000 17.000 422.000 66.000 L 422.000 115.000 419.000 115.000 L 416.000 115.000 416.000 64.000 L 416.000 13.000 430.750 13.016 C 440.149 13.026 447.677 13.557 451.500 14.480 C 459.206 16.341 460.526 16.269 455.500 14.262 C 452.526 13.074 446.820 12.555 433.250 12.237 L 415.000 11.809 415.000 63.905 "/></g>
<g fill="#2056AEFF" stroke="#2056AEFF">
<path d="M 481.330 35.504 C 488.669 46.763 491.819 62.986 489.022 75.119 C 485.498 90.404 475.350 103.901 463.000 109.725 C 454.552 113.708 448.052 115.000 436.451 115.000 C 427.037 115.000 427.000 114.990 427.000 112.500 L 427.000 110.000 438.250 109.976 C 447.850 109.956 450.369 109.595 455.429 107.515 C 458.690 106.174 461.615 104.676 461.929 104.184 C 462.243 103.693 459.800 104.427 456.500 105.816 C 451.508 107.916 448.441 108.416 438.250 108.791 L 426.000 109.241 426.000 112.734 L 426.000 116.227 439.750 115.847 C 453.207 115.474 453.668 115.387 461.353 111.733 C 474.147 105.652 484.579 93.702 489.400 79.605 C 491.116 74.587 491.860 64.069 490.952 57.659 C 489.763 49.273 484.841 37.120 481.326 33.892 L 478.721 31.500 481.330 35.504 "/></g>
<g fill="#2056AEFF" stroke="#2056AEFF">
<path d="M 257.183 13.902 C 246.621 17.550 241.156 26.752 242.268 39.016 C 243.068 47.847 247.040 54.156 254.597 58.601 C 259.608 61.548 280.765 69.196 282.792 68.792 C 283.598 68.631 279.138 66.740 272.879 64.589 C 258.785 59.746 254.975 57.876 249.947 53.333 C 240.595 44.884 240.944 25.721 250.584 18.368 C 256.300 14.008 262.574 13.025 284.750 13.012 C 304.257 13.000 305.000 13.073 305.000 14.976 C 305.000 16.857 304.164 16.967 287.750 17.252 L 270.500 17.550 288.250 17.775 L 306.000 18.000 306.000 15.000 L 306.000 12.000 284.250 12.033 C 265.800 12.060 261.693 12.344 257.183 13.902 "/></g>
<g fill="#2056AEFF" stroke="#2056AEFF">
<path d="M 305.576 75.860 C 308.610 80.954 309.360 83.305 309.768 89.001 C 310.204 95.099 309.936 96.610 307.555 101.478 C 306.064 104.524 303.386 108.129 301.604 109.489 C 295.100 114.449 291.578 115.000 266.374 115.000 L 243.000 115.000 243.000 112.500 L 243.000 110.000 266.250 109.978 C 291.520 109.954 294.955 109.325 299.500 103.891 L 301.500 101.500 299.500 103.129 C 293.216 108.249 291.858 108.482 266.250 108.828 L 242.000 109.156 242.000 112.578 L 242.000 116.000 266.250 115.994 C 280.393 115.991 292.107 115.543 294.355 114.919 C 299.297 113.546 306.290 107.099 309.075 101.346 C 313.271 92.678 310.328 76.667 303.498 70.998 C 302.608 70.260 303.543 72.448 305.576 75.860 "/></g>
<g fill="#231F20FF" stroke="#231F20FF">
<path d="M 15.724 112.500 C 18.567 115.800 26.655 124.469 33.697 131.765 L 46.500 145.030 52.000 145.011 C 58.347 144.990 60.679 143.739 69.400 135.681 L 75.300 130.230 72.982 126.974 C 70.686 123.750 63.980 117.079 62.983 117.027 C 62.698 117.012 60.406 118.973 57.890 121.384 L 53.316 125.767 48.908 121.352 C 43.535 115.969 43.480 116.871 48.810 122.971 L 52.715 127.441 58.101 122.599 L 63.487 117.757 68.727 123.616 L 73.967 129.475 68.234 135.313 C 65.080 138.524 61.285 141.793 59.800 142.576 C 56.574 144.277 50.043 144.432 46.655 142.889 C 45.313 142.277 37.628 134.684 29.576 126.015 C 13.975 109.217 7.203 102.610 15.724 112.500 "/></g>
<g fill="#231F20FF" stroke="#231F20FF">
<path d="M 43.325 53.949 C 42.128 54.461 38.824 57.334 35.981 60.333 C 33.138 63.332 28.381 67.522 25.410 69.643 C 22.350 71.827 20.122 74.151 20.271 75.000 C 20.440 75.960 23.766 73.396 29.518 67.872 C 40.505 57.318 45.282 54.000 49.492 54.000 C 52.806 54.000 59.019 57.505 59.773 59.801 C 60.008 60.516 56.722 64.341 52.471 68.301 C 36.013 83.631 31.779 88.000 33.379 88.000 C 34.271 88.000 35.000 87.523 35.000 86.941 C 35.000 86.359 35.520 86.203 36.155 86.595 C 36.819 87.006 37.039 86.873 36.674 86.281 C 36.324 85.716 38.617 82.887 41.769 79.995 C 51.452 71.109 62.000 60.595 62.000 59.829 C 62.000 59.429 60.406 57.886 58.458 56.400 C 54.619 53.472 47.234 52.276 43.325 53.949 "/></g>
<g fill="#231F20FF" stroke="#231F20FF">
<path d="M 68.865 81.305 L 63.230 87.577 71.365 95.836 L 79.500 104.096 71.763 95.743 L 64.026 87.391 68.263 83.390 C 76.227 75.870 74.988 75.715 84.582 85.440 C 93.173 94.147 96.000 98.639 96.000 103.582 C 96.000 106.587 92.160 114.000 90.604 114.000 C 90.038 114.000 87.556 112.088 85.087 109.750 L 80.598 105.500 84.299 109.753 C 86.335 112.092 88.000 114.454 88.000 115.003 C 88.000 115.551 88.635 116.000 89.411 116.000 C 91.590 116.000 95.846 110.336 96.572 106.471 C 97.888 99.454 96.489 96.658 86.220 85.777 C 80.885 80.125 76.066 75.395 75.510 75.266 C 74.955 75.138 71.964 77.855 68.865 81.305 "/></g>
<g fill="#2056AEFF" stroke="#2056AEFF">
<path d="M 227.240 81.500 C 226.701 91.881 219.756 102.518 210.561 107.045 C 202.032 111.244 194.199 111.336 186.189 107.331 C 178.712 103.594 178.608 103.556 179.432 104.889 C 179.822 105.521 182.472 107.236 185.321 108.700 C 192.338 112.308 202.393 112.538 209.076 109.245 C 220.617 103.558 227.360 93.925 227.447 83.001 C 227.476 79.426 227.383 78.750 227.240 81.500 "/></g>
<g fill="#2056AEFF" stroke="#2056AEFF">
<path d="M 126.716 120.891 C 116.935 130.014 109.427 137.642 110.033 137.844 C 110.638 138.046 115.359 133.889 120.523 128.606 C 125.688 123.323 130.331 119.000 130.842 119.000 C 131.797 119.000 143.855 106.513 144.269 105.096 C 144.396 104.661 136.497 111.769 126.716 120.891 "/></g>
<g fill="#2056AEFF" stroke="#2056AEFF">
<path d="M 251.005 45.563 C 250.998 47.093 255.928 51.483 259.916 53.497 C 261.794 54.446 269.669 57.435 277.416 60.138 C 285.162 62.842 293.674 66.054 296.331 67.277 C 298.988 68.500 300.563 68.992 299.831 68.371 C 297.175 66.118 290.204 63.159 275.500 58.043 C 259.127 52.347 256.617 51.117 253.255 47.150 C 252.020 45.692 251.008 44.978 251.005 45.563 "/></g>
<g fill="#2056AEFF" stroke="#2056AEFF">
<path d="M 478.468 43.909 C 479.242 46.104 480.350 48.786 480.930 49.869 C 481.510 50.953 482.432 54.995 482.979 58.853 C 484.102 66.772 483.295 72.824 479.759 83.000 L 477.500 89.500 480.199 84.000 C 485.537 73.122 485.841 59.526 481.031 46.769 C 478.594 40.305 476.289 37.734 478.468 43.909 "/></g>
<g fill="#2056AEFF" stroke="#2056AEFF">
<path d="M 124.571 80.928 L 118.704 86.857 122.852 91.569 C 127.199 96.508 127.643 97.485 126.000 98.500 C 125.450 98.840 125.000 99.641 125.000 100.281 C 125.000 100.921 125.998 100.447 127.217 99.227 L 129.435 97.010 124.467 91.929 L 119.500 86.849 125.378 81.600 L 131.256 76.352 136.378 81.198 L 141.500 86.045 137.000 80.564 C 134.525 77.549 132.036 75.064 131.469 75.041 C 130.901 75.019 127.797 77.668 124.571 80.928 "/></g>
<g fill="#2056AEFF" stroke="#2056AEFF">
<path d="M 110.629 113.194 L 97.759 124.975 94.629 122.544 L 91.500 120.113 93.878 123.056 C 95.187 124.675 96.769 126.000 97.394 126.000 C 98.019 126.000 104.149 120.468 111.016 113.706 L 123.500 101.413 110.629 113.194 "/></g>
<g fill="#2056AEFF" stroke="#2056AEFF">
<path d="M 187.500 46.395 C 183.755 47.576 176.895 50.872 178.000 50.959 C 178.275 50.981 180.975 50.017 184.000 48.817 C 192.071 45.616 204.458 45.713 212.303 49.040 C 217.611 51.290 217.807 51.313 214.596 49.309 C 207.653 44.975 195.982 43.720 187.500 46.395 "/></g>
<g fill="#2056AEFF" stroke="#2056AEFF">
<path d="M 292.000 72.586 C 298.539 76.310 300.628 78.598 302.018 83.564 C 303.214 87.837 302.988 95.377 301.539 99.500 C 300.874 101.395 300.914 101.406 302.312 99.705 C 304.671 96.833 305.219 90.089 303.550 84.473 C 301.959 79.124 297.821 74.393 292.300 71.612 C 287.246 69.066 287.033 69.758 292.000 72.586 "/></g>
<g fill="#231F20FF" stroke="#231F20FF">
<path d="M 11.750 83.510 L 5.000 89.724 5.000 95.306 C 5.000 99.882 5.458 101.394 7.541 103.694 L 10.083 106.500 8.041 102.515 C 5.751 98.044 5.474 93.568 7.285 90.327 C 7.953 89.132 10.750 85.711 13.500 82.725 L 18.500 77.296 11.750 83.510 "/></g>
<g fill="#2056AEFF" stroke="#2056AEFF">
<path d="M 455.735 21.507 C 457.514 22.324 459.940 23.782 461.127 24.747 C 467.095 29.595 473.695 35.467 475.317 37.369 L 477.134 39.500 476.098 37.374 C 473.285 31.600 461.354 22.123 455.000 20.614 C 453.177 20.181 453.376 20.423 455.735 21.507 "/></g>
<g fill="#231F20FF" stroke="#231F20FF">
<path d="M 136.667 132.667 C 136.300 133.033 136.000 135.433 136.000 138.000 C 136.000 141.592 136.365 142.667 137.585 142.667 C 138.687 142.667 139.039 141.984 138.741 140.425 C 138.455 138.931 138.726 138.341 139.552 138.658 C 140.234 138.920 141.504 138.118 142.375 136.875 C 143.854 134.764 143.828 134.597 141.978 134.314 C 140.890 134.148 140.000 134.460 140.000 135.006 C 140.000 135.553 140.522 135.888 141.160 135.750 C 141.949 135.580 141.928 135.772 141.094 136.350 C 140.314 136.890 139.375 136.528 138.519 135.356 C 137.512 133.979 137.465 133.325 138.335 132.772 C 139.096 132.288 139.124 132.025 138.417 132.015 C 137.821 132.007 137.033 132.300 136.667 132.667 "/></g>
<g fill="#231F20FF" stroke="#231F20FF">
<path d="M 26.644 92.250 L 22.955 95.500 32.068 105.000 C 37.080 110.225 39.997 112.925 38.550 111.000 C 37.104 109.075 33.350 104.886 30.210 101.692 L 24.500 95.884 28.417 92.442 C 30.571 90.549 31.883 89.000 31.333 89.000 C 30.783 89.000 28.673 90.463 26.644 92.250 "/></g>
<g fill="#2056AEFF" stroke="#2056AEFF">
<path d="M 368.691 22.455 C 371.547 23.921 376.722 27.537 380.191 30.491 L 386.500 35.861 382.081 30.927 C 377.370 25.666 371.222 21.554 366.433 20.460 C 364.439 20.005 365.162 20.644 368.691 22.455 "/></g>
<g fill="#2056AEFF" stroke="#2056AEFF">
<path d="M 216.636 59.250 C 221.520 64.371 224.351 68.475 225.778 72.500 C 226.363 74.150 226.873 74.825 226.911 74.000 C 227.045 71.090 222.202 62.293 218.471 58.669 C 213.216 53.565 211.680 54.052 216.636 59.250 "/></g>
<g fill="#2056AEFF" stroke="#2056AEFF">
<path d="M 109.689 55.075 C 116.496 58.444 116.707 59.260 112.051 64.183 L 107.968 68.500 112.492 65.000 C 115.529 62.651 116.932 60.854 116.758 59.534 C 116.451 57.193 110.574 53.000 107.602 53.001 C 106.136 53.001 106.768 53.629 109.689 55.075 "/></g>
<g fill="#231F20AE" stroke="#231F20AE">
<path d="M 340.204 129.250 C 340.033 131.555 339.542 132.000 337.167 132.000 C 335.608 132.000 334.005 132.329 333.603 132.730 C 333.201 133.132 334.391 133.330 336.246 133.170 C 339.582 132.883 339.623 132.929 339.848 137.286 C 340.084 141.845 339.126 143.385 335.500 144.276 C 333.852 144.682 333.939 144.786 336.000 144.869 C 340.602 145.054 341.113 143.984 340.747 134.914 C 340.560 130.286 340.315 127.738 340.204 129.250 "/></g>
<g fill="#231F20FF" stroke="#231F20FF">
<path d="M 460.000 136.000 C 460.000 140.667 460.417 144.000 461.000 144.000 C 461.583 144.000 462.000 140.667 462.000 136.000 C 462.000 131.333 461.583 128.000 461.000 128.000 C 460.417 128.000 460.000 131.333 460.000 136.000 "/></g>
<g fill="#231F20AE" stroke="#231F20AE">
<path d="M 509.000 137.995 C 509.000 141.115 509.304 143.970 509.674 144.341 C 510.045 144.712 510.242 142.403 510.112 139.209 L 509.875 133.403 513.687 133.451 L 517.500 133.500 518.087 139.000 L 518.674 144.500 518.837 139.372 C 519.029 133.345 517.868 131.991 512.676 132.186 L 509.000 132.324 509.000 137.995 "/></g>
<g fill="#231F20FF" stroke="#231F20FF">
<path d="M 404.078 128.854 C 403.454 130.020 403.377 131.115 403.897 131.437 C 404.394 131.743 404.844 133.458 404.898 135.247 C 405.086 141.478 405.750 144.502 406.993 144.791 C 407.826 144.984 408.007 144.481 407.535 143.291 C 407.144 142.306 406.665 138.413 406.470 134.641 C 406.072 126.950 405.647 125.922 404.078 128.854 "/></g>
<g fill="#2056AEFF" stroke="#2056AEFF">
<path d="M 183.000 54.586 C 180.525 55.996 177.488 58.094 176.250 59.249 L 174.000 61.349 174.000 58.233 C 174.000 56.520 174.563 54.754 175.250 54.309 C 176.189 53.701 176.127 53.500 175.000 53.500 C 173.920 53.500 173.415 54.830 173.195 58.250 C 172.856 63.536 173.918 64.233 176.667 60.529 C 177.675 59.170 180.975 56.703 184.000 55.047 C 187.025 53.391 189.050 52.033 188.500 52.030 C 187.950 52.027 185.475 53.177 183.000 54.586 "/></g>
<g fill="#2056AEFF" stroke="#2056AEFF">
<path d="M 97.157 78.239 L 89.879 85.500 98.051 78.537 C 102.545 74.707 105.820 71.440 105.328 71.276 C 104.837 71.112 101.160 74.246 97.157 78.239 "/></g>
<g fill="#2056AEFF" stroke="#2056AEFF">
<path d="M 104.698 141.468 C 101.651 143.714 96.407 144.197 92.553 142.586 C 90.599 141.770 89.000 141.485 89.000 141.953 C 89.000 143.043 94.576 145.000 97.681 145.000 C 100.873 145.000 107.262 142.268 106.838 141.084 C 106.652 140.564 105.691 140.736 104.698 141.468 "/></g>
<g fill="#2056AEFF" stroke="#2056AEFF">
<path d="M 468.640 22.420 C 471.863 24.851 475.456 27.664 476.624 28.670 C 477.945 29.808 477.633 29.082 475.800 26.749 C 473.178 23.412 465.602 18.000 463.552 18.000 C 463.127 18.000 465.417 19.989 468.640 22.420 "/></g>
<g fill="#231F20FF" stroke="#231F20FF">
<path d="M 528.666 134.830 C 529.044 136.275 528.445 137.063 526.337 137.894 L 523.500 139.012 526.250 138.487 C 528.759 138.008 529.000 138.227 529.000 140.981 C 529.000 142.641 529.450 144.000 530.000 144.000 C 531.563 144.000 531.199 135.410 529.579 134.065 C 528.418 133.102 528.251 133.243 528.666 134.830 "/></g>
<g fill="#231F20AE" stroke="#231F20AE">
<path d="M 535.819 130.500 C 536.338 131.617 536.418 134.927 536.000 138.000 C 535.130 144.383 535.351 145.041 538.309 144.884 C 540.001 144.794 540.101 144.664 538.750 144.311 C 536.386 143.693 536.151 134.000 538.500 134.000 C 539.325 134.000 540.000 133.550 540.000 133.000 C 540.000 132.450 539.487 132.000 538.860 132.000 C 538.233 132.000 537.084 131.213 536.305 130.250 C 534.995 128.630 534.959 128.648 535.819 130.500 "/></g>
<g fill="#231F20FF" stroke="#231F20FF">
<path d="M 283.645 135.250 C 283.321 136.488 283.064 137.637 283.072 137.804 C 283.081 137.971 282.142 138.874 280.986 139.810 C 279.313 141.165 279.067 142.006 279.779 143.931 C 280.612 146.182 280.802 145.992 282.534 141.175 C 283.558 138.329 284.681 136.000 285.031 136.000 C 285.381 136.000 285.667 135.325 285.667 134.500 C 285.667 132.210 284.308 132.714 283.645 135.250 "/></g>
<g fill="#231F20FF" stroke="#231F20FF">
<path d="M 391.000 130.500 C 391.000 131.875 390.663 133.001 390.250 133.003 C 389.838 133.005 389.500 135.480 389.500 138.503 C 389.500 143.974 390.938 146.491 391.069 141.250 C 391.156 137.785 391.746 133.166 392.475 130.250 C 392.785 129.013 392.580 128.000 392.019 128.000 C 391.459 128.000 391.000 129.125 391.000 130.500 "/></g>
<g fill="#231F20AE" stroke="#231F20AE">
<path d="M 135.306 132.573 L 132.500 135.146 135.692 132.928 C 138.524 130.960 139.227 130.851 141.918 131.966 C 144.171 132.899 145.111 134.077 145.575 136.546 C 145.918 138.374 145.859 140.419 145.445 141.090 C 144.963 141.868 145.108 142.051 145.845 141.595 C 147.899 140.327 147.149 135.059 144.545 132.455 C 141.407 129.316 138.821 129.349 135.306 132.573 "/></g>
<g fill="#2056AEFF" stroke="#2056AEFF">
<path d="M 222.638 56.129 C 224.913 58.650 227.351 61.788 228.055 63.103 C 228.759 64.418 229.503 64.992 229.708 64.377 C 230.198 62.907 224.185 55.138 221.000 53.127 C 219.238 52.014 219.722 52.900 222.638 56.129 "/></g>
<g fill="#231F20FF" stroke="#231F20FF">
<path d="M 315.015 136.691 C 315.024 139.336 315.467 142.175 316.000 143.000 C 316.689 144.066 316.974 142.852 316.985 138.809 C 316.993 135.679 316.550 132.840 316.000 132.500 C 315.386 132.120 315.006 133.736 315.015 136.691 "/></g>
<g fill="#231F20AE" stroke="#231F20AE">
<path d="M 303.862 135.500 C 303.512 136.050 303.296 137.625 303.382 139.000 C 303.590 142.281 302.050 143.759 297.896 144.266 L 294.500 144.680 298.095 144.840 C 302.750 145.047 305.260 142.436 304.820 137.844 C 304.644 136.005 304.213 134.950 303.862 135.500 "/></g>
<g fill="#231F20FF" stroke="#231F20FF">
<path d="M 493.505 133.992 C 492.997 134.815 493.082 135.068 493.732 134.666 C 494.304 134.312 495.015 134.949 495.311 136.081 C 495.785 137.896 495.449 138.106 492.478 137.850 C 490.624 137.690 488.783 137.884 488.387 138.280 C 487.991 138.676 489.992 139.000 492.833 139.000 C 498.457 139.000 498.952 138.397 496.159 134.948 C 494.742 133.198 494.132 132.978 493.505 133.992 "/></g>
<g fill="#231F20AE" stroke="#231F20AE">
<path d="M 169.983 140.500 C 169.349 144.435 165.520 144.859 165.463 141.000 C 165.429 138.673 165.350 138.634 164.322 140.431 C 162.811 143.074 164.870 145.005 169.179 144.985 C 171.005 144.976 172.050 144.639 171.500 144.235 C 170.950 143.831 170.493 142.150 170.483 140.500 L 170.467 137.500 169.983 140.500 "/></g>
<g fill="#231F20FF" stroke="#231F20FF">
<path d="M 549.750 134.463 C 547.319 136.209 547.563 140.317 550.233 142.595 C 551.858 143.981 552.113 144.043 551.169 142.821 C 550.004 141.312 549.965 137.436 551.084 134.353 C 551.369 133.568 550.948 133.603 549.750 134.463 "/></g>
<g fill="#231F20FF" stroke="#231F20FF">
<path d="M 370.834 140.139 C 371.035 144.337 370.719 147.634 370.035 148.457 C 369.188 149.479 369.205 150.009 370.106 150.565 C 370.841 151.020 371.048 150.887 370.638 150.224 C 370.269 149.627 370.425 148.856 370.984 148.510 C 372.147 147.791 372.388 134.359 371.250 133.651 C 370.838 133.394 370.650 136.314 370.834 140.139 "/></g>
<g fill="#231F20FF" stroke="#231F20FF">
<path d="M 295.128 136.000 C 294.940 141.225 295.080 144.785 295.438 143.912 C 295.797 143.038 295.950 138.763 295.779 134.412 L 295.468 126.500 295.128 136.000 "/></g>
<g fill="#231F20AE" stroke="#231F20AE">
<path d="M 588.128 136.000 C 587.940 141.225 588.080 144.785 588.438 143.912 C 588.797 143.038 588.950 138.763 588.779 134.412 L 588.468 126.500 588.128 136.000 "/></g>
<g fill="#231F20FF" stroke="#231F20FF">
<path d="M 516.000 140.441 C 516.000 142.948 516.450 145.000 517.000 145.000 C 517.550 145.000 518.000 143.227 518.000 141.059 C 518.000 138.891 517.550 136.840 517.000 136.500 C 516.389 136.122 516.000 137.656 516.000 140.441 "/></g>
<g fill="#231F20FF" stroke="#231F20FF">
<path d="M 244.015 138.583 C 244.007 140.279 244.338 142.004 244.750 142.417 C 245.163 142.829 245.507 143.692 245.515 144.333 C 245.527 145.210 245.717 145.206 246.282 144.319 C 246.695 143.670 246.575 142.856 246.016 142.510 C 245.457 142.165 245.000 141.234 245.000 140.441 C 245.000 139.439 246.294 138.949 249.250 138.832 L 253.500 138.664 249.513 138.257 C 247.320 138.034 245.190 137.322 244.778 136.676 C 244.354 136.009 244.024 136.835 244.015 138.583 "/></g>
<g fill="#231F20FF" stroke="#231F20FF">
<path d="M 444.169 136.250 L 444.338 144.500 444.919 136.248 C 445.239 131.709 445.163 127.997 444.750 127.998 C 444.338 127.999 444.076 131.713 444.169 136.250 "/></g>
<g fill="#231F20AE" stroke="#231F20AE">
<path d="M 570.750 136.332 C 569.642 139.037 569.839 144.000 571.055 144.000 C 571.689 144.000 571.988 142.107 571.805 139.250 C 571.594 135.970 571.268 135.067 570.750 136.332 "/></g>
<g fill="#231F20AE" stroke="#231F20AE">
<path d="M 353.000 132.829 C 353.000 133.286 354.013 133.623 355.250 133.579 C 357.253 133.509 357.564 134.104 358.087 139.000 L 358.674 144.500 358.837 139.450 C 358.928 136.638 358.468 133.868 357.800 133.200 C 356.438 131.838 353.000 131.572 353.000 132.829 "/></g>
<g fill="#231F20AE" stroke="#231F20AE">
<path d="M 207.250 132.713 C 205.203 133.101 205.017 133.652 205.185 138.820 L 205.370 144.500 205.734 139.346 C 206.060 134.723 206.376 134.118 208.799 133.473 C 211.870 132.655 210.668 132.066 207.250 132.713 "/></g>
<g fill="#2056AEFF" stroke="#2056AEFF">
<path d="M 145.091 91.832 C 145.723 93.644 145.960 96.997 145.620 99.309 C 145.127 102.659 145.227 103.125 146.118 101.630 C 147.430 99.431 146.730 91.330 145.086 89.686 C 144.236 88.836 144.237 89.381 145.091 91.832 "/></g>
<g fill="#231F20AE" stroke="#231F20AE">
<path d="M 247.000 133.059 C 247.000 133.641 247.432 133.851 247.959 133.525 C 249.348 132.667 252.885 135.135 252.332 136.577 C 252.074 137.248 252.344 138.095 252.932 138.458 C 254.772 139.595 254.109 135.409 252.171 133.655 C 250.120 131.799 247.000 131.439 247.000 133.059 "/></g>
<g fill="#231F20AE" stroke="#231F20AE">
<path d="M 445.113 137.500 C 444.923 141.900 445.068 144.778 445.435 143.895 C 445.803 143.012 445.958 139.412 445.781 135.895 L 445.458 129.500 445.113 137.500 "/></g>
<g fill="#2056AEFF" stroke="#2056AEFF">
<path d="M 470.485 96.734 C 464.726 102.733 464.689 102.804 469.507 98.610 C 472.261 96.213 474.954 93.408 475.492 92.376 C 476.031 91.344 473.777 93.305 470.485 96.734 "/></g>
<g fill="#231F20FF" stroke="#231F20FF">
<path d="M 535.164 136.000 L 535.267 142.500 535.995 137.500 C 536.395 134.750 536.349 131.825 535.892 131.000 C 535.389 130.092 535.102 132.065 535.164 136.000 "/></g>
<g fill="#231F20AE" stroke="#231F20AE">
<path d="M 503.490 133.016 C 503.144 133.575 502.500 133.809 502.057 133.535 C 501.614 133.262 501.325 135.392 501.413 138.269 C 501.543 142.491 501.616 142.691 501.787 139.307 C 501.942 136.261 502.608 134.687 504.223 133.557 C 505.445 132.701 505.921 132.000 505.282 132.000 C 504.642 132.000 503.835 132.457 503.490 133.016 "/></g>
<g fill="#231F20AE" stroke="#231F20AE">
<path d="M 349.639 132.694 C 348.787 133.547 348.817 143.483 349.674 144.341 C 350.045 144.712 350.238 142.301 350.103 138.984 C 349.925 134.624 350.198 133.028 351.089 133.226 C 351.844 133.394 351.926 133.220 351.300 132.777 C 350.738 132.380 349.991 132.342 349.639 132.694 "/></g>
<g fill="#231F20FF" stroke="#231F20FF">
<path d="M 171.185 135.250 C 171.083 136.213 170.438 137.007 169.750 137.015 C 168.851 137.026 168.889 137.277 169.887 137.909 C 170.738 138.448 171.081 139.794 170.776 141.394 C 170.502 142.827 170.688 144.000 171.191 144.000 C 171.693 144.000 171.939 141.638 171.737 138.750 C 171.535 135.863 171.287 134.288 171.185 135.250 "/></g>
<g fill="#231F20FF" stroke="#231F20FF">
<path d="M 581.710 134.999 C 582.044 136.276 581.739 137.006 580.867 137.015 C 579.897 137.026 579.837 137.245 580.660 137.769 C 581.298 138.174 582.018 139.855 582.260 141.503 C 582.548 143.465 582.752 142.707 582.850 139.309 C 582.933 136.454 582.592 133.866 582.093 133.558 C 581.595 133.249 581.422 133.898 581.710 134.999 "/></g>
<g fill="#231F20FF" stroke="#231F20FF">
<path d="M 466.180 138.750 L 466.360 144.500 466.744 139.519 C 466.956 136.780 467.662 134.199 468.314 133.785 C 469.107 133.280 468.920 133.026 467.750 133.015 C 466.264 133.002 466.027 133.867 466.180 138.750 "/></g>
<g fill="#231F20AE" stroke="#231F20AE">
<path d="M 562.156 138.000 L 562.282 144.500 562.923 139.206 C 563.275 136.294 563.219 133.369 562.797 132.706 C 562.376 132.043 562.087 134.425 562.156 138.000 "/></g>
<g fill="#231F20AE" stroke="#231F20AE">
<path d="M 227.611 132.722 C 227.275 133.058 227.000 135.658 227.000 138.500 C 227.000 141.342 227.275 143.942 227.611 144.278 C 227.947 144.614 228.222 142.014 228.222 138.500 C 228.222 134.986 227.947 132.386 227.611 132.722 "/></g>
<g fill="#231F20FF" stroke="#231F20FF">
<path d="M 416.000 139.000 L 411.500 139.700 416.750 139.850 C 419.683 139.934 422.000 139.559 422.000 139.000 C 422.000 138.450 421.663 138.068 421.250 138.150 C 420.838 138.233 418.475 138.615 416.000 139.000 "/></g>
<g fill="#231F20FF" stroke="#231F20FF">
<path d="M 376.063 131.179 C 375.983 133.306 377.820 135.097 382.037 137.000 C 385.186 138.421 385.163 138.374 381.592 136.099 C 379.520 134.779 377.442 132.754 376.975 131.599 C 376.328 129.998 376.112 129.898 376.063 131.179 "/></g>
<g fill="#2056AEFF" stroke="#2056AEFF">
<path d="M 253.447 23.650 C 251.551 25.383 250.000 27.399 250.000 28.132 C 250.000 28.865 251.094 27.897 252.432 25.982 C 253.769 24.067 255.321 22.050 255.879 21.500 C 256.437 20.950 255.343 21.918 253.447 23.650 "/></g>
<g fill="#231F20FF" stroke="#231F20FF">
<path d="M 197.000 138.030 L 192.500 138.760 197.750 138.701 C 200.638 138.669 203.000 138.273 203.000 137.821 C 203.000 137.370 202.663 137.068 202.250 137.150 C 201.838 137.233 199.475 137.629 197.000 138.030 "/></g>
<g fill="#231F20AE" stroke="#231F20AE">
<path d="M 467.083 139.500 C 466.891 142.800 467.046 144.764 467.430 143.864 C 467.813 142.965 467.970 140.265 467.780 137.864 C 467.468 133.927 467.400 134.087 467.083 139.500 "/></g>
<g fill="#231F20AE" stroke="#231F20AE">
<path d="M 309.357 143.500 C 311.084 145.227 314.581 145.487 315.525 143.960 C 315.938 143.291 315.285 143.141 313.693 143.541 C 312.317 143.886 310.922 143.682 310.550 143.081 C 310.183 142.486 309.426 142.000 308.870 142.000 C 308.313 142.000 308.532 142.675 309.357 143.500 "/></g>
<g fill="#231F20AE" stroke="#231F20AE">
<path d="M 244.872 143.250 C 246.344 145.126 251.485 145.642 252.491 144.015 C 252.868 143.404 251.942 143.262 250.052 143.640 C 248.140 144.022 246.352 143.737 245.252 142.875 C 243.664 141.628 243.628 141.663 244.872 143.250 "/></g>
<g fill="#231F20AE" stroke="#231F20AE">
<path d="M 187.000 142.864 C 187.000 143.683 185.856 144.025 183.750 143.837 C 181.424 143.629 180.998 143.783 182.252 144.381 C 184.780 145.585 189.637 144.237 188.145 142.745 C 187.285 141.885 187.000 141.915 187.000 142.864 "/></g>
<g fill="#231F20AE" stroke="#231F20AE">
<path d="M 555.933 142.580 C 555.176 143.493 553.657 143.976 552.341 143.725 C 551.087 143.485 550.298 143.674 550.589 144.144 C 551.529 145.664 554.946 145.054 557.000 143.000 C 558.100 141.900 558.605 141.000 558.122 141.000 C 557.640 141.000 556.655 141.711 555.933 142.580 "/></g>
<g fill="#231F20AE" stroke="#231F20AE">
<path d="M 489.000 133.500 C 488.140 134.536 488.102 135.000 488.878 135.000 C 489.495 135.000 490.000 134.550 490.000 134.000 C 490.000 132.579 494.330 132.759 496.002 134.250 C 497.194 135.313 497.206 135.239 496.079 133.750 C 494.456 131.605 490.683 131.472 489.000 133.500 "/></g>
<g fill="#231F20AE" stroke="#231F20AE">
<path d="M 369.460 148.346 C 369.077 148.811 367.466 149.002 365.882 148.769 C 364.297 148.537 363.000 148.718 363.000 149.173 C 363.000 150.501 368.806 150.124 369.513 148.750 C 369.867 148.063 369.843 147.881 369.460 148.346 "/></g>
<g fill="#231F20AE" stroke="#231F20AE">
<path d="M 382.632 142.868 C 382.123 143.643 380.590 144.020 378.934 143.777 C 377.379 143.549 376.333 143.730 376.612 144.181 C 377.614 145.802 382.900 145.073 383.206 143.272 C 383.425 141.983 383.280 141.880 382.632 142.868 "/></g>
<g fill="#231F20AE" stroke="#231F20AE">
<path d="M 363.580 142.219 C 365.468 144.892 369.000 146.015 369.000 143.941 C 369.000 143.359 368.517 143.181 367.926 143.546 C 367.335 143.911 365.684 143.150 364.256 141.855 L 361.661 139.500 363.580 142.219 "/></g>
<g fill="#231F20AE" stroke="#231F20AE">
<path d="M 549.872 133.661 C 548.616 135.181 548.691 135.203 550.750 133.920 C 552.555 132.796 553.388 132.761 554.963 133.745 C 556.605 134.770 556.833 134.728 556.356 133.485 C 555.590 131.490 551.577 131.598 549.872 133.661 "/></g>
<g fill="#231F20FF" stroke="#231F20FF">
<path d="M 429.000 136.009 C 426.791 136.619 426.953 136.745 430.388 137.087 C 433.308 137.377 433.930 137.205 432.888 136.396 C 432.120 135.799 430.383 135.626 429.000 136.009 "/></g>
<g fill="#231F20AE" stroke="#231F20AE">
<path d="M 576.000 144.325 C 576.000 144.779 577.339 145.010 578.975 144.839 C 580.612 144.667 581.849 144.332 581.725 144.095 C 581.302 143.284 576.000 143.498 576.000 144.325 "/></g>
<g fill="#231F20AE" stroke="#231F20AE">
<path d="M 489.999 144.250 C 490.000 145.168 495.413 145.254 496.317 144.350 C 496.674 143.992 495.399 143.655 493.483 143.600 C 491.567 143.545 489.999 143.838 489.999 144.250 "/></g>
<g fill="#231F20AE" stroke="#231F20AE">
<path d="M 193.553 144.086 C 193.864 144.589 195.516 145.000 197.226 145.000 C 201.065 145.000 200.587 144.357 196.244 143.680 C 194.404 143.393 193.234 143.570 193.553 144.086 "/></g>
<g fill="#231F20AE" stroke="#231F20AE">
<path d="M 244.250 134.735 C 243.563 135.908 243.046 137.911 243.102 139.184 C 243.188 141.120 243.330 141.008 243.970 138.500 C 244.392 136.850 244.908 134.848 245.118 134.050 C 245.328 133.253 244.938 133.561 244.250 134.735 "/></g>
<g fill="#231F20AE" stroke="#231F20AE">
<path d="M 524.000 132.790 C 524.000 133.224 525.373 133.547 527.050 133.507 C 528.728 133.467 529.778 133.111 529.383 132.717 C 528.410 131.744 524.000 131.804 524.000 132.790 "/></g>
<g fill="#231F20AE" stroke="#231F20AE">
<path d="M 182.345 133.543 C 182.019 134.392 182.034 135.367 182.376 135.710 C 182.719 136.053 183.000 135.531 183.000 134.550 C 183.000 133.193 183.590 132.880 185.470 133.239 C 186.828 133.499 187.702 133.326 187.411 132.856 C 186.524 131.421 182.975 131.902 182.345 133.543 "/></g>
<g fill="#231F20FF" stroke="#231F20FF">
<path d="M 163.413 140.401 C 163.522 142.226 163.629 142.272 164.238 140.750 C 164.622 139.788 165.739 138.930 166.719 138.843 C 167.698 138.757 167.327 138.600 165.894 138.495 C 163.819 138.341 163.313 138.730 163.413 140.401 "/></g>
<g fill="#231F20AE" stroke="#231F20AE">
<path d="M 266.500 144.099 L 263.500 144.763 266.833 144.882 C 268.667 144.947 270.017 144.648 269.833 144.218 C 269.650 143.788 268.150 143.734 266.500 144.099 "/></g>
<g fill="#231F20AE" stroke="#231F20AE">
<path d="M 234.602 144.164 C 234.886 144.624 236.554 144.948 238.309 144.885 L 241.500 144.770 237.793 144.049 C 235.753 143.653 234.318 143.705 234.602 144.164 "/></g>
<g fill="#231F20AE" stroke="#231F20AE">
<path d="M 330.044 138.559 C 330.020 139.691 330.651 141.491 331.448 142.559 C 332.716 144.259 332.721 144.004 331.491 140.500 C 330.654 138.114 330.070 137.331 330.044 138.559 "/></g>
<g fill="#231F20AE" stroke="#231F20AE">
<path d="M 565.106 132.439 C 566.039 133.372 571.016 133.835 570.461 132.937 C 570.143 132.422 568.709 132.000 567.274 132.000 C 565.840 132.000 564.864 132.198 565.106 132.439 "/></g>
<g fill="#231F20FF" stroke="#231F20FF">
<path d="M 232.136 138.691 C 231.979 141.219 233.520 142.585 234.585 140.862 C 235.020 140.158 234.877 139.958 234.226 140.360 C 233.601 140.746 232.959 140.071 232.708 138.765 C 232.276 136.517 232.271 136.516 232.136 138.691 "/></g>
<g fill="#231F20FF" stroke="#231F20FF">
<path d="M 300.883 133.738 C 299.627 135.338 299.661 135.374 301.250 134.128 C 302.213 133.373 303.056 133.035 303.125 133.378 C 303.194 133.720 303.313 134.563 303.390 135.250 C 303.491 136.151 303.733 136.183 304.254 135.363 C 304.652 134.738 304.368 133.720 303.622 133.101 C 302.587 132.242 301.938 132.393 300.883 133.738 "/></g>
<g fill="#231F20AE" stroke="#231F20AE">
<path d="M 522.581 144.131 C 522.876 144.609 524.329 144.954 525.809 144.898 C 528.343 144.801 528.312 144.751 525.272 144.028 C 523.479 143.602 522.282 143.648 522.581 144.131 "/></g>
<g fill="#231F20AE" stroke="#231F20AE">
<path d="M 218.000 142.031 C 218.000 142.564 218.477 143.000 219.059 143.000 C 219.641 143.000 219.797 143.520 219.405 144.155 C 218.962 144.870 219.130 145.038 219.845 144.595 C 221.440 143.610 221.290 142.325 219.500 141.638 C 218.675 141.322 218.000 141.499 218.000 142.031 "/></g>
<g fill="#231F20AE" stroke="#231F20AE">
<path d="M 577.000 132.786 C 577.000 133.218 577.900 133.571 579.000 133.571 C 580.100 133.571 581.000 133.218 581.000 132.786 C 581.000 132.354 580.100 132.000 579.000 132.000 C 577.900 132.000 577.000 132.354 577.000 132.786 "/></g>
<g fill="#231F20AE" stroke="#231F20AE">
<path d="M 481.000 133.000 C 481.000 133.550 481.675 134.000 482.500 134.000 C 483.325 134.000 484.000 133.550 484.000 133.000 C 484.000 132.450 483.325 132.000 482.500 132.000 C 481.675 132.000 481.000 132.450 481.000 133.000 "/></g>
<g fill="#231F20AE" stroke="#231F20AE">
<path d="M 469.000 132.786 C 469.000 133.218 469.900 133.571 471.000 133.571 C 472.100 133.571 473.000 133.218 473.000 132.786 C 473.000 132.354 472.100 132.000 471.000 132.000 C 469.900 132.000 469.000 132.354 469.000 132.786 "/></g>
<g fill="#231F20AE" stroke="#231F20AE">
<path d="M 366.000 132.786 C 366.000 133.218 366.900 133.571 368.000 133.571 C 369.100 133.571 370.000 133.218 370.000 132.786 C 370.000 132.354 369.100 132.000 368.000 132.000 C 366.900 132.000 366.000 132.354 366.000 132.786 "/></g>
<g fill="#231F20AE" stroke="#231F20AE">
<path d="M 299.728 132.972 C 301.521 133.398 302.718 133.352 302.419 132.869 C 302.124 132.391 300.671 132.046 299.191 132.102 C 296.657 132.199 296.688 132.249 299.728 132.972 "/></g>
<g fill="#231F20AE" stroke="#231F20AE">
<path d="M 275.015 133.083 C 275.024 133.863 275.475 135.175 276.018 136.000 C 276.802 137.190 276.942 137.041 276.695 135.276 C 276.338 132.718 274.992 130.961 275.015 133.083 "/></g>
<g fill="#231F20AE" stroke="#231F20AE">
<path d="M 194.667 132.667 C 194.300 133.033 194.007 133.821 194.015 134.417 C 194.026 135.150 194.268 135.133 194.765 134.366 C 195.169 133.742 196.400 133.007 197.500 132.732 C 199.435 132.248 199.432 132.228 197.417 132.116 C 196.271 132.052 195.033 132.300 194.667 132.667 "/></g>
<g fill="#231F20AE" stroke="#231F20AE">
<path d="M 164.581 132.869 C 164.282 133.352 165.479 133.398 167.272 132.972 C 170.312 132.249 170.343 132.199 167.809 132.102 C 166.329 132.046 164.876 132.391 164.581 132.869 "/></g>
<g fill="#231F20AE" stroke="#231F20AE">
<path d="M 434.015 129.083 C 434.024 129.863 434.475 131.175 435.018 132.000 C 435.802 133.190 435.942 133.041 435.695 131.276 C 435.338 128.718 433.992 126.961 434.015 129.083 "/></g>
<g fill="#231F20AE" stroke="#231F20AE">
<path d="M 376.977 128.250 C 376.490 130.317 376.797 134.326 377.341 133.000 C 377.679 132.175 377.775 130.600 377.554 129.500 C 377.334 128.400 377.074 127.838 376.977 128.250 "/></g>
<g fill="#231F20FF" stroke="#231F20FF">
<path d="M 575.975 138.530 C 574.898 139.827 575.046 139.919 577.033 139.184 C 578.351 138.696 578.888 138.049 578.284 137.676 C 577.703 137.316 576.663 137.701 575.975 138.530 "/></g>
<g fill="#231F20FF" stroke="#231F20FF">
<path d="M 361.850 138.333 C 361.509 142.123 361.584 142.392 362.364 140.175 C 362.814 138.896 362.917 137.583 362.591 137.258 C 362.266 136.933 361.933 137.417 361.850 138.333 "/></g>
<g fill="#231F20FF" stroke="#231F20FF">
<path d="M 182.000 136.836 C 182.000 137.359 182.712 138.059 183.582 138.393 C 186.289 139.432 186.537 139.064 184.223 137.443 C 183.000 136.587 182.000 136.314 182.000 136.836 "/></g>
<g fill="#231F20AE" stroke="#231F20AE">
<path d="M 398.211 140.538 C 397.501 141.342 397.334 142.000 397.838 142.000 C 398.342 142.000 399.315 141.325 400.000 140.500 C 401.604 138.568 399.917 138.603 398.211 140.538 "/></g>
<g fill="#231F20AE" stroke="#231F20AE">
<path d="M 277.015 138.750 C 277.024 139.163 277.454 140.169 277.971 140.987 C 278.710 142.156 278.875 141.996 278.743 140.237 C 278.594 138.255 276.977 136.863 277.015 138.750 "/></g>
<g fill="#231F20AE" stroke="#231F20AE">
<path d="M 383.453 139.225 C 384.911 141.298 385.023 141.322 384.709 139.500 C 384.520 138.400 383.799 137.376 383.108 137.225 C 382.245 137.037 382.353 137.663 383.453 139.225 "/></g>
<g fill="#231F20AE" stroke="#231F20AE">
<path d="M 394.257 133.763 C 394.350 134.993 394.780 136.000 395.213 136.000 C 396.256 136.000 396.185 134.841 395.029 133.013 C 394.290 131.844 394.125 132.004 394.257 133.763 "/></g>
<g fill="#231F20AE" stroke="#231F20AE">
<path d="M 266.000 132.968 C 266.000 133.573 266.844 133.596 268.250 133.031 L 270.500 132.127 268.250 132.063 C 267.013 132.029 266.000 132.435 266.000 132.968 "/></g>
<g fill="#231F20AE" stroke="#231F20AE">
<path d="M 237.750 133.031 C 239.156 133.596 240.000 133.573 240.000 132.968 C 240.000 132.435 238.988 132.029 237.750 132.063 L 235.500 132.127 237.750 133.031 "/></g>
<g fill="#231F20AE" stroke="#231F20AE">
<path d="M 415.648 129.686 C 415.271 130.063 415.898 130.514 417.042 130.689 C 418.240 130.872 418.859 130.581 418.502 130.003 C 417.782 128.838 416.624 128.709 415.648 129.686 "/></g>
<g fill="#231F20FF" stroke="#231F20FF">
<path d="M 422.000 142.359 C 422.000 143.371 422.462 143.833 423.087 143.446 C 423.870 142.962 423.870 142.470 423.087 141.687 C 422.304 140.904 422.000 141.092 422.000 142.359 "/></g>
<g fill="#231F20FF" stroke="#231F20FF">
<path d="M 217.575 139.759 C 217.167 140.166 217.208 140.536 217.667 140.579 C 218.125 140.622 219.096 140.847 219.824 141.079 C 220.821 141.396 220.798 141.193 219.732 140.259 C 218.953 139.576 217.982 139.351 217.575 139.759 "/></g>
<g fill="#231F20FF" stroke="#231F20FF">
<path d="M 187.950 141.199 C 188.605 142.833 188.892 143.009 188.937 141.809 C 188.971 140.879 188.556 139.844 188.013 139.508 C 187.374 139.113 187.352 139.708 187.950 141.199 "/></g>
<g fill="#231F20FF" stroke="#231F20FF">
<path d="M 302.000 138.359 C 302.000 139.371 302.462 139.833 303.087 139.446 C 303.870 138.962 303.870 138.470 303.087 137.687 C 302.304 136.904 302.000 137.092 302.000 138.359 "/></g>
<g fill="#231F20FF" stroke="#231F20FF">
<path d="M 569.729 132.630 C 569.401 133.161 569.554 134.249 570.069 135.048 C 570.767 136.130 570.919 135.884 570.666 134.082 C 570.479 132.752 570.057 132.099 569.729 132.630 "/></g>
<g fill="#231F20AE" stroke="#231F20AE">
<path d="M 419.000 135.833 C 419.000 137.436 420.378 138.029 420.600 136.522 C 420.723 135.685 420.413 135.000 419.912 135.000 C 419.410 135.000 419.000 135.375 419.000 135.833 "/></g>
<g fill="#231F20AE" stroke="#231F20AE">
<path d="M 533.000 133.000 C 533.000 133.550 533.450 134.000 534.000 134.000 C 534.550 134.000 535.000 133.550 535.000 133.000 C 535.000 132.450 534.550 132.000 534.000 132.000 C 533.450 132.000 533.000 132.450 533.000 133.000 "/></g>
<g fill="#231F20AE" stroke="#231F20AE">
<path d="M 478.000 133.000 C 478.000 133.550 478.450 134.000 479.000 134.000 C 479.550 134.000 480.000 133.550 480.000 133.000 C 480.000 132.450 479.550 132.000 479.000 132.000 C 478.450 132.000 478.000 132.450 478.000 133.000 "/></g>
<g fill="#2056AEFF" stroke="#2056AEFF">
<path d="M 210.387 54.157 C 211.776 54.963 212.090 54.955 211.578 54.126 C 211.195 53.507 210.346 53.014 209.691 53.030 C 209.036 53.047 209.349 53.554 210.387 54.157 "/></g>
<g fill="#231F20FF" stroke="#231F20FF">
<path d="M 397.800 143.200 C 398.733 144.133 399.000 144.133 399.000 143.200 C 399.000 142.540 398.460 142.000 397.800 142.000 C 396.867 142.000 396.867 142.267 397.800 143.200 "/></g>
<g fill="#231F20FF" stroke="#231F20FF">
<path d="M 488.030 141.691 C 488.014 142.346 488.507 143.195 489.126 143.578 C 489.955 144.090 489.963 143.776 489.157 142.387 C 488.554 141.349 488.047 141.036 488.030 141.691 "/></g>
<g fill="#231F20FF" stroke="#231F20FF">
<path d="M 193.030 141.691 C 193.014 142.346 193.507 143.195 194.126 143.578 C 194.955 144.090 194.963 143.776 194.157 142.387 C 193.554 141.349 193.047 141.036 193.030 141.691 "/></g>
<g fill="#231F20FF" stroke="#231F20FF">
<path d="M 141.387 141.157 C 142.776 141.963 143.090 141.955 142.578 141.126 C 142.195 140.507 141.346 140.014 140.691 140.030 C 140.036 140.047 140.349 140.554 141.387 141.157 "/></g>
<g fill="#231F20FF" stroke="#231F20FF">
<path d="M 395.695 140.352 C 395.275 141.448 395.413 141.863 396.064 141.460 C 396.637 141.106 396.939 140.318 396.736 139.709 C 396.533 139.100 396.065 139.389 395.695 140.352 "/></g>
<g fill="#231F20FF" stroke="#231F20FF">
<path d="M 400.500 138.500 L 402.000 140.000 400.500 138.500 L 399.000 137.000 400.500 138.500 "/></g>
<g fill="#231F20FF" stroke="#231F20FF">
<path d="M 277.750 135.666 C 277.338 136.033 277.030 136.821 277.066 137.417 C 277.102 138.013 277.439 137.712 277.816 136.750 C 278.192 135.787 278.163 135.300 277.750 135.666 "/></g>
<g fill="#231F20FF" stroke="#231F20FF">
<path d="M 275.750 134.666 C 275.338 135.033 275.030 135.821 275.066 136.417 C 275.102 137.013 275.439 136.712 275.816 135.750 C 276.192 134.787 276.163 134.300 275.750 134.666 "/></g>
<g fill="#231F20FF" stroke="#231F20FF">
<path d="M 515.564 133.896 C 515.249 134.407 515.745 134.714 516.668 134.578 C 517.719 134.424 517.934 134.077 517.242 133.650 C 516.635 133.274 515.880 133.385 515.564 133.896 "/></g>
<g fill="#231F20FF" stroke="#231F20FF">
<path d="M 434.695 134.352 C 434.275 135.448 434.413 135.863 435.064 135.460 C 435.637 135.106 435.939 134.318 435.736 133.709 C 435.533 133.100 435.065 133.389 434.695 134.352 "/></g>
<g fill="#231F20FF" stroke="#231F20FF">
<path d="M 414.843 134.613 C 415.446 135.651 415.953 135.964 415.970 135.309 C 415.986 134.654 415.493 133.805 414.874 133.422 C 414.045 132.910 414.037 133.224 414.843 134.613 "/></g>
<g fill="#231F20FF" stroke="#231F20FF">
<path d="M 337.422 134.126 C 336.910 134.955 337.224 134.963 338.613 134.157 C 339.651 133.554 339.964 133.047 339.309 133.030 C 338.654 133.014 337.805 133.507 337.422 134.126 "/></g>
<g fill="#231F20FF" stroke="#231F20FF">
<path d="M 198.564 133.896 C 198.249 134.407 198.745 134.714 199.668 134.578 C 200.719 134.424 200.934 134.077 200.242 133.650 C 199.635 133.274 198.880 133.385 198.564 133.896 "/></g>
<g fill="#231F20FF" stroke="#231F20FF">
<path d="M 195.500 133.500 L 197.000 135.000 195.500 133.500 L 194.000 132.000 195.500 133.500 "/></g>
<g fill="#231F20AE" stroke="#231F20AE">
<path d="M 142.000 144.047 C 141.010 144.656 140.925 144.975 141.750 144.985 C 142.438 144.993 143.113 144.578 143.250 144.062 C 143.404 143.485 142.924 143.479 142.000 144.047 "/></g>
<g fill="#231F20AE" stroke="#231F20AE">
<path d="M 575.750 139.666 C 575.338 140.033 575.030 140.821 575.066 141.417 C 575.102 142.013 575.439 141.712 575.816 140.750 C 576.192 139.787 576.163 139.300 575.750 139.666 "/></g>
<g fill="#231F20AE" stroke="#231F20AE">
<path d="M 522.624 138.799 C 522.212 139.466 522.390 140.000 523.024 140.000 C 523.653 140.000 523.987 139.460 523.766 138.799 C 523.455 137.865 523.202 137.865 522.624 138.799 "/></g>
<g fill="#231F20AE" stroke="#231F20AE">
<path d="M 216.624 138.799 C 216.212 139.466 216.390 140.000 217.024 140.000 C 217.653 140.000 217.987 139.460 217.766 138.799 C 217.455 137.865 217.202 137.865 216.624 138.799 "/></g>
<g fill="#231F20AE" stroke="#231F20AE">
<path d="M 186.030 138.691 C 186.014 139.346 186.507 140.195 187.126 140.578 C 187.955 141.090 187.963 140.776 187.157 139.387 C 186.554 138.349 186.047 138.036 186.030 138.691 "/></g>
<g fill="#231F20AE" stroke="#231F20AE">
<path d="M 363.624 133.799 C 363.212 134.466 363.390 135.000 364.024 135.000 C 364.653 135.000 364.987 134.460 364.766 133.799 C 364.455 132.865 364.202 132.865 363.624 133.799 "/></g>
<g fill="#231F20AE" stroke="#231F20AE">
<path d="M 214.422 133.668 C 214.576 134.719 214.923 134.934 215.350 134.242 C 215.726 133.635 215.615 132.880 215.104 132.564 C 214.593 132.249 214.286 132.745 214.422 133.668 "/></g>
<g fill="#231F20AE" stroke="#231F20AE">
<path d="M 392.624 129.799 C 392.212 130.466 392.390 131.000 393.024 131.000 C 393.653 131.000 393.987 130.460 393.766 129.799 C 393.455 128.865 393.202 128.865 392.624 129.799 "/></g>
<g fill="#962999FF" stroke="#962999FF">
<path d="M 75.500 101.500 L 77.000 103.000 75.500 101.500 L 74.000 100.000 75.500 101.500 "/></g>
<g fill="#80008002" stroke="#80008002">
<path d="M 51.500 123.500 L 53.000 125.000 51.500 123.500 L 50.000 122.000 51.500 123.500 "/></g>
<g fill="#FF000001" stroke="#FF000001">
<path d="M 125.422 52.668 C 125.576 53.719 125.923 53.934 126.350 53.242 C 126.726 52.635 126.615 51.880 126.104 51.564 C 125.593 51.249 125.286 51.745 125.422 52.668 "/></g>
<g fill="#FF000001" stroke="#FF000001">
<path d="M 108.500 33.500 L 110.000 35.000 108.500 33.500 L 107.000 32.000 108.500 33.500 "/></g>
</svg>
