<?xml version="1.0" encoding="utf-8"?>
<!DOCTYPE svg PUBLIC "-//W3C//DTD SVG 20010904//EN" "http://www.w3.org/TR/2001/REC-SVG-20010904/DTD/svg10.dtd">
<svg version="1.0" xmlns="http://www.w3.org/2000/svg" width="425pt" height="602pt" viewBox="0 0 425 602" style="" preserveAspectRatio="xMidYMid meet">
<g fill="#E5112CFF" stroke="#E5112CFF">
<path d="M 199.954 144.403 C 177.200 157.684 161.542 166.766 157.943 168.769 C 155.986 169.858 150.699 172.891 146.193 175.510 L 138.000 180.270 138.000 218.135 C 138.000 238.961 138.295 256.000 138.655 256.000 C 139.244 256.000 154.563 247.203 192.500 225.081 C 199.650 220.911 207.147 216.632 209.160 215.571 L 212.821 213.642 231.397 224.321 C 241.615 230.194 250.365 235.000 250.844 235.000 C 251.702 235.000 260.716 229.950 278.774 219.350 L 288.048 213.906 287.774 197.247 L 287.500 180.588 280.500 176.463 C 273.809 172.519 254.536 161.372 226.500 145.230 C 219.350 141.113 213.254 137.607 212.954 137.439 C 212.654 137.271 206.804 140.405 199.954 144.403 "/></g>
<g fill="#09509DFF" stroke="#09509DFF">
<path d="M 134.000 216.090 C 134.000 217.052 111.927 229.586 110.823 229.250 C 110.370 229.113 110.000 229.525 110.000 230.167 C 110.000 230.808 109.738 231.071 109.417 230.750 C 109.096 230.429 107.954 231.046 106.880 232.120 C 105.806 233.194 104.493 233.805 103.964 233.477 C 103.434 233.150 103.000 233.370 103.000 233.966 C 103.000 234.855 98.201 237.401 97.214 237.035 C 97.057 236.976 96.304 237.553 95.541 238.316 C 94.778 239.079 86.919 243.909 78.077 249.048 L 62.000 258.393 62.009 301.947 L 62.018 345.500 83.060 357.500 C 94.633 364.100 105.080 370.400 106.277 371.500 C 107.474 372.600 108.689 373.359 108.977 373.186 C 109.777 372.705 119.000 378.303 119.000 379.269 C 119.000 379.736 119.450 379.840 120.000 379.500 C 120.550 379.160 121.000 379.385 121.000 380.000 C 121.000 380.615 121.434 380.850 121.964 380.523 C 122.493 380.195 123.843 380.843 124.964 381.964 C 126.084 383.084 127.000 383.771 127.000 383.491 C 127.000 383.212 129.363 384.297 132.250 385.903 L 137.500 388.824 155.497 378.420 C 165.396 372.698 173.631 367.607 173.798 367.106 C 173.965 366.606 170.704 364.320 166.551 362.028 C 162.398 359.736 159.000 357.415 159.000 356.871 C 159.000 356.327 158.550 356.160 158.000 356.500 C 157.450 356.840 157.000 356.716 157.000 356.226 C 157.000 355.735 156.435 355.333 155.744 355.333 C 154.568 355.333 146.099 350.420 145.000 349.101 C 144.725 348.770 143.905 348.377 143.178 348.226 C 142.451 348.075 140.764 347.236 139.428 346.361 L 137.000 344.770 137.000 280.052 C 137.000 223.191 136.818 215.333 135.500 215.333 C 134.675 215.333 134.000 215.674 134.000 216.090 "/></g>
<g fill="#A13489FF" stroke="#A13489FF">
<path d="M 286.500 345.828 C 285.950 346.338 283.025 348.118 280.000 349.783 C 276.975 351.447 271.389 354.634 267.587 356.863 C 263.785 359.093 260.228 360.641 259.683 360.304 C 259.137 359.967 258.939 360.098 259.242 360.595 C 259.545 361.093 249.162 367.641 236.169 375.147 C 214.571 387.624 212.374 388.675 210.550 387.397 C 209.453 386.629 208.768 385.947 209.027 385.882 C 209.287 385.816 209.122 385.830 208.660 385.912 C 208.197 385.993 205.603 384.697 202.895 383.030 C 200.186 381.364 197.796 380.000 197.583 380.000 C 197.371 380.000 192.350 377.127 186.426 373.615 L 175.655 367.231 171.077 369.961 C 168.560 371.463 160.088 376.402 152.250 380.938 L 138.000 389.185 138.000 405.512 L 138.000 421.839 146.750 426.895 C 151.563 429.676 155.050 431.997 154.500 432.052 C 153.950 432.108 154.322 432.309 155.327 432.499 C 156.332 432.690 161.282 435.297 166.327 438.293 C 171.372 441.289 176.977 444.493 178.783 445.413 C 180.706 446.393 181.781 447.545 181.378 448.197 C 180.961 448.872 181.146 449.028 181.850 448.593 C 183.346 447.668 191.114 452.007 190.305 453.316 C 189.960 453.873 190.197 453.996 190.844 453.597 C 191.478 453.205 192.997 453.585 194.221 454.442 C 195.444 455.299 196.232 456.053 195.973 456.118 C 195.713 456.184 195.884 456.168 196.353 456.084 C 196.823 456.000 200.721 457.991 205.017 460.510 L 212.826 465.088 217.892 461.972 C 220.679 460.257 223.486 459.182 224.133 459.582 C 224.793 459.990 225.044 459.880 224.705 459.332 C 224.374 458.795 227.117 456.620 230.801 454.497 C 234.485 452.375 245.600 445.914 255.500 440.139 C 265.400 434.365 274.400 429.534 275.500 429.403 C 276.600 429.273 277.050 429.125 276.500 429.074 C 275.950 429.023 278.318 427.193 281.762 425.008 L 288.024 421.036 287.762 382.967 C 287.588 357.648 287.165 345.210 286.500 345.828 "/></g>
<g fill="#159EAFFF" stroke="#159EAFFF">
<path d="M 269.784 225.268 C 260.041 230.896 252.058 235.725 252.046 236.000 C 252.034 236.275 254.820 238.075 258.238 240.000 C 268.458 245.755 274.133 248.999 281.250 253.150 L 288.000 257.088 288.000 323.033 L 288.000 388.978 294.518 384.989 C 298.102 382.795 301.210 381.000 301.425 381.000 C 301.639 381.000 306.243 378.371 311.657 375.158 C 317.071 371.945 324.232 367.783 327.570 365.908 C 330.909 364.034 340.240 358.675 348.305 354.000 L 362.969 345.500 362.985 301.845 L 363.000 258.190 358.750 255.709 C 356.413 254.344 352.925 252.346 351.000 251.268 C 349.075 250.191 339.175 244.451 329.000 238.514 C 318.825 232.576 308.925 226.826 307.000 225.736 C 305.075 224.646 300.028 221.785 295.785 219.377 C 291.541 216.970 287.941 215.008 287.785 215.018 C 287.628 215.028 279.528 219.641 269.784 225.268 "/></g>
<g fill="#000000FF" stroke="#000000FF">
<path d="M 170.000 511.500 C 170.000 548.333 170.036 549.000 172.000 549.000 C 173.962 549.000 174.000 548.333 174.000 513.500 L 174.000 478.000 182.634 478.000 C 193.018 478.000 197.790 479.250 204.785 483.801 C 214.494 490.120 219.271 499.398 219.302 512.000 C 219.327 522.137 216.660 529.098 210.298 535.500 C 203.855 541.984 198.023 544.344 187.250 544.825 C 179.009 545.193 178.000 545.444 178.000 547.119 C 178.000 548.761 178.793 548.998 184.250 548.984 C 201.679 548.941 213.445 541.875 220.608 527.153 C 223.008 522.219 223.362 520.292 223.387 512.000 C 223.414 503.298 223.147 501.954 220.212 496.000 C 212.545 480.445 200.880 474.000 180.395 474.000 L 170.000 474.000 170.000 511.500 "/></g>
<g fill="#000000FF" stroke="#000000FF">
<path d="M 241.275 476.113 C 234.298 478.794 231.675 482.538 231.224 490.457 C 230.586 501.657 235.996 506.798 254.763 512.826 C 266.171 516.490 270.568 519.096 273.332 523.829 C 277.295 530.615 274.750 539.826 267.966 543.248 C 265.078 544.705 261.706 544.997 247.750 544.998 C 231.450 545.000 231.000 545.056 231.000 547.081 C 231.000 549.123 231.330 549.156 248.750 548.831 C 263.669 548.553 267.104 548.200 270.284 546.620 C 275.716 543.921 279.000 537.884 279.000 530.596 C 279.000 524.333 278.106 521.959 274.128 517.661 C 270.654 513.908 268.071 512.641 255.480 508.516 C 249.654 506.608 243.531 504.248 241.874 503.273 C 233.046 498.077 232.728 485.185 241.299 479.960 C 244.103 478.249 246.389 478.007 259.750 478.004 C 274.332 478.000 275.000 477.912 275.000 476.000 C 275.000 474.091 274.351 474.002 260.750 474.052 C 248.967 474.095 245.595 474.452 241.275 476.113 "/></g>
<g fill="#000000FF" stroke="#000000FF">
<path d="M 149.000 511.500 C 149.000 548.333 149.036 549.000 151.000 549.000 C 152.964 549.000 153.000 548.333 153.000 511.500 C 153.000 474.667 152.964 474.000 151.000 474.000 C 149.036 474.000 149.000 474.667 149.000 511.500 "/></g>
<g fill="#09509DFF" stroke="#09509DFF">
<path d="M 357.000 254.490 C 357.000 254.742 358.350 255.647 360.000 256.500 L 363.000 258.051 362.989 301.776 L 362.978 345.500 350.756 352.500 C 344.034 356.350 338.977 359.500 339.517 359.500 C 340.058 359.500 345.788 356.427 352.250 352.672 L 364.000 345.843 364.000 301.607 L 364.000 257.370 360.500 255.701 C 358.575 254.783 357.000 254.239 357.000 254.490 "/></g>
<g fill="#09509DFF" stroke="#09509DFF">
<path d="M 273.500 249.567 C 275.700 250.945 279.633 253.292 282.240 254.783 L 286.979 257.494 287.250 300.997 L 287.522 344.500 287.761 300.808 L 288.000 257.116 279.406 252.058 C 270.599 246.875 266.316 245.068 273.500 249.567 "/></g>
<g fill="#00000003" stroke="#00000003">
<path d="M 175.000 514.250 C 174.725 533.913 174.843 550.001 175.263 550.000 C 175.682 550.000 175.907 533.913 175.762 514.250 L 175.499 478.500 175.000 514.250 "/></g>
<g fill="#09509DFF" stroke="#09509DFF">
<path d="M 316.500 372.193 C 311.000 375.499 304.475 379.333 302.000 380.714 C 299.525 382.095 295.616 384.411 293.313 385.862 L 289.125 388.500 293.813 386.149 C 302.164 381.959 328.262 366.585 327.368 366.381 C 326.891 366.272 322.000 368.887 316.500 372.193 "/></g>
<g fill="#09509DFF" stroke="#09509DFF">
<path d="M 288.500 214.787 C 289.682 216.006 307.011 226.009 307.893 225.981 C 308.227 225.971 306.475 224.693 304.000 223.143 C 297.444 219.035 287.336 213.586 288.500 214.787 "/></g>
<g fill="#09509DFF" stroke="#09509DFF">
<path d="M 336.000 242.245 C 337.317 243.611 350.275 251.058 350.662 250.672 C 350.905 250.429 348.043 248.491 344.302 246.365 C 337.430 242.460 335.086 241.297 336.000 242.245 "/></g>
<g fill="#09509DFF" stroke="#09509DFF">
<path d="M 251.000 236.381 C 251.000 237.133 258.237 241.096 258.723 240.610 C 258.982 240.351 257.350 239.199 255.097 238.049 C 252.844 236.900 251.000 236.149 251.000 236.381 "/></g>
<g fill="#09509DFF" stroke="#09509DFF">
<path d="M 310.500 227.490 C 312.734 229.347 319.069 232.772 317.500 231.274 C 316.950 230.749 314.700 229.309 312.500 228.074 C 310.300 226.839 309.400 226.576 310.500 227.490 "/></g>
<g fill="#000000BE" stroke="#000000BE">
<path d="M 353.660 458.157 C 353.108 459.925 353.276 461.590 354.165 463.134 C 355.450 465.367 355.471 465.342 354.743 462.477 C 354.327 460.840 354.100 458.600 354.238 457.500 C 354.377 456.400 354.116 456.696 353.660 458.157 "/></g>
<g fill="#000000BE" stroke="#000000BE">
<path d="M 358.930 461.869 C 359.480 462.896 359.622 464.045 359.245 464.421 C 358.869 464.798 359.314 464.817 360.233 464.464 C 361.610 463.936 361.695 463.484 360.712 461.911 C 359.173 459.446 357.613 459.409 358.930 461.869 "/></g>
<g fill="#00000003" stroke="#00000003">
<path d="M 354.748 458.336 C 354.335 459.346 354.455 460.921 355.014 461.836 C 355.808 463.134 355.973 462.731 355.766 460.000 C 355.564 457.340 355.320 456.940 354.748 458.336 "/></g>
</svg>
