<?xml version="1.0" encoding="utf-8"?>
<!DOCTYPE svg PUBLIC "-//W3C//DTD SVG 20010904//EN" "http://www.w3.org/TR/2001/REC-SVG-20010904/DTD/svg10.dtd">
<svg version="1.0" xmlns="http://www.w3.org/2000/svg" width="591pt" height="602pt" viewBox="0 0 591 602" style="" preserveAspectRatio="xMidYMid meet">
<g fill="#962898FE" stroke="#962898FE">
<path d="M 177.166 208.062 C 175.883 208.577 172.971 209.231 170.696 209.517 C 168.420 209.803 166.186 210.704 165.730 211.519 C 164.770 213.233 159.015 216.432 158.970 215.276 C 158.953 214.849 158.481 215.288 157.920 216.250 C 157.359 217.213 156.425 218.000 155.844 218.000 C 155.263 218.000 153.900 219.129 152.814 220.510 C 151.728 221.890 150.356 222.720 149.765 222.355 C 149.174 221.990 148.972 222.145 149.315 222.700 C 149.873 223.603 145.377 228.795 144.468 228.297 C 144.264 228.185 141.076 231.223 137.385 235.047 C 133.693 238.871 130.240 242.000 129.712 242.000 C 129.184 242.000 126.959 244.037 124.768 246.526 C 122.576 249.016 118.807 252.413 116.392 254.074 C 113.976 255.736 112.000 257.739 112.000 258.525 C 112.000 259.800 107.565 263.634 99.309 269.494 C 97.764 270.591 97.099 271.491 97.831 271.494 C 99.220 271.500 95.162 275.852 93.713 275.911 C 93.279 275.928 91.458 277.867 89.664 280.218 C 87.805 282.656 85.569 284.495 84.464 284.497 C 83.313 284.499 81.504 286.076 80.013 288.377 C 78.631 290.510 77.444 291.748 77.375 291.127 C 77.306 290.507 77.140 290.338 77.007 290.750 C 76.873 291.163 76.799 291.784 76.842 292.131 C 76.950 292.994 73.031 296.475 72.875 295.655 C 72.806 295.295 72.694 295.563 72.625 296.250 C 72.556 296.938 71.488 297.944 70.250 298.487 C 69.013 299.030 68.000 299.818 68.000 300.237 C 68.000 300.657 67.403 301.000 66.674 301.000 C 65.945 301.000 64.292 302.125 63.000 303.500 C 61.708 304.875 61.046 306.000 61.529 306.000 C 62.011 306.000 60.639 307.810 58.479 310.021 C 56.320 312.233 54.030 313.842 53.391 313.597 C 52.752 313.351 50.940 314.572 49.365 316.310 C 46.850 319.082 46.806 319.230 49.000 317.513 C 50.375 316.437 49.513 317.662 47.084 320.235 C 44.656 322.808 42.224 324.638 41.680 324.302 C 41.136 323.966 40.972 324.145 41.315 324.700 C 41.658 325.255 40.827 326.753 39.469 328.029 C 38.062 329.351 37.000 329.810 37.000 329.098 C 37.000 328.410 35.835 329.231 34.411 330.923 C 32.987 332.615 32.157 334.000 32.566 334.000 C 32.975 334.000 32.453 334.947 31.405 336.105 C 30.357 337.263 29.444 337.713 29.375 337.105 C 29.227 335.795 28.755 336.880 28.551 339.000 C 28.472 339.825 27.881 340.393 27.239 340.262 C 26.535 340.118 26.324 340.680 26.706 341.676 C 27.168 342.881 26.977 343.104 26.000 342.500 C 25.055 341.916 24.827 342.107 25.226 343.148 C 25.538 343.959 24.949 345.721 23.919 347.062 C 22.888 348.403 22.034 350.738 22.022 352.250 C 22.010 353.763 21.592 355.000 21.094 355.000 C 20.595 355.000 20.423 355.900 20.710 357.000 C 20.998 358.100 20.831 359.000 20.340 359.000 C 19.849 359.000 19.619 360.800 19.829 363.000 C 20.065 365.484 19.791 367.000 19.105 367.000 C 18.497 367.000 18.000 368.350 18.000 370.000 C 18.000 371.650 18.509 373.000 19.132 373.000 C 19.875 373.000 20.079 374.374 19.727 377.000 C 19.432 379.200 19.547 380.780 19.984 380.510 C 20.420 380.240 21.328 382.940 22.002 386.510 C 22.675 390.079 23.645 393.000 24.157 393.000 C 24.669 393.000 24.955 393.645 24.794 394.434 C 24.632 395.223 24.950 396.011 25.500 396.184 C 26.050 396.358 26.501 397.175 26.501 398.000 C 26.502 398.825 26.952 399.388 27.501 399.250 C 28.051 399.113 28.500 399.450 28.500 400.000 C 28.500 400.550 28.163 401.000 27.750 401.000 C 26.785 401.000 27.640 401.214 29.249 401.375 C 29.935 401.444 30.542 402.175 30.596 403.000 C 30.651 403.825 30.764 404.289 30.848 404.031 C 30.931 403.774 33.679 406.213 36.953 409.453 C 40.227 412.693 42.696 415.682 42.441 416.095 C 42.186 416.509 43.324 417.806 44.970 418.979 C 46.616 420.151 47.859 421.423 47.732 421.805 C 47.604 422.187 47.790 422.500 48.145 422.500 C 48.500 422.500 49.735 423.400 50.891 424.500 C 52.220 425.765 52.434 426.316 51.475 426.000 C 50.124 425.555 50.124 425.650 51.479 426.872 C 52.316 427.627 53.000 427.910 53.000 427.500 C 53.000 425.943 56.172 429.475 57.420 432.420 C 58.137 434.114 59.799 436.400 61.112 437.500 L 63.500 439.500 61.531 437.000 C 60.448 435.625 61.890 436.713 64.736 439.418 C 67.582 442.123 69.636 444.780 69.301 445.323 C 68.965 445.865 69.160 446.019 69.732 445.666 C 70.305 445.312 71.387 445.776 72.137 446.698 C 73.341 448.179 73.274 448.289 71.556 447.644 C 69.667 446.935 69.664 446.971 71.440 448.933 C 72.445 450.044 73.584 450.757 73.971 450.518 C 74.358 450.279 76.414 451.864 78.540 454.041 C 80.666 456.219 82.090 458.056 81.703 458.125 C 81.316 458.194 81.563 458.306 82.250 458.375 C 82.938 458.444 83.556 459.063 83.625 459.750 C 83.804 461.542 84.229 462.190 84.375 460.895 C 84.444 460.287 85.387 460.771 86.472 461.969 C 87.662 463.284 87.914 464.019 87.107 463.824 C 86.372 463.646 87.624 465.002 89.890 466.838 C 92.156 468.674 93.787 470.535 93.516 470.974 C 93.244 471.414 93.692 472.329 94.511 473.009 C 95.330 473.689 96.000 473.886 96.000 473.448 C 96.000 471.785 101.244 477.655 102.747 481.000 C 103.612 482.925 104.360 483.924 104.410 483.221 C 104.459 482.517 107.412 484.880 110.971 488.471 C 114.530 492.062 116.793 495.000 115.999 495.000 C 115.157 495.000 115.586 495.687 117.027 496.648 C 121.483 499.617 127.926 506.310 127.302 507.320 C 126.966 507.864 127.145 508.028 127.700 507.685 C 128.636 507.107 132.744 510.617 132.986 512.201 C 133.045 512.587 136.204 515.906 140.006 519.576 C 143.807 523.246 146.833 526.530 146.730 526.874 C 146.627 527.218 149.349 530.159 152.779 533.409 C 156.209 536.659 158.794 539.540 158.524 539.810 C 157.945 540.388 162.070 544.345 165.797 546.787 C 167.235 547.729 167.869 548.556 167.206 548.625 C 166.543 548.694 166.338 548.860 166.750 548.993 C 167.163 549.127 167.764 549.208 168.087 549.173 C 168.409 549.138 170.097 550.409 171.837 551.998 C 173.577 553.587 175.000 554.710 175.000 554.493 C 175.000 554.275 176.913 554.966 179.250 556.027 C 181.588 557.088 183.275 558.018 183.000 558.093 C 182.725 558.169 183.337 558.142 184.359 558.034 C 185.382 557.926 185.944 558.282 185.608 558.825 C 185.241 559.418 185.898 559.592 187.249 559.259 C 188.487 558.954 189.177 559.057 188.781 559.488 C 187.868 560.483 193.289 560.991 203.500 560.869 C 214.840 560.733 217.000 560.579 217.000 559.908 C 217.000 559.438 223.799 556.901 226.000 556.549 C 226.275 556.505 227.175 556.038 228.000 555.511 C 228.825 554.984 229.950 554.541 230.500 554.526 C 231.050 554.512 231.725 554.050 232.000 553.500 C 232.275 552.950 232.950 552.488 233.500 552.474 C 234.050 552.459 235.096 552.009 235.824 551.474 C 236.857 550.714 236.803 550.610 235.579 551.000 C 234.289 551.411 234.321 551.200 235.754 549.821 C 236.714 548.898 237.816 548.089 238.201 548.024 C 238.587 547.959 241.912 544.789 245.590 540.980 C 249.268 537.170 252.634 534.274 253.070 534.543 C 253.506 534.813 254.578 534.013 255.451 532.767 C 256.324 531.520 257.592 530.480 258.269 530.455 C 258.946 530.430 259.411 529.938 259.302 529.361 C 259.032 527.927 267.314 519.924 269.384 519.620 C 270.303 519.485 271.057 518.953 271.059 518.437 C 271.064 517.070 281.211 507.012 282.057 507.535 C 282.451 507.779 283.329 507.308 284.009 506.489 C 284.689 505.670 284.852 504.968 284.372 504.930 C 283.893 504.891 284.265 504.554 285.201 504.180 C 286.790 503.545 286.793 503.277 285.253 500.100 C 284.346 498.229 282.214 495.879 280.514 494.876 C 278.814 493.872 276.090 491.206 274.461 488.950 C 270.289 483.170 266.309 478.629 267.500 481.008 C 268.050 482.107 267.375 481.642 266.000 479.976 C 261.484 474.504 259.513 472.515 257.493 471.391 C 255.663 470.373 254.638 467.862 256.151 468.104 C 256.509 468.161 254.864 466.361 252.495 464.104 C 250.127 461.847 247.874 460.000 247.489 460.000 C 246.304 460.000 240.921 455.125 241.182 454.288 C 241.317 453.855 241.079 454.063 240.655 454.750 C 240.230 455.438 240.222 456.000 240.637 456.000 C 241.053 456.000 239.866 457.575 238.000 459.500 C 236.134 461.425 233.866 463.000 232.959 463.000 C 232.052 463.000 230.453 463.977 229.405 465.172 C 228.177 466.572 228.033 467.054 229.000 466.529 C 229.825 466.081 228.287 468.009 225.582 470.813 C 222.877 473.616 220.220 475.636 219.677 475.301 C 219.135 474.965 218.981 475.160 219.334 475.732 C 219.688 476.305 219.298 477.338 218.466 478.028 C 217.187 479.090 217.064 478.992 217.668 477.391 C 218.060 476.351 216.356 477.975 213.881 481.000 C 211.405 484.025 208.844 486.500 208.190 486.500 C 207.535 486.500 207.000 486.950 207.000 487.500 C 207.000 488.050 206.550 488.556 206.000 488.625 C 205.450 488.694 205.280 488.806 205.622 488.875 C 206.547 489.061 203.910 492.000 202.819 492.000 C 202.303 492.000 202.178 491.522 202.539 490.937 C 202.900 490.352 202.364 489.004 201.348 487.941 C 200.215 486.756 199.693 486.567 200.000 487.452 C 200.275 488.245 197.474 485.881 193.775 482.197 C 190.076 478.514 187.111 475.275 187.187 475.000 C 187.262 474.725 184.113 471.400 180.188 467.612 C 176.264 463.823 173.268 460.375 173.531 459.949 C 173.794 459.524 172.209 457.674 170.009 455.838 C 167.808 454.002 166.885 452.950 167.957 453.500 C 169.884 454.489 169.884 454.479 167.953 452.595 C 166.879 451.547 166.000 451.076 166.000 451.548 C 166.000 453.289 158.131 444.657 157.527 442.253 C 157.184 440.884 156.614 440.052 156.262 440.405 C 155.461 441.206 146.923 432.934 147.532 431.948 C 147.777 431.551 147.195 430.613 146.239 429.863 C 144.631 428.603 144.612 428.651 145.983 430.500 C 147.451 432.480 147.443 432.481 145.233 430.595 C 144.005 429.547 143.000 428.254 143.000 427.721 C 143.000 427.188 140.985 424.978 138.522 422.810 C 136.059 420.642 134.087 418.561 134.140 418.184 C 134.193 417.808 134.184 417.697 134.118 417.937 C 133.876 418.831 128.000 412.580 128.000 411.428 C 128.000 410.769 126.861 409.483 125.468 408.571 C 124.064 407.651 123.242 406.417 123.623 405.802 C 124.004 405.184 123.859 404.969 123.294 405.318 C 122.736 405.663 120.161 403.708 117.571 400.973 C 114.982 398.238 113.080 396.000 113.345 396.000 C 113.610 396.000 110.898 393.188 107.318 389.750 C 103.738 386.313 101.325 383.500 101.955 383.500 C 102.759 383.500 102.728 383.128 101.850 382.250 C 101.162 381.563 100.015 381.000 99.300 381.000 C 98.585 381.000 98.000 380.549 98.000 379.997 C 98.000 379.446 96.275 377.436 94.167 375.532 C 90.428 372.154 89.146 369.000 91.512 369.000 C 92.160 369.000 93.547 368.019 94.595 366.819 C 96.273 364.898 96.291 364.749 94.743 365.569 C 93.776 366.081 95.576 364.250 98.743 361.500 C 101.909 358.750 104.821 356.050 105.214 355.500 C 105.606 354.950 106.506 354.500 107.214 354.500 C 107.921 354.500 108.500 353.825 108.500 353.000 C 108.500 352.175 109.063 351.500 109.750 351.500 C 110.438 351.500 111.000 351.050 111.000 350.500 C 111.000 349.950 111.370 349.500 111.821 349.500 C 112.925 349.500 116.000 346.370 116.000 345.246 C 116.000 343.844 120.968 339.527 122.597 339.513 C 123.402 339.506 124.623 338.375 125.310 337.000 C 125.997 335.625 127.108 334.500 127.780 334.500 C 128.451 334.500 129.032 334.050 129.071 333.500 C 129.195 331.764 132.223 329.020 133.288 329.678 C 133.850 330.025 134.019 329.840 133.666 329.268 C 133.312 328.695 133.692 327.671 134.511 326.991 C 135.330 326.311 136.014 326.148 136.030 326.628 C 136.047 327.107 136.519 326.713 137.080 325.750 C 137.641 324.788 138.664 324.000 139.354 324.000 C 140.043 324.000 142.134 322.425 144.000 320.500 C 145.866 318.575 146.988 317.000 146.493 317.000 C 145.999 317.000 147.334 315.219 149.460 313.041 C 151.586 310.864 153.730 309.333 154.226 309.639 C 155.287 310.296 159.151 307.053 158.521 306.035 C 158.284 305.651 160.320 303.140 163.045 300.456 C 165.770 297.771 168.056 295.896 168.125 296.288 C 168.194 296.679 168.327 296.438 168.420 295.750 C 168.514 295.063 169.115 294.606 169.755 294.736 C 170.395 294.867 172.105 293.418 173.554 291.518 C 175.003 289.618 176.484 288.161 176.845 288.282 C 177.205 288.402 177.631 288.050 177.791 287.500 C 178.279 285.826 185.327 279.000 186.568 279.000 C 187.207 279.000 188.944 277.988 190.427 276.750 C 191.911 275.513 192.444 274.725 191.612 275.000 C 190.780 275.275 192.724 272.866 195.932 269.648 C 199.880 265.686 201.939 264.232 202.304 265.148 C 202.745 266.256 202.856 266.259 202.921 265.166 C 203.024 263.433 213.053 252.915 214.028 253.518 C 214.438 253.771 215.387 253.195 216.137 252.239 C 217.396 250.633 217.347 250.612 215.500 251.970 C 213.979 253.088 214.070 252.799 215.883 250.764 C 217.193 249.292 218.543 248.171 218.883 248.273 C 219.222 248.374 222.159 245.651 225.409 242.221 C 228.659 238.791 231.584 236.251 231.909 236.576 C 232.234 236.901 232.500 236.567 232.500 235.833 C 232.500 235.100 233.063 234.444 233.750 234.375 C 234.438 234.306 235.287 234.194 235.637 234.125 C 235.987 234.056 234.187 231.769 231.637 229.043 C 229.087 226.316 227.000 223.400 227.000 222.562 C 227.000 221.724 225.865 220.753 224.477 220.405 C 223.089 220.056 221.289 218.823 220.477 217.663 C 219.665 216.504 219.000 215.896 219.000 216.313 C 219.000 216.729 218.087 216.582 216.972 215.985 C 215.857 215.388 215.205 214.477 215.524 213.961 C 215.852 213.431 215.357 213.309 214.388 213.681 C 213.132 214.164 212.891 213.985 213.490 213.015 C 214.010 212.174 213.921 211.931 213.245 212.349 C 211.838 213.218 208.857 212.041 209.565 210.895 C 209.869 210.403 209.754 209.963 209.309 209.917 C 206.790 209.657 204.004 209.128 200.000 208.149 C 194.561 206.819 180.402 206.765 177.166 208.062 "/></g>
<g fill="#2056AEFE" stroke="#2056AEFE">
<path d="M 198.000 14.367 C 198.000 14.843 197.100 14.998 196.000 14.710 C 194.900 14.423 194.000 14.643 194.000 15.201 C 194.000 15.758 193.226 15.917 192.280 15.554 C 191.335 15.191 190.876 15.209 191.261 15.594 C 191.645 15.979 189.756 17.315 187.063 18.563 C 184.369 19.810 181.903 20.569 181.582 20.249 C 181.262 19.929 181.000 20.267 181.000 21.000 C 181.000 21.733 180.745 22.079 180.434 21.768 C 180.123 21.456 177.986 22.940 175.684 25.065 C 173.383 27.190 171.500 28.496 171.500 27.966 C 171.500 27.437 168.879 29.934 165.676 33.515 C 162.473 37.096 159.503 39.811 159.076 39.547 C 158.650 39.284 154.521 43.129 149.900 48.093 C 145.280 53.057 141.725 56.449 142.000 55.631 C 142.600 53.846 138.322 58.201 134.975 62.781 C 133.656 64.586 130.423 67.445 127.789 69.136 C 125.155 70.826 123.000 72.792 123.000 73.505 C 123.000 74.768 111.911 85.000 110.543 85.000 C 110.166 85.000 109.182 85.675 108.357 86.500 C 107.532 87.325 107.117 88.000 107.434 88.000 C 107.751 88.000 105.273 90.807 101.927 94.237 C 98.581 97.667 95.091 100.480 94.171 100.487 C 93.252 100.494 92.588 100.988 92.695 101.584 C 92.897 102.710 81.073 114.931 79.746 114.967 C 78.310 115.006 75.000 117.486 75.000 118.522 C 75.000 119.094 72.237 122.249 68.860 125.531 C 65.484 128.814 63.035 130.938 63.419 130.250 C 64.464 128.381 63.195 128.740 60.770 131.000 C 59.589 132.100 59.032 133.000 59.533 133.000 C 60.033 133.000 57.530 135.938 53.971 139.529 C 50.412 143.120 47.500 145.572 47.500 144.978 C 47.500 144.383 44.654 147.076 41.175 150.961 C 37.696 154.847 34.494 157.805 34.059 157.536 C 33.097 156.942 29.768 160.434 30.550 161.217 C 30.856 161.522 30.039 162.611 28.736 163.636 C 27.432 164.661 26.287 165.950 26.191 166.500 C 26.095 167.050 25.392 168.230 24.628 169.121 C 23.865 170.013 22.701 172.375 22.043 174.371 C 21.384 176.367 20.444 178.000 19.954 178.000 C 19.464 178.000 19.350 178.749 19.701 179.664 C 20.105 180.717 19.944 181.084 19.263 180.663 C 18.566 180.232 18.386 180.759 18.751 182.155 C 19.134 183.619 18.948 184.086 18.173 183.607 C 17.361 183.105 17.212 183.856 17.659 186.200 C 18.004 188.015 17.962 189.202 17.565 188.838 C 17.168 188.474 16.766 192.411 16.671 197.588 C 16.577 202.765 16.890 207.000 17.367 207.000 C 17.843 207.000 18.021 208.111 17.761 209.470 C 17.495 210.862 17.698 211.687 18.226 211.360 C 18.741 211.042 19.074 211.618 18.966 212.641 C 18.858 213.663 18.839 214.275 18.924 214.000 C 19.009 213.725 19.733 215.009 20.534 216.853 C 21.335 218.698 21.741 220.610 21.436 221.103 C 21.131 221.596 21.350 222.000 21.922 222.000 C 22.494 222.000 23.244 223.125 23.589 224.500 C 23.934 225.875 24.666 227.000 25.215 227.000 C 25.765 227.000 25.946 227.698 25.618 228.552 C 25.291 229.406 25.408 229.866 25.878 229.576 C 26.720 229.055 29.552 231.602 30.179 233.444 C 30.355 233.963 32.630 236.380 35.234 238.815 C 37.837 241.251 39.765 243.571 39.518 243.971 C 39.270 244.372 43.129 248.479 48.093 253.100 C 53.057 257.720 56.425 261.275 55.577 261.000 C 54.730 260.725 55.226 261.625 56.680 263.000 C 58.133 264.375 58.932 264.825 58.454 264.000 C 57.976 263.175 60.325 265.425 63.673 269.000 C 67.022 272.575 69.712 275.725 69.650 276.000 C 69.443 276.930 75.322 283.000 76.415 282.985 C 77.012 282.976 76.878 282.575 76.118 282.094 C 75.021 281.399 75.147 281.088 76.732 280.585 C 77.830 280.237 80.701 277.652 83.114 274.842 C 86.203 271.244 87.352 270.389 87.000 271.952 C 86.591 273.769 86.953 273.583 89.000 270.923 C 93.316 265.314 101.247 257.000 102.283 257.000 C 102.828 257.000 106.833 253.197 111.182 248.549 C 116.253 243.129 119.609 240.296 120.536 240.652 C 121.352 240.965 122.263 240.477 122.626 239.533 C 123.061 238.398 122.018 236.572 119.384 233.858 C 117.248 231.658 116.049 230.002 116.721 230.179 C 117.393 230.356 113.877 226.675 108.909 222.000 C 103.941 217.325 100.627 213.725 101.545 214.000 C 102.963 214.425 102.934 214.242 101.357 212.792 C 100.336 211.853 96.453 208.285 92.728 204.863 L 85.956 198.641 89.136 195.359 C 90.886 193.554 92.628 192.270 93.008 192.505 C 93.388 192.740 97.479 188.871 102.100 183.907 C 106.720 178.943 110.275 175.586 110.000 176.447 C 109.725 177.308 111.075 176.116 113.000 173.797 C 117.539 168.331 124.092 162.000 125.210 162.000 C 125.693 162.000 127.305 160.818 128.794 159.373 C 130.282 157.929 130.825 157.106 130.000 157.544 C 129.175 157.983 131.538 155.350 135.250 151.695 C 138.963 148.039 142.000 145.397 142.000 145.824 C 142.000 146.251 141.663 147.028 141.250 147.552 C 140.838 148.075 141.513 147.510 142.750 146.295 C 143.988 145.081 145.000 143.862 145.000 143.586 C 145.000 142.033 156.456 131.238 157.627 131.687 C 158.385 131.978 159.000 131.592 159.000 130.826 C 159.000 129.263 170.982 117.020 171.032 118.531 C 171.049 119.064 171.612 118.791 172.282 117.925 C 172.952 117.059 174.830 115.484 176.456 114.425 C 178.082 113.366 178.856 112.500 178.177 112.500 C 177.498 112.500 179.958 109.575 183.645 106.000 C 187.332 102.425 189.707 100.541 188.924 101.814 C 187.763 103.700 187.962 103.624 190.000 101.406 C 204.327 85.812 205.206 85.040 207.339 86.182 C 208.482 86.793 210.111 88.036 210.959 88.944 C 211.934 89.989 212.133 90.044 211.500 89.096 C 210.950 88.271 213.624 90.613 217.441 94.298 C 221.259 97.984 223.734 101.003 222.941 101.007 C 222.121 101.010 222.616 101.764 224.091 102.757 C 227.906 105.323 237.000 114.174 237.000 115.320 C 237.000 115.864 240.938 120.082 245.750 124.695 C 250.563 129.307 253.600 132.766 252.500 132.380 C 250.693 131.748 250.730 131.933 252.883 134.296 C 254.193 135.734 255.748 136.819 256.337 136.706 C 256.927 136.593 257.486 137.063 257.580 137.750 C 257.673 138.438 257.806 138.678 257.875 138.284 C 257.944 137.890 260.438 139.976 263.417 142.918 C 266.531 145.994 268.612 148.849 268.310 149.634 C 268.022 150.385 268.331 151.000 268.997 151.000 C 269.663 151.000 273.077 153.813 276.585 157.250 C 280.092 160.688 282.324 163.275 281.544 163.000 C 280.763 162.725 284.128 166.225 289.020 170.779 C 294.844 176.199 297.720 179.565 297.351 180.529 C 297.040 181.338 297.283 182.000 297.890 182.000 C 299.225 182.000 314.027 195.909 313.718 196.873 C 313.598 197.247 316.752 200.692 320.726 204.527 C 324.700 208.362 327.096 211.050 326.051 210.500 C 325.006 209.950 328.397 213.473 333.586 218.329 C 338.774 223.186 342.733 227.623 342.382 228.191 C 341.344 229.870 344.128 230.899 346.627 229.760 C 347.897 229.181 348.736 228.382 348.491 227.985 C 348.245 227.588 350.679 224.749 353.901 221.676 C 357.122 218.604 359.494 215.827 359.172 215.505 C 358.850 215.184 359.549 214.669 360.724 214.362 C 362.035 214.019 362.654 213.261 362.324 212.401 C 362.028 211.631 362.284 211.000 362.893 211.000 C 363.502 211.000 364.000 210.325 364.000 209.500 C 364.000 208.675 364.498 208.000 365.107 208.000 C 365.716 208.000 365.946 207.302 365.618 206.448 C 365.256 205.505 365.437 205.152 366.078 205.548 C 366.659 205.907 367.050 205.593 366.948 204.850 C 366.564 202.053 367.032 199.902 367.907 200.442 C 368.405 200.751 368.578 200.102 368.290 199.001 C 368.002 197.901 368.207 197.000 368.745 197.000 C 369.283 197.000 369.499 195.763 369.225 194.250 C 368.951 192.738 369.049 191.799 369.443 192.163 C 369.837 192.528 370.160 188.405 370.160 183.000 C 370.160 177.595 369.834 173.472 369.436 173.837 C 369.038 174.202 368.996 173.015 369.341 171.200 C 369.772 168.938 369.627 168.113 368.878 168.576 C 368.142 169.031 368.018 168.517 368.500 167.000 C 368.948 165.587 368.841 164.980 368.212 165.369 C 367.059 166.082 365.714 163.273 366.556 161.910 C 366.865 161.409 366.641 161.000 366.059 161.000 C 365.477 161.000 365.000 160.100 365.000 159.000 C 365.000 157.900 364.475 157.000 363.833 157.000 C 363.192 157.000 362.930 156.737 363.251 156.415 C 363.573 156.094 363.085 154.954 362.168 153.883 C 361.251 152.812 360.500 151.622 360.500 151.239 C 360.500 150.856 358.746 148.958 356.602 147.022 C 354.458 145.085 353.257 143.500 353.932 143.500 C 354.608 143.500 353.999 142.490 352.580 141.257 C 351.161 140.023 350.000 139.220 350.000 139.473 C 350.000 140.425 342.891 132.774 338.776 127.395 C 336.424 124.319 334.725 122.508 335.000 123.369 C 335.275 124.230 333.250 122.374 330.500 119.244 C 327.750 116.115 325.444 113.205 325.375 112.777 C 325.129 111.249 324.746 111.021 324.490 112.250 C 324.348 112.938 323.917 112.547 323.533 111.382 C 323.150 110.217 319.771 106.742 316.024 103.660 C 311.936 100.297 309.270 97.355 309.356 96.302 C 309.435 95.338 309.018 94.537 308.429 94.524 C 306.660 94.484 300.109 87.876 295.804 81.789 C 293.583 78.648 291.438 76.173 291.039 76.289 C 290.639 76.405 287.758 73.913 284.635 70.750 C 281.513 67.588 279.396 65.000 279.931 65.000 C 280.466 65.000 279.801 63.809 278.452 62.354 C 277.104 60.899 275.997 60.111 275.993 60.604 C 275.990 61.097 275.093 60.150 274.000 58.500 C 272.907 56.850 272.010 55.929 272.007 56.453 C 272.003 56.977 270.201 55.627 268.003 53.453 C 265.804 51.279 264.454 49.613 265.003 49.750 C 265.551 49.888 266.000 49.550 266.000 49.000 C 266.000 48.450 265.586 48.000 265.081 48.000 C 263.438 48.000 252.945 37.796 251.306 34.604 C 249.491 31.069 243.000 24.551 243.000 26.263 C 243.000 26.884 241.425 25.866 239.500 24.000 C 237.575 22.134 236.000 20.950 236.000 21.368 C 236.000 21.786 234.200 21.116 232.000 19.880 C 229.800 18.643 228.000 17.315 228.000 16.927 C 228.000 16.539 227.438 16.243 226.750 16.269 C 223.198 16.401 220.943 15.901 221.442 15.093 C 221.751 14.595 221.102 14.422 220.001 14.710 C 218.901 14.998 218.000 14.843 218.000 14.367 C 218.000 13.890 213.501 13.500 208.001 13.500 C 202.501 13.500 198.001 13.890 198.000 14.367 "/></g>
<g fill="#EE1C34FE" stroke="#EE1C34FE">
<path d="M 369.500 11.924 C 367.300 12.352 363.363 13.653 360.750 14.815 C 358.138 15.978 356.000 16.720 356.000 16.464 C 356.000 16.209 355.084 16.916 353.964 18.036 C 352.843 19.157 351.541 19.834 351.068 19.542 C 350.596 19.250 349.927 19.748 349.581 20.649 C 349.236 21.549 348.688 22.022 348.365 21.699 C 348.042 21.375 346.663 22.436 345.300 24.055 C 343.937 25.675 342.300 27.004 341.661 27.008 C 341.022 27.012 336.900 30.925 332.500 35.704 C 328.100 40.482 324.500 43.839 324.500 43.163 C 324.500 42.487 322.025 44.866 319.000 48.450 C 315.975 52.034 313.203 54.974 312.840 54.983 C 312.477 54.992 308.538 58.589 304.086 62.976 L 295.992 70.951 300.496 75.103 C 302.973 77.386 305.000 79.630 305.000 80.088 C 305.000 80.547 308.713 84.615 313.250 89.128 C 317.788 93.641 321.500 97.665 321.500 98.070 C 321.500 98.475 325.019 102.113 329.319 106.153 C 333.620 110.194 336.545 113.350 335.819 113.168 C 335.094 112.985 335.591 113.997 336.924 115.418 C 338.258 116.838 339.833 117.996 340.424 117.992 C 341.016 117.988 345.100 114.075 349.500 109.296 C 353.900 104.518 357.500 101.135 357.500 101.779 C 357.500 102.423 361.100 99.109 365.500 94.414 C 369.900 89.719 373.275 86.597 373.000 87.475 C 372.725 88.353 373.949 87.480 375.719 85.536 C 377.490 83.591 379.307 82.000 379.757 82.000 C 380.207 82.000 382.808 84.339 385.538 87.197 C 388.267 90.056 389.600 91.768 388.500 91.001 C 387.400 90.235 390.685 93.633 395.800 98.554 C 400.915 103.474 404.444 107.275 403.643 107.000 C 402.842 106.725 406.022 110.100 410.710 114.500 C 415.397 118.900 418.743 122.392 418.144 122.259 C 417.545 122.127 420.986 125.952 425.790 130.759 C 430.594 135.567 434.382 139.500 434.208 139.500 C 433.820 139.500 441.681 147.823 460.656 167.500 C 468.611 175.750 477.497 184.975 480.402 188.000 C 483.307 191.025 487.416 195.705 489.531 198.399 L 493.379 203.299 490.571 205.399 C 489.028 206.555 483.880 211.481 479.132 216.346 C 474.384 221.212 470.651 224.394 470.835 223.419 C 471.038 222.342 470.086 222.991 468.411 225.073 C 464.190 230.316 454.436 240.081 455.000 238.498 C 455.275 237.726 451.989 240.891 447.699 245.530 C 443.408 250.170 439.548 253.861 439.120 253.733 C 438.693 253.605 434.779 257.250 430.422 261.834 C 426.065 266.418 422.647 269.578 422.826 268.856 C 423.005 268.134 419.405 271.515 414.826 276.368 C 410.247 281.222 406.643 284.610 406.817 283.896 C 406.991 283.183 403.166 286.758 398.317 291.841 C 393.468 296.924 389.725 300.390 390.000 299.543 C 390.275 298.696 388.480 300.478 386.011 303.502 C 383.542 306.526 381.206 309.000 380.821 309.000 C 380.436 309.000 376.787 312.324 372.711 316.386 C 368.635 320.449 363.401 325.061 361.079 326.636 C 358.757 328.211 357.446 329.352 358.166 329.171 C 358.886 328.990 356.653 331.595 353.203 334.960 C 349.337 338.731 347.232 341.509 347.715 342.200 C 348.147 342.816 348.411 342.868 348.301 342.315 C 348.192 341.762 350.892 344.040 354.301 347.379 C 357.711 350.718 360.388 353.798 360.250 354.225 C 360.113 354.651 360.675 355.000 361.500 355.000 C 362.325 355.000 363.900 355.900 365.000 357.000 C 366.100 358.100 367.000 358.743 367.000 358.429 C 367.000 358.114 367.711 358.568 368.581 359.438 C 369.450 360.307 370.575 360.763 371.081 360.450 C 371.586 360.138 372.000 360.344 372.000 360.910 C 372.000 361.475 372.749 361.650 373.664 361.299 C 374.775 360.872 375.090 361.045 374.612 361.819 C 374.144 362.575 374.434 362.771 375.448 362.382 C 376.302 362.054 377.000 362.270 377.000 362.862 C 377.000 363.453 377.675 363.678 378.500 363.362 C 379.325 363.045 380.000 363.242 380.000 363.799 C 380.000 364.357 380.970 364.559 382.156 364.249 C 383.536 363.888 384.076 364.068 383.656 364.747 C 383.214 365.463 384.353 365.628 387.153 365.253 C 390.144 364.851 391.107 365.018 390.594 365.848 C 390.096 366.654 391.269 367.000 394.500 367.000 C 397.667 367.000 398.899 366.646 398.423 365.875 C 397.940 365.094 398.840 364.879 401.364 365.174 C 403.364 365.407 405.000 365.186 405.000 364.683 C 405.000 364.179 405.878 363.996 406.952 364.277 C 408.026 364.558 409.052 364.344 409.233 363.802 C 409.414 363.259 410.785 362.745 412.280 362.658 C 413.775 362.571 414.999 362.136 414.999 361.691 C 415.000 361.246 415.450 361.160 416.000 361.500 C 416.550 361.840 417.000 361.641 417.000 361.059 C 417.000 360.477 417.338 360.079 417.750 360.175 C 418.952 360.454 424.000 357.761 424.000 356.839 C 424.000 356.378 424.567 356.000 425.259 356.000 C 425.952 356.000 427.174 354.988 427.974 353.750 C 428.774 352.513 429.445 352.062 429.464 352.748 C 429.484 353.435 432.785 350.405 436.801 346.015 C 440.816 341.625 444.458 338.139 444.894 338.267 C 445.330 338.395 448.941 335.024 452.919 330.775 C 456.896 326.526 460.454 323.110 460.825 323.184 C 462.240 323.464 465.000 321.733 465.000 320.565 C 465.000 319.377 476.616 307.611 477.205 308.203 C 477.368 308.366 481.101 304.782 485.501 300.237 C 489.900 295.693 493.275 292.630 493.000 293.430 C 492.725 294.231 494.969 292.099 497.987 288.693 C 501.005 285.287 503.912 282.318 504.448 282.096 C 504.984 281.874 508.399 278.724 512.036 275.096 C 515.674 271.468 520.263 267.375 522.236 266.000 C 524.208 264.625 525.750 263.204 525.661 262.843 C 525.572 262.482 528.311 259.489 531.747 256.193 C 535.183 252.897 537.697 250.718 537.333 251.350 C 536.970 251.983 540.254 248.788 544.633 244.250 C 549.011 239.713 552.407 236.000 552.178 236.000 C 551.950 236.000 553.150 234.581 554.846 232.847 C 556.541 231.112 557.693 229.312 557.405 228.847 C 557.117 228.381 557.385 228.000 558.000 228.000 C 558.615 228.000 558.840 227.550 558.500 227.000 C 558.160 226.450 558.344 226.000 558.910 226.000 C 559.475 226.000 559.696 225.371 559.401 224.603 C 559.106 223.834 559.502 222.610 560.281 221.882 C 561.060 221.154 561.470 219.688 561.191 218.623 C 560.889 217.468 561.093 216.940 561.698 217.313 C 562.327 217.702 562.525 216.909 562.219 215.220 C 561.945 213.706 562.111 212.861 562.594 213.314 C 563.076 213.766 563.328 212.590 563.163 210.665 C 562.998 208.760 563.345 206.905 563.932 206.542 C 565.333 205.676 565.311 200.310 563.904 199.441 C 563.301 199.068 562.996 197.477 563.227 195.906 C 563.458 194.335 563.266 192.922 562.802 192.767 C 562.338 192.613 561.855 191.027 561.729 189.245 C 561.603 187.462 561.114 186.003 560.643 186.002 C 560.172 186.001 560.045 185.325 560.362 184.500 C 560.678 183.675 560.611 183.000 560.213 183.000 C 559.814 183.000 558.453 180.744 557.189 177.987 C 555.924 175.230 553.901 172.054 552.695 170.930 C 551.488 169.806 550.500 168.504 550.500 168.038 C 550.500 167.572 547.184 164.110 543.130 160.345 C 539.077 156.580 536.152 153.500 536.630 153.500 C 537.516 153.500 530.836 146.429 514.232 129.788 C 509.134 124.680 505.605 120.725 506.389 121.000 C 507.172 121.275 504.003 117.900 499.346 113.500 C 494.689 109.100 491.543 105.725 492.356 106.000 C 493.168 106.275 489.832 102.755 484.941 98.177 C 480.050 93.600 476.150 89.507 476.274 89.084 C 476.398 88.660 472.940 84.980 468.588 80.906 C 464.237 76.833 461.188 73.500 461.813 73.500 C 462.438 73.500 459.048 69.900 454.279 65.500 C 449.510 61.100 446.145 57.500 446.802 57.500 C 447.459 57.500 444.405 54.215 440.015 50.199 C 435.625 46.184 432.134 42.584 432.257 42.199 C 432.379 41.815 427.871 37.000 422.238 31.500 C 416.605 26.000 411.983 21.725 411.966 22.000 C 411.950 22.275 411.276 21.626 410.468 20.559 C 409.661 19.491 408.986 19.041 408.968 19.559 C 408.951 20.076 408.276 19.626 407.468 18.559 C 406.661 17.491 406.000 16.910 406.000 17.268 C 406.000 17.625 403.851 16.838 401.225 15.519 C 398.599 14.200 395.111 12.826 393.475 12.465 C 388.698 11.413 373.852 11.078 369.500 11.924 "/></g>
<g fill="#38A4B2FE" stroke="#38A4B2FE">
<path d="M 483.114 313.651 L 459.936 335.303 462.218 337.880 C 463.473 339.297 471.588 347.981 480.250 357.179 C 488.913 366.376 496.000 374.169 496.000 374.497 C 496.000 375.644 479.109 391.763 406.000 460.383 L 375.500 489.010 365.000 478.130 C 359.225 472.147 349.550 461.914 343.500 455.390 C 326.674 437.248 320.959 431.201 315.365 425.621 C 312.541 422.805 304.631 414.425 297.788 407.000 C 290.945 399.575 283.571 391.700 281.401 389.500 C 279.232 387.300 268.519 375.948 257.594 364.272 L 237.731 343.045 232.355 347.959 C 229.397 350.662 225.919 354.139 224.626 355.687 C 220.536 360.580 215.735 370.013 214.359 375.858 C 211.663 387.312 213.219 404.688 217.726 413.456 C 219.958 417.798 227.656 427.635 232.985 432.956 C 235.488 435.455 242.478 442.827 248.518 449.338 C 254.558 455.850 261.989 463.725 265.031 466.838 C 268.072 469.952 283.597 486.449 299.531 503.499 C 315.464 520.548 330.942 537.097 333.928 540.275 C 336.913 543.453 342.371 548.040 346.056 550.468 C 363.125 561.713 387.944 561.340 404.084 549.596 C 409.208 545.867 478.997 481.255 489.500 470.516 C 491.700 468.266 497.100 463.096 501.500 459.026 C 518.119 443.654 544.732 418.323 550.675 412.220 C 563.592 398.955 568.930 379.671 564.448 362.460 C 561.353 350.573 556.973 344.577 531.609 317.502 C 518.469 303.476 507.397 292.000 507.005 292.000 C 506.613 292.000 495.862 301.743 483.114 313.651 "/></g>
<g fill="#962898FE" stroke="#962898FE">
<path d="M 287.000 294.500 C 285.134 296.425 283.991 298.000 284.459 298.000 C 284.927 298.000 284.505 298.889 283.521 299.976 C 282.538 301.063 281.273 301.669 280.712 301.322 C 280.150 300.975 279.981 301.160 280.334 301.732 C 280.688 302.305 280.308 303.329 279.489 304.009 C 278.301 304.995 278.000 304.983 278.000 303.948 C 278.000 303.189 276.972 303.656 275.518 305.076 C 274.153 306.409 273.683 307.275 274.473 307.000 C 275.263 306.725 273.766 308.648 271.146 311.274 C 268.526 313.900 266.135 315.802 265.833 315.500 C 265.532 315.198 264.658 315.750 263.893 316.726 C 262.598 318.375 262.641 318.395 264.500 317.017 C 266.475 315.553 266.477 315.562 264.616 317.744 C 263.580 318.959 262.377 319.733 261.943 319.465 C 261.508 319.196 260.184 320.337 259.000 322.000 C 257.816 323.663 256.362 324.724 255.769 324.357 C 255.170 323.987 254.977 324.154 255.334 324.732 C 255.688 325.305 255.308 326.329 254.489 327.009 C 253.670 327.689 252.944 327.965 252.875 327.622 C 252.806 327.280 252.694 327.563 252.625 328.250 C 252.556 328.938 251.938 329.556 251.250 329.625 C 250.563 329.694 250.295 329.806 250.655 329.875 C 251.711 330.077 247.802 334.000 246.545 334.000 C 245.915 334.000 244.884 334.516 244.253 335.147 C 243.389 336.011 243.707 336.768 245.533 338.205 C 246.869 339.255 247.867 340.427 247.752 340.808 C 247.637 341.188 250.336 344.147 253.749 347.381 C 257.163 350.616 259.671 353.723 259.323 354.286 C 258.976 354.849 259.160 355.019 259.732 354.666 C 260.305 354.312 261.387 354.778 262.137 355.703 C 263.310 357.150 263.291 357.260 262.000 356.493 C 261.175 356.003 263.313 358.216 266.750 361.409 C 270.188 364.603 273.000 367.764 273.000 368.433 C 273.000 369.103 274.201 370.742 275.670 372.076 C 277.294 373.550 277.980 373.838 277.420 372.809 C 276.914 371.879 279.200 374.111 282.500 377.769 C 285.800 381.427 288.500 384.813 288.500 385.293 C 288.500 385.774 288.765 385.901 289.089 385.577 C 289.414 385.253 290.539 385.995 291.589 387.227 C 293.482 389.444 293.481 389.452 291.500 388.016 C 290.400 387.218 290.850 388.037 292.500 389.834 C 294.150 391.632 297.225 394.233 299.332 395.616 C 301.594 397.099 302.954 398.679 302.650 399.471 C 302.164 400.735 304.618 403.774 306.250 403.929 C 306.663 403.968 307.113 404.053 307.250 404.118 C 307.388 404.184 307.086 404.158 306.581 404.062 C 306.075 403.966 306.243 404.588 306.953 405.444 C 307.664 406.300 308.728 407.000 309.318 407.000 C 310.867 407.000 316.000 412.137 316.000 413.687 C 316.000 414.409 316.338 415.003 316.750 415.006 C 317.163 415.010 318.370 416.472 319.434 418.256 C 320.498 420.040 321.398 420.908 321.434 420.184 C 321.471 419.455 322.810 420.236 324.437 421.934 C 326.052 423.620 327.030 425.000 326.610 425.000 C 326.190 425.000 327.231 426.165 328.923 427.589 C 330.615 429.013 332.000 430.827 332.000 431.620 C 332.000 432.414 332.788 433.342 333.750 433.683 C 334.713 434.025 336.266 435.023 337.203 435.902 C 338.793 437.395 338.775 437.434 336.929 436.500 C 335.842 435.950 337.851 437.748 341.394 440.497 C 344.937 443.245 347.760 445.842 347.668 446.269 C 347.576 446.696 348.625 445.801 350.000 444.280 L 352.500 441.514 350.000 443.442 C 348.625 444.502 349.188 443.735 351.250 441.736 C 353.313 439.737 355.053 438.192 355.118 438.301 C 355.184 438.410 355.203 438.222 355.163 437.883 C 355.054 436.977 360.045 432.457 360.831 432.750 C 361.199 432.888 361.500 432.438 361.500 431.750 C 361.500 431.063 362.179 429.745 363.008 428.821 C 363.837 427.898 365.612 424.213 366.951 420.631 C 368.290 417.050 369.767 414.356 370.233 414.644 C 370.699 414.932 370.771 413.938 370.394 412.435 C 369.975 410.766 370.084 409.934 370.673 410.298 C 371.242 410.650 371.461 409.686 371.206 407.947 C 370.908 405.918 371.198 404.995 372.137 404.985 C 373.197 404.973 373.166 404.754 372.000 404.000 C 370.910 403.296 370.858 403.026 371.809 403.015 C 372.529 403.007 372.920 402.663 372.679 402.250 C 372.192 401.419 370.770 390.194 370.557 385.500 C 370.466 383.490 370.183 382.995 369.699 384.000 C 369.246 384.943 369.133 384.665 369.395 383.250 C 369.625 382.013 369.453 381.000 369.013 381.000 C 368.068 381.000 366.877 378.353 366.485 375.381 C 366.331 374.216 365.371 372.289 364.352 371.099 C 363.334 369.909 362.444 368.500 362.375 367.968 C 362.306 367.435 362.194 367.280 362.125 367.622 C 362.056 367.965 361.352 367.707 360.559 367.049 C 359.767 366.392 359.330 365.303 359.589 364.629 C 359.847 363.955 358.808 362.301 357.279 360.952 L 354.500 358.500 357.000 361.500 C 358.375 363.150 356.575 361.614 353.000 358.087 C 349.425 354.560 347.063 351.999 347.750 352.396 C 350.028 353.712 349.045 351.388 346.280 348.924 C 344.231 347.098 343.913 346.993 344.992 348.500 C 345.779 349.600 344.994 349.194 343.247 347.597 C 341.500 346.000 340.350 344.243 340.690 343.692 C 341.030 343.142 340.855 342.972 340.300 343.315 C 339.332 343.913 335.186 340.301 335.061 338.750 C 334.942 337.283 334.748 337.017 334.625 338.154 C 334.546 338.880 334.041 338.754 333.259 337.812 C 332.576 336.989 332.274 336.060 332.587 335.746 C 332.901 335.433 331.734 334.124 329.995 332.838 C 328.256 331.552 327.433 330.493 328.166 330.485 C 329.208 330.473 329.226 330.296 328.250 329.676 C 327.563 329.239 327.000 329.227 327.000 329.649 C 327.000 330.071 324.975 328.429 322.500 326.000 C 320.025 323.571 318.000 320.861 318.000 319.979 C 318.000 319.096 316.545 317.052 314.766 315.437 C 312.026 312.949 311.829 312.882 313.480 315.000 C 314.552 316.375 312.420 314.600 308.742 311.056 C 305.064 307.512 302.241 304.426 302.468 304.198 C 302.696 303.971 303.696 304.509 304.691 305.395 C 305.686 306.280 305.291 305.766 303.814 304.252 C 302.337 302.739 299.536 300.228 297.590 298.674 C 295.643 297.119 294.093 295.544 294.144 295.174 C 294.195 294.803 294.184 294.668 294.118 294.872 C 294.053 295.077 293.309 294.671 292.464 293.970 C 291.186 292.910 290.463 293.099 288.168 295.098 C 286.649 296.419 286.884 296.038 288.689 294.250 C 290.494 292.463 291.616 291.000 291.181 291.000 C 290.747 291.000 288.866 292.575 287.000 294.500 "/></g>
<g fill="#2056AEFE" stroke="#2056AEFE">
<path d="M 240.410 238.855 C 240.701 239.325 239.827 240.753 238.469 242.029 C 237.111 243.305 235.944 244.045 235.875 243.674 C 235.806 243.303 235.694 243.413 235.625 243.917 C 235.421 245.411 234.000 246.442 234.000 245.095 C 234.000 244.228 233.551 244.306 232.500 245.357 C 231.675 246.182 231.000 247.240 231.000 247.707 C 231.000 248.833 218.739 260.961 217.665 260.897 C 217.206 260.869 214.354 263.583 211.327 266.928 C 208.300 270.273 205.445 272.775 204.981 272.488 C 204.517 272.202 203.813 272.494 203.415 273.138 C 202.920 273.939 203.135 274.041 204.095 273.463 C 205.289 272.743 205.295 272.869 204.137 274.297 C 203.387 275.222 202.404 275.750 201.952 275.470 C 201.500 275.191 199.933 276.532 198.471 278.450 C 197.008 280.368 195.516 281.898 195.155 281.850 C 194.795 281.802 194.706 281.816 194.958 281.882 C 195.210 281.947 193.410 283.990 190.958 286.422 C 188.506 288.855 186.950 290.017 187.500 289.006 C 188.050 287.995 184.982 290.955 180.683 295.584 C 176.383 300.213 172.333 304.000 171.683 304.001 C 171.032 304.001 167.879 306.932 164.676 310.514 C 161.473 314.096 158.470 316.791 158.004 316.503 C 157.538 316.214 154.134 319.471 150.440 323.739 C 146.746 328.008 142.549 332.019 141.112 332.652 C 139.675 333.286 138.500 334.298 138.500 334.902 C 138.500 335.506 138.152 335.888 137.728 335.750 C 137.303 335.613 135.833 337.382 134.462 339.681 C 132.683 342.664 132.304 344.070 133.139 344.586 C 133.859 345.031 134.041 344.876 133.612 344.181 C 133.229 343.561 135.634 345.641 138.958 348.804 C 142.281 351.966 145.000 355.179 145.000 355.943 C 145.000 356.708 145.287 357.047 145.637 356.696 C 145.988 356.346 147.450 356.873 148.887 357.868 C 150.324 358.862 153.601 360.527 156.168 361.566 C 158.735 362.606 160.647 363.762 160.417 364.135 C 160.186 364.508 161.010 364.564 162.249 364.259 C 163.487 363.954 164.174 364.059 163.776 364.493 C 163.378 364.926 164.625 365.422 166.547 365.595 C 168.470 365.767 170.501 366.192 171.062 366.538 C 172.577 367.475 187.124 367.467 186.250 366.530 C 185.837 366.088 186.724 365.948 188.220 366.219 C 189.784 366.502 190.692 366.311 190.357 365.769 C 190.037 365.251 190.838 364.916 192.138 365.024 C 193.437 365.133 194.275 365.154 194.000 365.072 C 193.725 364.989 195.009 364.267 196.853 363.466 C 198.698 362.665 200.610 362.259 201.103 362.564 C 201.596 362.869 202.000 362.615 202.000 362.000 C 202.000 361.385 202.450 361.160 203.000 361.500 C 203.550 361.840 204.000 361.672 204.000 361.126 C 204.000 360.581 204.896 359.851 205.990 359.503 C 207.085 359.156 209.828 357.213 212.086 355.186 C 214.344 353.159 216.598 351.444 217.096 351.375 C 218.647 351.161 219.052 350.756 217.846 350.625 C 216.742 350.505 219.673 347.500 220.894 347.500 C 221.217 347.500 224.555 344.264 228.312 340.309 C 232.579 335.817 235.679 333.323 236.571 333.666 C 237.357 333.967 238.000 333.668 238.000 333.000 C 238.000 332.333 241.263 328.484 245.250 324.447 C 249.238 320.410 252.050 317.948 251.500 318.974 C 250.950 320.001 253.346 317.721 256.825 313.908 C 260.304 310.094 263.537 307.214 264.011 307.507 C 264.485 307.800 267.679 304.768 271.108 300.770 C 277.224 293.639 282.335 288.914 280.511 292.077 C 280.060 292.860 281.110 292.178 282.845 290.563 C 284.580 288.948 286.000 287.292 286.000 286.884 C 286.000 286.476 283.300 283.566 280.000 280.419 C 276.700 277.271 274.000 274.254 274.000 273.715 C 274.000 273.176 271.074 270.054 267.497 266.776 C 263.921 263.499 261.290 260.339 261.652 259.754 C 262.013 259.169 261.841 258.980 261.268 259.334 C 260.695 259.688 259.613 259.222 258.863 258.297 C 257.691 256.851 257.710 256.736 259.000 257.472 C 259.825 257.943 256.578 254.541 251.785 249.914 C 246.992 245.286 244.067 242.149 245.285 242.942 C 246.951 244.027 246.772 243.593 244.563 241.192 C 241.914 238.313 239.095 236.726 240.410 238.855 "/></g>
<g fill="#EE1C34FE" stroke="#EE1C34FE">
<path d="M 233.992 129.509 C 232.750 130.830 231.429 131.819 231.056 131.706 C 230.683 131.593 228.384 133.449 225.948 135.830 C 223.511 138.212 222.068 140.012 222.741 139.830 C 223.414 139.649 222.648 140.963 221.039 142.750 C 219.429 144.538 218.425 146.007 218.806 146.015 C 219.188 146.024 219.041 146.361 218.480 146.765 C 217.276 147.632 214.574 153.168 214.825 154.250 C 214.921 154.663 214.564 155.000 214.031 155.000 C 213.499 155.000 213.322 155.675 213.638 156.500 C 213.955 157.325 213.758 158.000 213.201 158.000 C 212.643 158.000 212.423 158.900 212.710 160.000 C 212.998 161.100 212.809 162.000 212.290 162.000 C 211.771 162.000 211.554 163.414 211.808 165.142 C 212.066 166.906 211.867 168.036 211.353 167.718 C 210.829 167.394 210.498 169.893 210.579 173.548 C 210.658 177.066 211.067 179.619 211.489 179.222 C 211.910 178.825 212.051 179.963 211.801 181.750 C 211.551 183.538 211.771 185.000 212.290 185.000 C 212.809 185.000 212.998 185.900 212.710 187.000 C 212.423 188.100 212.643 189.000 213.201 189.000 C 213.758 189.000 213.976 189.620 213.685 190.378 C 213.394 191.136 213.661 192.261 214.278 192.878 C 214.895 193.495 215.063 194.000 214.652 194.000 C 214.241 194.000 215.297 196.025 217.000 198.500 C 218.703 200.975 219.763 203.000 219.357 203.000 C 218.950 203.000 219.491 203.661 220.559 204.468 C 221.626 205.276 222.173 205.951 221.772 205.968 C 221.372 205.986 223.089 207.913 225.587 210.250 C 228.085 212.588 229.650 214.388 229.065 214.250 C 228.479 214.113 228.000 214.450 228.000 215.000 C 228.000 215.550 228.449 216.000 228.997 216.000 C 229.545 216.000 233.378 219.263 237.514 223.250 C 241.650 227.238 244.379 230.275 243.579 230.000 C 242.779 229.725 246.175 233.325 251.124 238.000 C 256.074 242.675 259.463 246.275 258.655 246.000 C 257.847 245.725 260.962 249.011 265.576 253.303 C 270.190 257.594 273.860 261.478 273.732 261.932 C 273.605 262.387 276.538 265.553 280.250 268.968 C 283.963 272.383 287.000 275.743 287.000 276.434 C 287.000 277.125 287.821 278.433 288.825 279.341 C 290.539 280.893 290.972 280.752 296.005 276.996 C 298.951 274.798 300.985 273.000 300.524 273.000 C 300.064 273.000 302.570 270.188 306.094 266.750 C 309.617 263.313 312.765 260.589 313.090 260.697 C 313.414 260.805 316.724 257.545 320.445 253.452 C 324.166 249.360 327.562 246.229 327.993 246.495 C 328.423 246.761 330.912 244.478 333.523 241.421 L 338.272 235.863 334.386 231.729 C 332.249 229.455 331.400 228.224 332.500 228.994 C 333.600 229.763 330.291 226.367 325.147 221.446 C 320.003 216.526 316.310 212.619 316.940 212.764 C 317.781 212.958 317.799 212.493 317.008 211.014 C 316.415 209.906 315.370 209.000 314.686 209.000 C 314.002 209.000 310.530 206.013 306.971 202.361 C 303.412 198.710 301.175 196.084 302.000 196.525 C 302.825 196.967 299.563 193.541 294.750 188.914 C 289.938 184.286 286.788 180.916 287.750 181.424 C 288.713 181.932 285.388 178.332 280.363 173.424 C 271.342 164.614 261.393 153.780 257.500 148.528 C 256.400 147.044 255.725 146.499 256.000 147.317 C 256.275 148.134 253.688 145.730 250.250 141.975 C 246.813 138.219 244.000 134.739 244.000 134.241 C 244.000 133.742 242.256 131.933 240.125 130.220 L 236.249 127.106 233.992 129.509 "/></g>
<g fill="#38A4B2FE" stroke="#38A4B2FE">
<path d="M 394.448 206.967 C 387.996 207.705 379.851 211.213 372.662 216.350 C 368.689 219.189 330.691 254.479 315.434 269.500 C 312.082 272.800 306.788 277.964 303.670 280.976 C 300.551 283.988 298.004 286.688 298.010 286.976 C 298.019 287.484 312.230 302.811 332.042 323.681 L 341.706 333.861 350.731 325.181 C 367.794 308.766 376.637 300.414 413.272 266.102 C 433.473 247.183 450.000 231.411 450.000 231.054 C 450.000 230.697 446.882 227.230 443.071 223.350 C 433.594 213.703 423.243 208.285 411.767 206.966 C 407.220 206.443 402.825 206.073 402.000 206.144 C 401.175 206.215 397.776 206.585 394.448 206.967 "/></g>
<g fill="#221E20FE" stroke="#221E20FE">
<path d="M 533.500 505.623 C 527.929 507.037 524.824 508.319 523.312 509.831 C 522.394 510.749 521.354 511.500 521.000 511.500 C 520.050 511.500 516.500 515.219 516.500 516.215 C 516.500 516.687 515.825 517.500 515.000 518.021 C 514.175 518.543 513.924 518.976 514.441 518.985 C 514.959 518.993 514.510 519.638 513.443 520.418 C 511.748 521.658 511.480 523.231 511.320 532.915 C 511.182 541.213 511.484 544.341 512.520 545.378 C 513.282 546.139 513.626 547.040 513.286 547.381 C 512.945 547.721 513.218 548.000 513.892 548.000 C 514.566 548.000 514.871 548.401 514.568 548.890 C 513.713 550.273 523.105 558.864 526.220 559.548 C 527.749 559.884 529.000 560.621 529.000 561.186 C 529.000 561.752 529.675 561.955 530.500 561.638 C 531.325 561.322 532.000 561.386 531.999 561.781 C 531.999 562.177 534.923 562.500 538.497 562.500 C 542.071 562.500 544.996 562.134 544.997 561.687 C 544.999 561.240 545.788 561.006 546.750 561.167 C 548.912 561.528 555.000 559.086 555.000 557.857 C 555.000 557.362 556.125 556.445 557.500 555.818 C 558.875 555.192 560.000 554.184 560.000 553.579 C 560.000 552.974 561.098 551.295 562.441 549.847 C 563.783 548.399 564.611 546.944 564.280 546.614 C 563.950 546.283 564.372 545.222 565.218 544.256 C 567.561 541.583 567.129 523.211 564.690 521.847 C 563.738 521.313 563.219 520.455 563.538 519.939 C 563.857 519.422 563.641 519.000 563.059 519.000 C 562.477 519.000 562.113 518.632 562.250 518.182 C 562.480 517.430 555.146 509.721 554.000 509.509 C 553.725 509.458 551.965 508.598 550.088 507.599 C 546.680 505.783 537.280 504.663 533.500 505.623 M 550.500 513.459 C 553.800 515.248 556.383 517.239 556.241 517.884 C 556.098 518.528 556.658 519.315 557.485 519.633 C 558.312 519.950 558.740 520.612 558.435 521.105 C 558.131 521.597 558.385 522.000 559.000 522.000 C 559.615 522.000 559.857 522.423 559.537 522.940 C 559.218 523.457 559.573 524.456 560.327 525.161 C 561.081 525.865 561.470 527.312 561.191 528.377 C 560.852 529.672 561.068 530.076 561.842 529.597 C 562.662 529.091 563.000 530.378 563.000 534.000 C 563.000 537.622 562.662 538.909 561.842 538.403 C 561.068 537.924 560.852 538.328 561.191 539.623 C 561.470 540.688 561.027 542.221 560.207 543.030 C 559.388 543.838 559.215 544.393 559.823 544.262 C 560.431 544.131 560.671 544.694 560.357 545.512 C 560.043 546.330 559.122 547.000 558.310 547.000 C 557.498 547.000 557.017 547.551 557.242 548.225 C 557.466 548.899 555.886 550.924 553.730 552.725 C 550.106 555.753 548.716 556.429 546.750 556.118 C 546.338 556.053 546.000 556.480 546.000 557.067 C 546.000 557.680 545.147 557.864 544.000 557.500 C 542.853 557.136 542.000 557.320 542.000 557.933 C 542.000 558.520 540.425 559.000 538.500 559.000 C 536.575 559.000 535.000 558.520 535.000 557.933 C 535.000 557.299 534.136 557.140 532.875 557.540 C 531.456 557.990 530.975 557.850 531.427 557.119 C 531.851 556.432 531.525 556.245 530.552 556.618 C 529.698 556.946 529.000 556.716 529.000 556.107 C 529.000 555.498 528.438 554.985 527.750 554.967 C 525.933 554.918 522.717 551.920 521.081 548.750 C 520.301 547.238 519.077 546.000 518.362 546.000 C 517.618 546.000 517.309 545.359 517.638 544.500 C 517.955 543.675 517.730 543.000 517.138 543.000 C 516.547 543.000 516.322 542.325 516.638 541.500 C 516.955 540.675 516.822 540.000 516.342 540.000 C 515.863 540.000 515.471 537.300 515.471 534.000 C 515.471 530.700 515.852 528.000 516.319 528.000 C 516.785 528.000 516.981 527.442 516.753 526.759 C 516.525 526.076 516.942 524.915 517.679 524.178 C 518.416 523.442 518.763 522.425 518.450 521.919 C 518.138 521.414 518.385 521.000 519.000 521.000 C 519.615 521.000 519.887 520.627 519.605 520.170 C 518.842 518.935 528.791 511.661 532.918 510.438 C 538.234 508.862 543.777 509.815 550.500 513.459 "/></g>
<g fill="#221E20FE" stroke="#221E20FE">
<path d="M 527.002 534.250 L 527.005 551.500 530.002 551.606 L 533.000 551.713 533.000 543.856 C 533.000 536.778 533.190 536.000 534.918 536.000 C 537.732 536.000 540.000 537.052 540.001 538.357 C 540.002 538.986 541.127 540.807 542.501 542.406 C 544.834 545.118 545.410 546.404 545.118 548.250 C 545.053 548.663 545.450 549.000 546.000 549.000 C 546.550 549.000 547.000 549.684 547.000 550.519 C 547.000 551.667 547.672 551.880 549.750 551.390 C 552.759 550.681 555.185 549.000 553.200 549.000 C 552.540 549.000 552.000 548.325 552.000 547.500 C 552.000 546.675 551.550 546.000 551.000 546.000 C 550.450 546.000 550.000 545.520 550.000 544.933 C 550.000 544.347 548.875 542.392 547.500 540.589 C 544.727 536.953 544.317 535.000 546.326 535.000 C 549.045 535.000 551.798 530.618 551.837 526.230 C 551.858 523.855 551.464 522.213 550.949 522.531 C 550.440 522.846 550.256 522.495 550.542 521.752 C 551.528 519.182 544.606 517.000 535.466 517.000 L 527.000 517.000 527.002 534.250 M 544.932 522.458 C 546.224 523.256 546.315 527.954 545.077 529.910 C 544.556 530.733 541.898 531.510 538.691 531.776 L 533.199 532.231 532.849 526.498 L 532.500 520.766 538.182 521.282 C 541.307 521.566 544.345 522.095 544.932 522.458 "/></g>
<g fill="#2056AEFE" stroke="#2056AEFE">
<path d="M 505.583 291.750 C 505.171 292.163 504.533 292.527 504.167 292.559 C 503.800 292.592 500.125 295.979 496.000 300.087 C 491.875 304.195 481.782 313.877 473.572 321.603 L 458.643 335.650 476.851 354.979 L 495.058 374.309 492.855 376.654 C 491.643 377.944 491.110 379.000 491.671 379.000 C 492.797 379.000 496.000 375.761 496.000 374.622 C 496.000 374.225 488.913 366.376 480.250 357.179 C 471.588 347.981 463.473 339.297 462.218 337.880 L 459.936 335.303 483.114 313.651 C 495.862 301.743 506.613 292.000 507.005 292.000 C 507.397 292.000 518.469 303.426 531.609 317.391 C 544.749 331.356 553.977 340.919 552.116 338.641 C 548.823 334.610 539.885 325.001 525.709 310.250 C 521.877 306.263 518.986 303.000 519.284 303.000 C 519.583 303.000 517.015 300.300 513.579 297.000 C 507.022 290.704 506.785 290.548 505.583 291.750 "/></g>
<g fill="#2056AEFE" stroke="#2056AEFE">
<path d="M 446.297 226.792 C 448.334 228.878 450.000 230.836 450.000 231.144 C 450.000 231.452 433.595 247.183 413.546 266.102 C 393.496 285.021 380.206 297.800 384.014 294.500 C 387.821 291.200 394.179 285.241 398.143 281.258 C 402.106 277.275 405.469 274.136 405.615 274.282 C 405.854 274.520 423.538 257.943 443.926 238.368 L 451.355 231.236 448.093 227.118 C 446.300 224.853 444.328 223.000 443.713 223.000 C 443.098 223.000 444.260 224.706 446.297 226.792 "/></g>
<g fill="#2056AEFE" stroke="#2056AEFE">
<path d="M 442.123 425.159 C 438.066 429.450 434.353 432.718 433.873 432.422 C 433.393 432.125 433.000 432.322 433.000 432.860 C 433.000 433.398 420.063 445.986 404.250 460.834 C 388.438 475.682 375.605 487.981 375.733 488.165 C 375.861 488.349 392.985 472.538 413.786 453.030 C 434.586 433.521 451.131 417.514 450.552 417.458 C 449.974 417.402 446.180 420.867 442.123 425.159 "/></g>
<g fill="#2056AEFE" stroke="#2056AEFE">
<path d="M 441.644 515.875 C 424.124 532.169 407.542 547.075 404.795 549.000 C 402.049 550.925 400.385 552.500 401.097 552.500 C 403.053 552.500 409.361 546.989 435.949 522.052 C 443.896 514.598 453.792 505.350 457.940 501.500 C 462.089 497.650 467.286 492.644 469.491 490.375 C 471.696 488.106 459.165 499.581 441.644 515.875 "/></g>
<g fill="#2056AEFE" stroke="#2056AEFE">
<path d="M 300.608 283.084 L 296.717 286.875 299.497 290.187 C 302.789 294.110 329.693 322.574 335.640 328.426 C 339.108 331.839 312.513 302.798 301.163 290.778 L 297.648 287.055 301.074 283.175 L 304.500 279.294 300.608 283.084 "/></g>
<g fill="#2056AEFE" stroke="#2056AEFE">
<path d="M 230.868 348.265 C 223.836 354.876 218.347 361.680 219.287 362.620 C 219.598 362.931 220.568 361.802 221.443 360.110 C 222.318 358.418 226.289 353.870 230.267 350.002 L 237.500 342.970 250.000 355.735 L 262.500 368.500 250.000 355.265 L 237.500 342.030 230.868 348.265 "/></g>
<g fill="#2056AEFE" stroke="#2056AEFE">
<path d="M 277.493 480.948 C 280.238 484.002 286.079 490.213 290.470 494.750 C 294.862 499.288 298.169 503.000 297.819 503.000 C 297.469 503.000 301.068 506.825 305.817 511.500 C 310.566 516.175 314.627 520.000 314.842 520.000 C 315.253 520.000 289.881 493.120 278.925 481.948 C 273.876 476.799 273.569 476.585 277.493 480.948 "/></g>
<g fill="#2056AEFE" stroke="#2056AEFE">
<path d="M 213.105 377.000 C 211.261 383.016 211.410 397.321 213.376 403.000 C 214.594 406.519 214.778 406.737 214.217 404.000 C 213.401 400.019 213.251 381.273 213.992 376.000 C 214.411 373.018 214.280 373.166 213.105 377.000 "/></g>
<g fill="#2056AEFE" stroke="#2056AEFE">
<path d="M 553.768 409.100 C 552.815 410.472 545.779 417.423 538.131 424.547 C 530.484 431.671 525.165 436.825 526.312 436.000 C 527.459 435.175 528.646 434.491 528.949 434.479 C 529.252 434.467 532.425 431.484 536.000 427.850 C 539.575 424.216 545.311 418.711 548.746 415.617 C 552.181 412.523 554.994 409.768 554.996 409.496 C 554.998 409.223 555.113 408.461 555.250 407.803 C 555.388 407.144 554.721 407.728 553.768 409.100 "/></g>
<g fill="#2056AEFE" stroke="#2056AEFE">
<path d="M 325.605 532.408 C 336.698 544.532 344.739 551.709 347.798 552.217 C 348.734 552.373 347.925 551.664 346.000 550.643 C 344.075 549.622 336.247 542.422 328.605 534.643 L 314.709 520.500 325.605 532.408 "/></g>
<g fill="#2056AEFE" stroke="#2056AEFE">
<path d="M 387.500 557.175 C 385.850 557.726 379.775 558.284 374.000 558.414 C 365.059 558.615 364.204 558.767 368.241 559.437 C 373.790 560.358 382.776 559.561 389.060 557.590 C 391.502 556.824 392.825 556.192 392.000 556.185 C 391.175 556.178 389.150 556.623 387.500 557.175 "/></g>
<g fill="#2056AEFE" stroke="#2056AEFE">
<path d="M 376.801 211.916 C 376.636 212.315 374.779 213.798 372.676 215.213 C 370.572 216.628 365.545 221.096 361.504 225.143 L 354.157 232.500 361.965 225.280 C 366.259 221.308 372.098 216.613 374.941 214.846 C 377.783 213.079 379.433 211.534 378.606 211.413 C 377.779 211.291 376.967 211.518 376.801 211.916 "/></g>
<g fill="#2056AEFE" stroke="#2056AEFE">
<path d="M 498.713 461.854 L 489.926 470.500 498.474 463.000 C 503.175 458.875 507.129 454.984 507.261 454.354 C 507.392 453.723 503.546 457.098 498.713 461.854 "/></g>
<g fill="#2056AEFE" stroke="#2056AEFE">
<path d="M 342.245 243.500 L 332.990 252.500 342.245 243.500 L 351.500 234.500 342.245 243.500 "/></g>
<g fill="#2056AEFE" stroke="#2056AEFE">
<path d="M 273.676 381.350 C 279.079 387.042 282.825 390.778 282.000 389.651 C 281.175 388.524 280.473 387.354 280.441 387.051 C 280.371 386.404 264.832 371.000 264.249 371.000 C 264.031 371.000 268.273 375.657 273.676 381.350 "/></g>
<g fill="#221E20FE" stroke="#221E20FE">
<path d="M 285.553 296.947 C 282.873 299.667 280.415 301.864 280.090 301.828 C 279.766 301.792 279.668 301.816 279.872 301.882 C 280.077 301.947 279.653 302.788 278.930 303.750 C 278.206 304.713 280.623 302.591 284.301 299.035 L 290.987 292.571 295.667 297.035 L 300.348 301.500 296.424 296.783 C 294.266 294.188 292.033 292.051 291.462 292.033 C 290.892 292.015 288.232 294.226 285.553 296.947 "/></g>
<g fill="#221E20FE" stroke="#221E20FE">
<path d="M 565.753 371.500 C 565.971 377.550 566.305 382.950 566.496 383.500 C 567.189 385.501 566.780 365.429 566.079 363.000 C 565.681 361.625 565.535 365.450 565.753 371.500 "/></g>
<g fill="#221E20FE" stroke="#221E20FE">
<path d="M 231.747 228.979 L 234.993 232.460 227.747 239.980 L 220.500 247.500 228.255 240.020 L 236.010 232.540 232.255 229.019 L 228.500 225.498 231.747 228.979 "/></g>
<g fill="#2056AEFE" stroke="#2056AEFE">
<path d="M 563.648 390.500 C 563.229 392.150 561.759 395.684 560.380 398.353 C 559.001 401.022 558.083 403.416 558.339 403.673 C 559.193 404.526 565.189 391.218 564.795 389.343 C 564.511 387.990 564.206 388.298 563.648 390.500 "/></g>
<g fill="#221E20FE" stroke="#221E20FE">
<path d="M 181.000 557.460 C 181.000 558.469 194.442 561.992 197.855 561.878 C 200.860 561.778 200.534 561.612 196.000 560.934 C 192.975 560.482 188.531 559.412 186.124 558.556 C 181.338 556.854 181.000 556.782 181.000 557.460 "/></g>
<g fill="#221E20FE" stroke="#221E20FE">
<path d="M 238.315 458.210 L 234.323 462.500 238.175 459.088 L 242.026 455.676 244.509 458.008 C 245.875 459.291 247.214 460.119 247.486 459.848 C 247.757 459.576 246.703 458.132 245.143 456.637 L 242.307 453.920 238.315 458.210 "/></g>
<g fill="#221E20FE" stroke="#221E20FE">
<path d="M 277.746 373.500 C 278.883 375.150 282.667 379.200 286.156 382.500 C 291.384 387.444 291.020 386.916 284.090 379.500 C 279.464 374.550 276.610 371.850 277.746 373.500 "/></g>
<g fill="#2056AEFE" stroke="#2056AEFE">
<path d="M 352.785 465.466 C 355.141 468.158 358.066 471.040 359.285 471.872 C 361.963 473.700 353.448 464.117 350.543 462.036 C 349.419 461.230 350.428 462.774 352.785 465.466 "/></g>
<g fill="#2056AEFE" stroke="#2056AEFE">
<path d="M 560.046 351.091 C 561.253 353.456 562.829 356.990 563.550 358.945 C 564.270 360.900 564.891 361.725 564.930 360.777 C 565.012 358.770 560.194 348.238 558.800 347.377 C 558.279 347.054 558.840 348.726 560.046 351.091 "/></g>
<g fill="#221E20FE" stroke="#221E20FE">
<path d="M 246.500 540.340 L 240.500 546.713 246.239 541.389 C 249.395 538.461 252.095 535.594 252.239 535.016 C 252.383 534.439 249.800 536.835 246.500 540.340 "/></g>
<g fill="#221E20FE" stroke="#221E20FE">
<path d="M 338.000 342.256 C 342.251 346.541 343.462 347.443 341.500 344.862 C 339.850 342.692 336.925 339.743 335.000 338.310 C 333.038 336.849 334.356 338.583 338.000 342.256 "/></g>
<g fill="#221E20FE" stroke="#221E20FE">
<path d="M 163.896 299.840 L 158.500 305.617 164.000 300.620 C 167.025 297.872 169.950 295.589 170.500 295.547 C 171.086 295.501 171.042 295.178 170.396 294.766 C 169.761 294.361 166.998 296.518 163.896 299.840 "/></g>
<g fill="#2056AEFE" stroke="#2056AEFE">
<path d="M 480.490 388.750 C 477.544 391.838 477.366 392.235 479.480 391.000 C 482.809 389.055 486.680 385.000 485.208 385.000 C 484.580 385.000 482.457 386.688 480.490 388.750 "/></g>
<g fill="#2056AEFE" stroke="#2056AEFE">
<path d="M 312.000 271.607 C 310.075 272.766 308.050 274.678 307.500 275.856 C 306.860 277.226 308.122 276.467 311.000 273.749 C 315.251 269.735 315.306 269.617 312.000 271.607 "/></g>
<g fill="#2056AEFE" stroke="#2056AEFE">
<path d="M 429.971 213.052 C 432.981 214.710 436.468 217.031 437.721 218.208 C 438.975 219.385 439.999 219.933 439.998 219.424 C 439.995 217.981 427.490 209.970 425.316 210.018 C 424.867 210.028 426.962 211.393 429.971 213.052 "/></g>
<g fill="#221E20FE" stroke="#221E20FE">
<path d="M 193.945 482.097 C 198.940 487.063 199.768 487.690 196.460 484.000 C 193.747 480.975 190.397 477.644 189.014 476.597 C 187.631 475.551 189.850 478.026 193.945 482.097 "/></g>
<g fill="#221E20FE" stroke="#221E20FE">
<path d="M 178.500 465.766 C 181.800 469.117 183.825 470.746 183.000 469.387 C 182.175 468.028 179.475 465.286 177.000 463.295 C 173.094 460.152 173.292 460.478 178.500 465.766 "/></g>
<g fill="#221E20FE" stroke="#221E20FE">
<path d="M 34.295 408.000 C 36.286 410.475 39.028 413.175 40.387 414.000 C 41.746 414.825 40.117 412.800 36.766 409.500 C 31.478 404.292 31.152 404.094 34.295 408.000 "/></g>
<g fill="#221E20FE" stroke="#221E20FE">
<path d="M 323.000 326.270 C 326.025 329.358 327.925 330.813 327.223 329.504 C 326.520 328.196 324.045 325.670 321.723 323.891 C 317.832 320.911 317.933 321.098 323.000 326.270 "/></g>
<g fill="#221E20FE" stroke="#221E20FE">
<path d="M 269.000 312.859 L 262.500 319.311 269.000 312.859 L 275.500 306.407 269.000 312.859 "/></g>
<g fill="#221E20FE" stroke="#221E20FE">
<path d="M 122.549 502.010 C 124.722 504.490 127.914 507.640 129.641 509.010 C 131.369 510.379 129.591 508.350 125.690 504.500 C 121.790 500.650 120.376 499.529 122.549 502.010 "/></g>
<g fill="#221E20FE" stroke="#221E20FE">
<path d="M 78.042 454.524 C 80.494 457.288 83.695 460.438 85.156 461.524 C 86.617 462.611 84.611 460.350 80.699 456.500 C 76.052 451.928 75.131 451.243 78.042 454.524 "/></g>
<g fill="#221E20FE" stroke="#221E20FE">
<path d="M 343.000 443.500 C 345.987 446.680 347.086 446.641 350.076 443.250 L 352.500 440.500 349.750 442.924 L 347.000 445.349 344.686 443.174 C 341.485 440.167 340.117 440.432 343.000 443.500 "/></g>
<g fill="#221E20FE" stroke="#221E20FE">
<path d="M 252.792 328.000 L 247.336 333.500 252.792 328.000 L 258.249 322.500 252.792 328.000 "/></g>
<g fill="#221E20FE" stroke="#221E20FE">
<path d="M 44.000 322.896 L 37.500 329.348 44.000 322.896 L 50.500 316.444 44.000 322.896 "/></g>
<g fill="#221E20FE" stroke="#221E20FE">
<path d="M 59.897 307.897 L 54.294 313.500 59.897 307.897 L 65.500 302.294 59.897 307.897 "/></g>
<g fill="#221E20FE" stroke="#221E20FE">
<path d="M 179.500 285.242 C 175.277 289.507 174.685 290.361 177.500 288.124 C 179.700 286.376 182.400 283.649 183.500 282.064 C 184.600 280.479 182.800 281.909 179.500 285.242 "/></g>
<g fill="#2056AEFE" stroke="#2056AEFE">
<path d="M 220.322 419.640 C 221.141 421.213 223.056 423.625 224.580 425.000 C 227.150 427.320 227.104 427.151 223.946 422.668 C 219.980 417.036 218.190 415.541 220.322 419.640 "/></g>
<g fill="#221E20FE" stroke="#221E20FE">
<path d="M 261.281 526.250 C 258.136 529.413 255.899 532.000 256.310 532.000 C 257.053 532.000 267.229 521.439 267.079 520.823 C 267.036 520.646 264.427 523.088 261.281 526.250 "/></g>
<g fill="#221E20FE" stroke="#221E20FE">
<path d="M 104.563 483.000 C 104.930 483.825 107.811 486.750 110.965 489.500 L 116.699 494.500 110.298 488.000 C 106.777 484.425 104.197 482.175 104.563 483.000 "/></g>
<g fill="#221E20FE" stroke="#221E20FE">
<path d="M 223.500 472.388 L 217.500 478.342 223.500 472.388 L 229.500 466.435 223.500 472.388 "/></g>
<g fill="#221E20FE" stroke="#221E20FE">
<path d="M 45.011 419.208 C 45.005 419.598 47.588 422.318 50.750 425.254 L 56.500 430.591 50.761 424.546 C 47.605 421.220 45.017 418.819 45.011 419.208 "/></g>
<g fill="#221E20FE" stroke="#221E20FE">
<path d="M 134.000 418.199 C 137.575 421.821 139.385 423.371 138.022 421.642 C 136.658 419.914 133.733 416.950 131.522 415.056 C 129.310 413.162 130.425 414.576 134.000 418.199 "/></g>
<g fill="#221E20FE" stroke="#221E20FE">
<path d="M 98.641 361.968 L 93.781 366.500 98.641 361.968 L 103.500 357.436 98.641 361.968 "/></g>
<g fill="#221E20FE" stroke="#221E20FE">
<path d="M 256.000 350.000 L 263.000 357.000 256.000 350.000 L 249.000 343.000 256.000 350.000 "/></g>
<g fill="#221E20FE" stroke="#221E20FE">
<path d="M 131.412 330.388 L 127.500 334.785 131.956 330.932 C 134.407 328.813 136.168 326.834 135.869 326.535 C 135.569 326.236 133.564 327.970 131.412 330.388 "/></g>
<g fill="#221E20FE" stroke="#221E20FE">
<path d="M 147.000 315.802 C 143.425 319.412 142.083 321.046 144.018 319.433 C 145.954 317.820 148.879 314.866 150.518 312.870 C 152.158 310.873 150.575 312.193 147.000 315.802 "/></g>
<g fill="#221E20FE" stroke="#221E20FE">
<path d="M 107.000 262.661 L 102.500 267.407 107.000 263.824 C 109.475 261.853 111.500 259.718 111.500 259.078 C 111.500 258.438 109.475 260.050 107.000 262.661 "/></g>
<g fill="#221E20FE" stroke="#221E20FE">
<path d="M 212.000 254.966 L 205.500 261.547 212.000 254.966 L 218.500 248.385 212.000 254.966 "/></g>
<g fill="#2056AEFE" stroke="#2056AEFE">
<path d="M 265.105 467.455 C 266.538 469.130 268.001 471.325 268.356 472.333 C 268.711 473.341 269.550 473.983 270.222 473.759 C 270.941 473.520 269.604 471.514 266.971 468.882 C 264.512 466.423 263.672 465.781 265.105 467.455 "/></g>
<g fill="#2056AEFE" stroke="#2056AEFE">
<path d="M 335.000 446.500 C 336.866 448.425 338.791 450.000 339.277 450.000 C 339.764 450.000 338.677 448.425 336.861 446.500 C 335.045 444.575 333.121 443.000 332.584 443.000 C 332.047 443.000 333.134 444.575 335.000 446.500 "/></g>
<g fill="#221E20FE" stroke="#221E20FE">
<path d="M 207.500 561.000 L 202.500 561.686 207.000 561.743 C 209.475 561.775 212.625 561.440 214.000 561.000 C 217.111 560.004 214.764 560.004 207.500 561.000 "/></g>
<g fill="#221E20FE" stroke="#221E20FE">
<path d="M 140.500 520.500 L 147.000 527.000 140.500 520.500 L 134.000 514.000 140.500 520.500 "/></g>
<g fill="#221E20FE" stroke="#221E20FE">
<path d="M 275.976 512.525 C 273.002 515.536 270.826 518.000 271.141 518.000 C 271.933 518.000 282.100 507.767 281.703 507.370 C 281.527 507.194 278.950 509.513 275.976 512.525 "/></g>
<g fill="#221E20FE" stroke="#221E20FE">
<path d="M 207.771 486.702 C 204.620 489.616 202.406 492.000 202.850 492.000 C 203.294 492.000 205.872 489.616 208.579 486.702 L 213.500 481.404 207.771 486.702 "/></g>
<g fill="#221E20FE" stroke="#221E20FE">
<path d="M 91.048 468.500 C 91.745 469.600 94.433 472.300 97.021 474.500 C 100.932 477.824 100.718 477.486 95.753 472.500 C 92.467 469.200 90.350 467.400 91.048 468.500 "/></g>
<g fill="#221E20FE" stroke="#221E20FE">
<path d="M 163.469 449.780 C 166.751 453.201 169.750 456.000 170.132 456.000 C 170.514 456.000 167.828 453.201 164.163 449.780 L 157.500 443.561 163.469 449.780 "/></g>
<g fill="#221E20FE" stroke="#221E20FE">
<path d="M 66.500 441.500 L 73.000 448.000 66.500 441.500 L 60.000 435.000 66.500 441.500 "/></g>
<g fill="#221E20FE" stroke="#221E20FE">
<path d="M 149.500 434.500 L 156.000 441.000 149.500 434.500 L 143.000 428.000 149.500 434.500 "/></g>
<g fill="#221E20FE" stroke="#221E20FE">
<path d="M 311.985 410.485 C 313.843 412.402 315.586 413.747 315.859 413.475 C 316.517 412.817 310.909 407.000 309.617 407.000 C 309.062 407.000 310.128 408.568 311.985 410.485 "/></g>
<g fill="#221E20FE" stroke="#221E20FE">
<path d="M 308.500 310.500 L 315.000 317.000 308.500 310.500 L 302.000 304.000 308.500 310.500 "/></g>
<g fill="#221E20FE" stroke="#221E20FE">
<path d="M 74.500 294.165 L 70.500 298.125 74.500 294.165 L 78.500 290.205 74.500 294.165 "/></g>
<g fill="#221E20FE" stroke="#221E20FE">
<path d="M 136.500 235.464 L 130.500 241.549 136.500 235.464 L 142.500 229.378 136.500 235.464 "/></g>
<g fill="#2056AEFE" stroke="#2056AEFE">
<path d="M 345.297 330.000 C 343.260 332.200 342.057 334.000 342.623 334.000 C 343.750 334.000 349.094 327.958 349.036 326.750 C 349.016 326.338 347.334 327.800 345.297 330.000 "/></g>
<g fill="#2056AEFE" stroke="#2056AEFE">
<path d="M 358.181 317.865 C 354.782 320.725 354.473 321.209 356.732 320.135 C 358.311 319.384 360.254 317.748 361.051 316.500 C 362.081 314.886 361.252 315.280 358.181 317.865 "/></g>
<g fill="#221E20FE" stroke="#221E20FE">
<path d="M 165.000 547.011 C 166.375 548.205 168.963 550.502 170.750 552.115 C 172.538 553.728 174.000 554.700 174.000 554.274 C 174.000 553.848 172.334 552.150 170.298 550.500 C 165.635 546.722 161.630 544.084 165.000 547.011 "/></g>
<g fill="#221E20FE" stroke="#221E20FE">
<path d="M 275.006 489.743 C 276.831 492.077 278.934 494.102 279.680 494.243 C 280.426 494.385 278.933 492.475 276.362 490.000 L 271.688 485.500 275.006 489.743 "/></g>
<g fill="#221E20FE" stroke="#221E20FE">
<path d="M 367.441 419.273 C 364.711 426.637 365.023 427.659 367.881 420.714 C 369.190 417.532 370.063 414.730 369.820 414.487 C 369.577 414.244 368.507 416.398 367.441 419.273 "/></g>
<g fill="#221E20FE" stroke="#221E20FE">
<path d="M 120.000 403.300 C 123.025 406.447 125.344 408.455 125.154 407.761 C 124.963 407.067 122.488 404.492 119.654 402.038 L 114.500 397.577 120.000 403.300 "/></g>
<g fill="#221E20FE" stroke="#221E20FE">
<path d="M 196.000 269.961 L 190.500 275.551 196.000 269.961 L 201.500 264.370 196.000 269.961 "/></g>
<g fill="#2056AEFE" stroke="#2056AEFE">
<path d="M 367.550 480.764 L 371.601 484.500 368.507 480.750 C 366.805 478.688 364.983 477.006 364.457 477.014 C 363.930 477.021 365.323 478.709 367.550 480.764 "/></g>
<g fill="#2056AEFE" stroke="#2056AEFE">
<path d="M 481.000 478.744 C 477.391 482.449 477.193 482.808 480.000 480.554 C 481.925 479.009 483.950 476.930 484.500 475.934 C 485.050 474.938 483.475 476.203 481.000 478.744 "/></g>
<g fill="#2056AEFE" stroke="#2056AEFE">
<path d="M 343.000 454.639 C 343.000 455.925 347.826 460.508 348.486 459.848 C 348.757 459.576 347.634 458.065 345.990 456.490 C 344.345 454.915 343.000 454.082 343.000 454.639 "/></g>
<g fill="#2056AEFE" stroke="#2056AEFE">
<path d="M 252.628 454.535 C 252.933 455.616 254.634 457.625 256.408 459.000 C 259.618 461.486 259.615 461.476 255.855 457.035 C 253.726 454.520 252.316 453.428 252.628 454.535 "/></g>
<g fill="#2056AEFE" stroke="#2056AEFE">
<path d="M 322.613 433.559 C 325.206 436.959 325.648 437.055 325.150 434.115 C 325.068 433.628 323.813 432.453 322.363 431.502 L 319.726 429.775 322.613 433.559 "/></g>
<g fill="#2056AEFE" stroke="#2056AEFE">
<path d="M 231.174 432.000 C 232.031 433.375 233.658 434.950 234.789 435.500 C 235.978 436.078 235.320 435.023 233.230 433.000 C 230.466 430.324 229.982 430.089 231.174 432.000 "/></g>
<g fill="#221E20FE" stroke="#221E20FE">
<path d="M 153.500 534.500 L 159.000 540.000 153.500 534.500 L 148.000 529.000 153.500 534.500 "/></g>
<g fill="#221E20FE" stroke="#221E20FE">
<path d="M 106.500 388.500 L 112.000 394.000 106.500 388.500 L 101.000 383.000 106.500 388.500 "/></g>
<g fill="#221E20FE" stroke="#221E20FE">
<path d="M 118.734 341.756 C 115.054 345.597 115.253 346.681 119.022 343.323 C 120.684 341.842 121.914 340.242 121.756 339.767 C 121.597 339.291 120.237 340.187 118.734 341.756 "/></g>
<g fill="#221E20FE" stroke="#221E20FE">
<path d="M 300.133 282.556 C 297.109 285.505 296.028 287.226 296.617 288.157 C 297.286 289.213 297.471 289.150 297.484 287.862 C 297.493 286.961 299.075 284.441 301.000 282.261 L 304.500 278.298 300.133 282.556 "/></g>
<g fill="#221E20FE" stroke="#221E20FE">
<path d="M 89.636 279.250 C 89.169 280.213 88.159 281.000 87.393 281.000 C 86.084 281.000 85.847 281.407 85.600 284.081 C 85.458 285.620 89.785 280.808 90.169 279.000 C 90.362 278.088 90.153 278.186 89.636 279.250 "/></g>
<g fill="#2056AEFE" stroke="#2056AEFE">
<path d="M 516.297 445.000 C 514.260 447.200 512.949 449.000 513.382 449.000 C 514.315 449.000 519.909 442.837 519.963 441.750 C 519.983 441.338 518.334 442.800 516.297 445.000 "/></g>
<g fill="#2056AEFE" stroke="#2056AEFE">
<path d="M 243.000 444.000 L 248.000 449.000 243.000 444.000 L 238.000 439.000 243.000 444.000 "/></g>
<g fill="#2056AEFE" stroke="#2056AEFE">
<path d="M 309.000 418.788 C 309.000 419.300 310.530 421.020 312.399 422.610 L 315.798 425.500 312.399 421.679 C 310.530 419.577 309.000 418.276 309.000 418.788 "/></g>
<g fill="#2056AEFE" stroke="#2056AEFE">
<path d="M 459.000 409.953 L 454.500 414.556 459.000 409.953 L 463.500 405.350 459.000 409.953 "/></g>
<g fill="#2056AEFE" stroke="#2056AEFE">
<path d="M 470.322 399.499 L 466.144 403.500 470.322 399.499 L 474.500 395.498 470.322 399.499 "/></g>
<g fill="#2056AEFE" stroke="#2056AEFE">
<path d="M 289.989 398.322 C 292.459 400.930 294.551 402.712 294.638 402.282 C 294.726 401.852 292.706 399.718 290.149 397.541 L 285.500 393.581 289.989 398.322 "/></g>
<g fill="#2056AEFE" stroke="#2056AEFE">
<path d="M 368.958 307.713 L 364.500 312.427 369.707 307.713 C 372.571 305.121 374.577 303.000 374.165 303.000 C 373.753 303.000 371.410 305.121 368.958 307.713 "/></g>
<g fill="#2056AEFE" stroke="#2056AEFE">
<path d="M 323.750 260.057 C 320.016 263.880 320.243 265.099 324.016 261.485 C 325.675 259.896 326.912 258.291 326.766 257.919 C 326.620 257.547 325.263 258.509 323.750 260.057 "/></g>
<g fill="#221E20FE" stroke="#221E20FE">
<path d="M 254.484 468.285 C 256.028 470.367 257.694 471.935 258.187 471.771 C 258.679 471.607 257.417 469.904 255.380 467.986 L 251.678 464.500 254.484 468.285 "/></g>
<g fill="#221E20FE" stroke="#221E20FE">
<path d="M 356.967 435.818 L 354.500 438.835 357.297 436.808 C 358.835 435.693 359.945 434.336 359.764 433.791 C 359.582 433.247 358.324 434.159 356.967 435.818 "/></g>
<g fill="#221E20FE" stroke="#221E20FE">
<path d="M 302.000 410.000 L 307.000 415.000 302.000 410.000 L 297.000 405.000 302.000 410.000 "/></g>
<g fill="#221E20FE" stroke="#221E20FE">
<path d="M 268.000 363.000 L 273.000 368.000 268.000 363.000 L 263.000 358.000 268.000 363.000 "/></g>
<g fill="#221E20FE" stroke="#221E20FE">
<path d="M 322.849 251.091 L 320.304 254.500 323.183 252.094 C 324.767 250.770 325.912 249.236 325.728 248.685 C 325.544 248.133 324.249 249.216 322.849 251.091 "/></g>
<g fill="#221E20FE" stroke="#221E20FE">
<path d="M 149.341 223.500 L 145.400 227.500 149.341 223.500 L 153.281 219.500 149.341 223.500 "/></g>
<g fill="#221E20FE" stroke="#221E20FE">
<path d="M 212.997 213.594 C 219.073 217.067 220.499 217.187 214.847 213.750 C 212.359 212.238 209.914 211.005 209.412 211.012 C 208.910 211.019 210.524 212.181 212.997 213.594 "/></g>
<g fill="#2056AEFE" stroke="#2056AEFE">
<path d="M 301.500 410.500 L 306.000 415.000 301.500 410.500 L 297.000 406.000 301.500 410.500 "/></g>
<g fill="#2056AEFE" stroke="#2056AEFE">
<path d="M 407.000 206.183 C 407.000 206.632 408.913 206.944 411.250 206.875 L 415.500 206.750 411.250 206.058 C 408.913 205.677 407.000 205.733 407.000 206.183 "/></g>
<g fill="#2056AEFE" stroke="#2056AEFE">
<path d="M 396.000 206.000 L 392.500 206.737 396.191 206.868 C 398.221 206.941 400.160 206.550 400.500 206.000 C 401.170 204.915 401.154 204.915 396.000 206.000 "/></g>
<g fill="#221E20FE" stroke="#221E20FE">
<path d="M 221.000 558.117 C 218.525 559.093 217.077 559.916 217.782 559.946 C 219.316 560.011 226.482 557.110 225.904 556.658 C 225.682 556.485 223.475 557.141 221.000 558.117 "/></g>
<g fill="#221E20FE" stroke="#221E20FE">
<path d="M 234.038 551.102 C 232.134 552.696 231.043 554.000 231.613 554.000 C 232.184 554.000 233.690 552.895 234.958 551.544 C 236.227 550.194 237.728 549.181 238.293 549.294 C 238.863 549.408 238.915 549.211 238.410 548.852 C 237.910 548.495 235.942 549.508 234.038 551.102 "/></g>
<g fill="#221E20FE" stroke="#221E20FE">
<path d="M 322.000 420.671 C 322.000 421.948 325.838 425.495 326.502 424.831 C 326.772 424.562 325.869 423.286 324.496 421.996 C 323.123 420.707 322.000 420.110 322.000 420.671 "/></g>
<g fill="#221E20FE" stroke="#221E20FE">
<path d="M 458.500 409.449 L 454.500 413.559 458.500 409.449 L 462.500 405.338 458.500 409.449 "/></g>
<g fill="#221E20FE" stroke="#221E20FE">
<path d="M 26.000 396.364 C 26.000 397.738 29.371 403.000 30.252 403.000 C 30.703 403.000 29.931 401.321 28.536 399.268 C 27.141 397.215 26.000 395.908 26.000 396.364 "/></g>
<g fill="#221E20FE" stroke="#221E20FE">
<path d="M 471.500 397.449 L 467.500 401.559 471.500 397.449 L 475.500 393.338 471.500 397.449 "/></g>
<g fill="#221E20FE" stroke="#221E20FE">
<path d="M 122.500 248.449 L 118.500 252.559 122.500 248.449 L 126.500 244.338 122.500 248.449 "/></g>
<g fill="#221E20FE" stroke="#221E20FE">
<path d="M 538.000 154.701 C 538.000 155.341 539.463 156.861 541.250 158.081 L 544.500 160.297 541.250 156.918 C 539.463 155.059 538.000 154.062 538.000 154.701 "/></g>
</svg>
