<?xml version="1.0" encoding="UTF-8"?><svg id="_レイヤー_2" xmlns="http://www.w3.org/2000/svg" xmlns:xlink="http://www.w3.org/1999/xlink" viewBox="0 0 2536.06 366.37"><defs><style>.cls-1{fill:url(#_名称未設定グラデーション_111);}.cls-2{fill:#0b0b0b;}.cls-3{fill:url(#_名称未設定グラデーション_10);}.cls-4{fill:url(#_名称未設定グラデーション_83);}.cls-5{fill:url(#_名称未設定グラデーション_87);}.cls-6{fill:url(#_名称未設定グラデーション_96);}</style><linearGradient id="_名称未設定グラデーション_83" x1="42.39" y1="194.38" x2="124.89" y2="194.38" gradientUnits="userSpaceOnUse"><stop offset="0" stop-color="#8c51d2"/><stop offset=".14" stop-color="#8050ce"/><stop offset=".39" stop-color="#624fc3"/><stop offset=".71" stop-color="#314db2"/><stop offset="1" stop-color="#004ca1"/></linearGradient><linearGradient id="_名称未設定グラデーション_96" x1="0" y1="99.92" x2="158.15" y2="99.92" gradientUnits="userSpaceOnUse"><stop offset="0" stop-color="#0088eb"/><stop offset=".03" stop-color="#0287eb"/><stop offset=".41" stop-color="#1d84ed"/><stop offset=".74" stop-color="#2e81ee"/><stop offset="1" stop-color="#3481ef"/></linearGradient><linearGradient id="_名称未設定グラデーション_111" x1="138.89" y1="84.54" x2="386.1" y2="150.78" gradientUnits="userSpaceOnUse"><stop offset="0" stop-color="#00ecc9"/><stop offset=".71" stop-color="#00b7e1"/><stop offset="1" stop-color="#00a1ec"/></linearGradient><linearGradient id="_名称未設定グラデーション_10" x1="188.42" y1="301.26" x2="366.37" y2="301.26" gradientUnits="userSpaceOnUse"><stop offset="0" stop-color="#00cbcf"/><stop offset=".18" stop-color="#00c4bd"/><stop offset=".54" stop-color="#00b18f"/><stop offset="1" stop-color="#00984e"/></linearGradient><linearGradient id="_名称未設定グラデーション_87" x1="0" y1="301.55" x2="179.72" y2="301.55" gradientUnits="userSpaceOnUse"><stop offset="0" stop-color="#9651d8"/><stop offset=".15" stop-color="#8650d1"/><stop offset=".45" stop-color="#5c4ec2"/><stop offset=".85" stop-color="#194ca8"/><stop offset="1" stop-color="#004b9f"/></linearGradient></defs><g id="_Layer_"><g><g><path class="cls-2" d="m672.48,183.13c0,13.33-1.6,25.46-4.79,36.38-3.19,10.93-8.18,20.33-14.97,28.22-6.78,7.89-15.5,13.94-26.15,18.16-10.65,4.22-23.39,6.33-38.21,6.33s-27.08-2.11-37.68-6.33c-10.61-4.22-19.34-10.25-26.21-18.1-6.86-7.85-11.95-17.25-15.26-28.22-3.31-10.96-4.97-23.19-4.97-36.68,0-17.98,2.98-33.62,8.93-46.91,5.95-13.29,15.16-23.58,27.63-30.88,12.46-7.29,28.4-10.94,47.8-10.94s35.75,3.67,48.09,11c12.34,7.34,21.39,17.67,27.15,31,5.76,13.33,8.64,28.99,8.64,46.97Zm-119.02,0c0,10.41,1.18,19.36,3.55,26.86,2.37,7.5,6.11,13.25,11.24,17.27,5.13,4.02,11.83,6.03,20.11,6.03s15.44-2.01,20.53-6.03c5.09-4.02,8.75-9.78,11-17.27,2.25-7.49,3.37-16.45,3.37-26.86,0-15.62-2.6-27.96-7.81-37.03-5.21-9.07-14.16-13.61-26.86-13.61-8.44,0-15.24,2.05-20.41,6.15-5.17,4.1-8.91,9.94-11.24,17.51-2.33,7.57-3.49,16.56-3.49,26.97Z"/><path class="cls-2" d="m878.97,269.85h-61.29l-63.18-121.86h-1.06c.39,3.71.75,8.16,1.06,13.37.31,5.21.59,10.51.83,15.91.24,5.4.35,10.27.35,14.61v77.97h-41.41V96.88h61.05l62.94,120.21h.71c-.24-3.79-.47-8.18-.71-13.19-.24-5.01-.45-10.08-.65-15.2-.2-5.13-.3-9.66-.3-13.61v-78.2h41.65v172.97Z"/><path class="cls-2" d="m1029.97,269.85h-102.69V96.88h102.69v37.5h-55.96v27.21h51.82v37.5h-51.82v32.65h55.96v38.1Z"/><path class="cls-2" d="m1188.39,217.32c0,9.39-2.37,18.28-7.1,26.68-4.73,8.4-12.09,15.2-22.07,20.41-9.98,5.21-22.85,7.81-38.63,7.81-7.89,0-14.81-.35-20.76-1.06-5.96-.71-11.5-1.87-16.62-3.49-5.13-1.62-10.45-3.73-15.97-6.33v-41.65c9.39,4.73,18.85,8.34,28.4,10.83,9.54,2.48,18.18,3.73,25.91,3.73,4.65,0,8.46-.55,11.42-1.66,2.96-1.1,5.15-2.62,6.57-4.55,1.42-1.93,2.13-4.16,2.13-6.68,0-3-1.05-5.54-3.14-7.63-2.09-2.09-5.42-4.28-10-6.57-4.58-2.29-10.61-5.13-18.1-8.52-6.39-3-12.17-6.07-17.33-9.23-5.17-3.15-9.58-6.76-13.25-10.83-3.67-4.06-6.49-8.81-8.46-14.26-1.97-5.44-2.96-11.87-2.96-19.29,0-11.12,2.74-20.45,8.22-27.98,5.48-7.53,13.13-13.19,22.95-16.98s21.16-5.68,34.01-5.68c11.28,0,21.43,1.26,30.47,3.79,9.03,2.52,17.13,5.4,24.31,8.64l-14.32,36.08c-7.41-3.39-14.71-6.09-21.89-8.1-7.18-2.01-13.84-3.02-19.99-3.02-4.02,0-7.32.49-9.88,1.48-2.56.99-4.46,2.31-5.68,3.96-1.22,1.66-1.83,3.55-1.83,5.68,0,2.68,1.04,5.09,3.14,7.22,2.09,2.13,5.6,4.44,10.53,6.92,4.93,2.48,11.65,5.7,20.17,9.64,8.44,3.79,15.62,7.87,21.53,12.25,5.92,4.38,10.43,9.62,13.55,15.74,3.11,6.11,4.67,13.67,4.67,22.66Z"/><path class="cls-2" d="m1306.92,269.85h-46.73v-134.76h-42.24v-38.21h131.09v38.21h-42.12v134.76Z"/><path class="cls-2" d="m1439.99,96.88c15.69,0,28.75,1.91,39.16,5.74,10.41,3.83,18.24,9.52,23.48,17.1,5.24,7.57,7.87,17,7.87,28.28,0,7.02-1.18,13.41-3.55,19.17-2.37,5.76-5.74,10.9-10.12,15.44-4.38,4.54-9.6,8.5-15.68,11.89l50.4,75.36h-53l-36.68-62.94h-11.83v62.94h-46.73V96.88h56.67Zm-.71,35.38h-9.23v39.52h8.76c7.18,0,13.05-1.58,17.63-4.73,4.57-3.15,6.86-8.79,6.86-16.92,0-5.6-1.89-9.98-5.68-13.13-3.79-3.15-9.9-4.73-18.34-4.73Z"/><path class="cls-2" d="m1701.36,96.88v104.11c0,14.51-2.76,27.11-8.28,37.8-5.52,10.69-13.8,18.93-24.85,24.73-11.04,5.8-24.89,8.7-41.53,8.7-23.82,0-42-6.11-54.54-18.34-12.54-12.23-18.81-29.5-18.81-51.82v-105.18h46.97v101.51c0,12.23,2.29,21.1,6.86,26.62,4.57,5.52,11.32,8.28,20.23,8.28,6.39,0,11.59-1.2,15.62-3.61,4.02-2.41,6.96-6.21,8.81-11.42,1.85-5.21,2.78-11.91,2.78-20.11v-101.27h46.73Z"/><path class="cls-2" d="m1824.03,132.73c-5.52,0-10.45,1.16-14.79,3.49-4.34,2.33-8.05,5.7-11.12,10.12-3.08,4.42-5.42,9.8-7.04,16.15-1.62,6.35-2.43,13.55-2.43,21.59,0,10.88,1.38,20.04,4.14,27.45,2.76,7.42,6.96,13.01,12.6,16.8,5.64,3.79,12.72,5.68,21.24,5.68,7.73,0,15.16-1.06,22.3-3.19,7.14-2.13,14.33-4.69,21.59-7.69v39.52c-7.65,3.39-15.48,5.84-23.48,7.33-8.01,1.5-16.5,2.25-25.5,2.25-18.77,0-34.13-3.73-46.08-11.18-11.95-7.45-20.75-17.81-26.38-31.06-5.64-13.25-8.46-28.63-8.46-46.14,0-13.09,1.83-25.08,5.5-35.97,3.67-10.88,9.05-20.33,16.15-28.34,7.1-8,15.87-14.2,26.32-18.57,10.45-4.38,22.42-6.57,35.91-6.57,8.36,0,17.17.97,26.44,2.9,9.27,1.93,18.32,5.03,27.15,9.29l-14.32,36.79c-6.31-3-12.7-5.52-19.17-7.57-6.47-2.05-13.33-3.08-20.59-3.08Z"/><path class="cls-2" d="m1996.48,269.85h-46.73v-134.76h-42.24v-38.21h131.09v38.21h-42.12v134.76Z"/><path class="cls-2" d="m2072.85,269.85V96.88h46.97v172.97h-46.97Z"/><path class="cls-2" d="m2329.57,183.13c0,13.33-1.6,25.46-4.79,36.38-3.19,10.93-8.18,20.33-14.97,28.22-6.78,7.89-15.5,13.94-26.15,18.16-10.65,4.22-23.39,6.33-38.21,6.33s-27.08-2.11-37.68-6.33c-10.61-4.22-19.34-10.25-26.21-18.1-6.86-7.85-11.95-17.25-15.26-28.22-3.31-10.96-4.97-23.19-4.97-36.68,0-17.98,2.98-33.62,8.93-46.91,5.95-13.29,15.16-23.58,27.63-30.88,12.46-7.29,28.4-10.94,47.8-10.94s35.75,3.67,48.09,11c12.34,7.34,21.39,17.67,27.15,31,5.76,13.33,8.64,28.99,8.64,46.97Zm-119.02,0c0,10.41,1.18,19.36,3.55,26.86,2.37,7.5,6.11,13.25,11.24,17.27,5.13,4.02,11.83,6.03,20.11,6.03s15.44-2.01,20.53-6.03c5.09-4.02,8.75-9.78,11-17.27,2.25-7.49,3.37-16.45,3.37-26.86,0-15.62-2.6-27.96-7.81-37.03-5.21-9.07-14.16-13.61-26.86-13.61-8.44,0-15.24,2.05-20.41,6.15-5.17,4.1-8.91,9.94-11.24,17.51-2.33,7.57-3.49,16.56-3.49,26.97Z"/><path class="cls-2" d="m2536.06,269.85h-61.29l-63.18-121.86h-1.06c.39,3.71.75,8.16,1.06,13.37.31,5.21.59,10.51.83,15.91.24,5.4.36,10.27.36,14.61v77.97h-41.41V96.88h61.05l62.94,120.21h.71c-.24-3.79-.47-8.18-.71-13.19-.24-5.01-.45-10.08-.65-15.2-.2-5.13-.3-9.66-.3-13.61v-78.2h41.65v172.97Z"/></g><g><path class="cls-4" d="m122.94,217c-1.26,1.86-5.61,12.71-31.43,11.67-29.37-1.19-31.97-.45-41.09-12.83-5.69-7.73-9.78-12.54-7.27-18.28,2.51-5.74,25.93-22.17,36.42-31.06,9.56-8.1,16.37-7.07,21.7-5.04,3.97,1.51,7.02,5.25,10.53,12.8,4.7,10.11,8.89,21.13,11.69,29.56,2.59,7.79,1.11,10.74-.55,13.19Z"/><path class="cls-6" d="m150.57,44.14l7.58-26.93-4.21-15.99.02-1.21H60.91C27.27,0,0,27.27,0,60.91v138.92l25.16-3.36L150.57,44.14Z"/><path class="cls-1" d="m133.81,111.57l-5.68,13.87c-3.16,8.59-4.18,19.65-2.64,28.67l1.87,9.39,45.93,61.59s41.99-10.08,78.96-10.56c36.97-.47,72.03,15.51,78.44,21.5,8.66-2.47,26.7-8.56,35.68-11.62V60.91c0-33.64-27.27-60.91-60.91-60.91h-109.73l-1.39,1.21-60.53,110.36Z"/><path class="cls-3" d="m321.43,249.51c-30.45-9.61-40.98-13.18-75.78-13.35-34.8-.17-61.46,27.43-56.67,56.59,1.43,8.69,15.59,70.64,16.27,73.63h100.21c33.64,0,60.91-27.27,60.91-60.91v-31.31l-.33-.24s-14.16-14.79-44.61-24.41Z"/><path class="cls-5" d="m145.04,266.26c9.44,21.25,31.81,91.11,34.68,100.11H60.91c-33.64,0-60.91-27.27-60.91-60.91v-53.45c2.26-.39,53.78-9.34,79.03-14.11,25.82-4.88,55.91,5.64,66.01,28.36Z"/></g></g></g></svg>